<ttFont>
    <TTGlyph name=".notdef" xMin="-62" yMin="-303" xMax="1154" yMax="1513">
      <contour>
        <pt x="301" y="1513" on="1"/>
        <pt x="1154" y="1513" on="1"/>
        <pt x="791" y="-303" on="1"/>
        <pt x="-62" y="-303" on="1"/>
      </contour>
      <contour>
        <pt x="587" y="-79" on="1"/>
        <pt x="861" y="1289" on="1"/>
        <pt x="504" y="1289" on="1"/>
        <pt x="230" y="-79" on="1"/>
      </contour>
    </TTGlyph>
    <TTGlyph name="A" xMin="1" yMin="0" xMax="846" yMax="1362">
      <contour>
        <pt x="669" y="1362" on="1"/>
        <pt x="728" y="1362" on="1"/>
        <pt x="846" y="0" on="1"/>
        <pt x="783" y="0" on="1"/>
        <pt x="749" y="428" on="1"/>
        <pt x="267" y="428" on="1"/>
        <pt x="58" y="0" on="1"/>
        <pt x="1" y="0" on="1"/>
      </contour>
      <contour>
        <pt x="744" y="480" on="1"/>
        <pt x="680" y="1276" on="1"/>
        <pt x="292" y="480" on="1"/>
      </contour>
    </TTGlyph>
    <TTGlyph name="A.hex" xMin="-35" yMin="0" xMax="882" yMax="1210">
      <contour>
        <pt x="591" y="1210" on="1"/>
        <pt x="748" y="1210" on="1"/>
        <pt x="882" y="0" on="1"/>
        <pt x="714" y="0" on="1"/>
        <pt x="685" y="310" on="1"/>
        <pt x="275" y="310" on="1"/>
        <pt x="116" y="0" on="1"/>
        <pt x="-35" y="0" on="1"/>
      </contour>
      <contour>
        <pt x="673" y="446" on="1"/>
        <pt x="622" y="990" on="1"/>
        <pt x="344" y="446" on="1"/>
      </contour>
    </TTGlyph>
    <TTGlyph name="Aacute" xMin="-104" yMin="0" xMax="1006" yMax="1870">
      <component glyphName="A" x="-105" y="0" flags="0x0"/>
      <component glyphName="acutecomb.case" x="-105" y="0" flags="0x0"/>
    </TTGlyph>
    <TTGlyph name="Abreve" xMin="-104" yMin="0" xMax="975" yMax="1816">
      <component glyphName="A" x="-105" y="0" flags="0x0"/>
      <component glyphName="uni0306.case" x="-105" y="0" flags="0x0"/>
    </TTGlyph>
    <TTGlyph name="Acircumflex" xMin="-104" yMin="0" xMax="930" yMax="1870">
      <component glyphName="A" x="-105" y="0" flags="0x0"/>
      <component glyphName="uni0302.case" x="-105" y="0" flags="0x0"/>
    </TTGlyph>
    <TTGlyph name="Adieresis" xMin="-104" yMin="0" xMax="883" yMax="1615">
      <component glyphName="A" x="-105" y="0" flags="0x0"/>
      <component glyphName="uni0308.case" x="-105" y="0" flags="0x0"/>
    </TTGlyph>
    <TTGlyph name="Agrave" xMin="-104" yMin="0" xMax="741" yMax="1870">
      <component glyphName="A" x="-105" y="0" flags="0x0"/>
      <component glyphName="gravecomb.case" x="-105" y="0" flags="0x0"/>
    </TTGlyph>
    <TTGlyph name="Amacron" xMin="-104" yMin="0" xMax="955" yMax="1710">
      <component glyphName="A" x="-105" y="0" flags="0x0"/>
      <component glyphName="uni0304.case" x="-105" y="0" flags="0x0"/>
    </TTGlyph>
    <TTGlyph name="Aogonek" xMin="1" yMin="-303" xMax="884" yMax="1362">
      <contour>
        <pt x="663" y="-303" on="0"/>
        <pt x="601" y="-253" on="0"/>
        <pt x="601" y="-207" on="1"/>
        <pt x="601" y="-189" on="0"/>
        <pt x="603" y="-180" on="1"/>
        <pt x="629" y="-61" on="0"/>
        <pt x="806" y="1" on="1"/>
        <pt x="783" y="0" on="1"/>
        <pt x="749" y="428" on="1"/>
        <pt x="267" y="428" on="1"/>
        <pt x="58" y="0" on="1"/>
        <pt x="1" y="0" on="1"/>
        <pt x="669" y="1362" on="1"/>
        <pt x="728" y="1362" on="1"/>
        <pt x="845" y="12" on="1"/>
        <pt x="879" y="21" on="1"/>
        <pt x="884" y="-1" on="1"/>
        <pt x="793" y="-24" on="0"/>
        <pt x="676" y="-111" on="0"/>
        <pt x="664" y="-169" on="1"/>
        <pt x="662" y="-185" on="0"/>
        <pt x="662" y="-191" on="1"/>
        <pt x="662" y="-251" on="0"/>
        <pt x="736" y="-251" on="1"/>
        <pt x="772" y="-251" on="0"/>
        <pt x="817" y="-234" on="1"/>
        <pt x="819" y="-283" on="1"/>
        <pt x="764" y="-303" on="0"/>
        <pt x="720" y="-303" on="1"/>
      </contour>
      <contour>
        <pt x="744" y="480" on="1"/>
        <pt x="680" y="1276" on="1"/>
        <pt x="292" y="480" on="1"/>
      </contour>
    </TTGlyph>
    <TTGlyph name="Aring" xMin="-104" yMin="0" xMax="901" yMax="1902">
      <component glyphName="A" x="-105" y="0" flags="0x0"/>
      <component glyphName="uni030A.case" x="-105" y="0" flags="0x0"/>
    </TTGlyph>
    <TTGlyph name="Atilde" xMin="-104" yMin="0" xMax="1002" yMax="1789">
      <component glyphName="A" x="-105" y="0" flags="0x0"/>
      <component glyphName="tildecomb.case" x="-105" y="0" flags="0x0"/>
    </TTGlyph>
    <TTGlyph name="B" xMin="83" yMin="0" xMax="967" yMax="1362">
      <contour>
        <pt x="356" y="1362" on="1"/>
        <pt x="620" y="1362" on="1"/>
        <pt x="792" y="1362" on="0"/>
        <pt x="967" y="1224" on="0"/>
        <pt x="967" y="1099" on="1"/>
        <pt x="967" y="1060" on="0"/>
        <pt x="958" y="1015" on="1"/>
        <pt x="934" y="893" on="0"/>
        <pt x="763" y="721" on="0"/>
        <pt x="633" y="691" on="1"/>
        <pt x="741" y="668" on="0"/>
        <pt x="860" y="534" on="0"/>
        <pt x="860" y="432" on="1"/>
        <pt x="860" y="390" on="0"/>
        <pt x="852" y="353" on="1"/>
        <pt x="819" y="185" on="0"/>
        <pt x="579" y="0" on="0"/>
        <pt x="377" y="0" on="1"/>
        <pt x="83" y="0" on="1"/>
      </contour>
      <contour>
        <pt x="557" y="49" on="0"/>
        <pt x="765" y="216" on="0"/>
        <pt x="795" y="365" on="1"/>
        <pt x="802" y="400" on="0"/>
        <pt x="802" y="436" on="1"/>
        <pt x="802" y="544" on="0"/>
        <pt x="653" y="662" on="0"/>
        <pt x="515" y="663" on="1"/>
        <pt x="272" y="663" on="1"/>
        <pt x="149" y="50" on="1"/>
        <pt x="385" y="50" on="1"/>
      </contour>
      <contour>
        <pt x="611" y="714" on="0"/>
        <pt x="773" y="787" on="0"/>
        <pt x="880" y="922" on="0"/>
        <pt x="899" y="1012" on="1"/>
        <pt x="907" y="1055" on="0"/>
        <pt x="907" y="1089" on="1"/>
        <pt x="907" y="1196" on="0"/>
        <pt x="764" y="1312" on="0"/>
        <pt x="615" y="1312" on="1"/>
        <pt x="402" y="1312" on="1"/>
        <pt x="282" y="714" on="1"/>
        <pt x="511" y="714" on="1"/>
      </contour>
    </TTGlyph>
    <TTGlyph name="B.hex" xMin="46" yMin="0" xMax="977" yMax="1210">
      <contour>
        <pt x="288" y="1210" on="1"/>
        <pt x="589" y="1210" on="1"/>
        <pt x="782" y="1210" on="0"/>
        <pt x="977" y="1080" on="0"/>
        <pt x="977" y="962" on="1"/>
        <pt x="977" y="928" on="0"/>
        <pt x="970" y="896" on="1"/>
        <pt x="951" y="802" on="0"/>
        <pt x="820" y="659" on="0"/>
        <pt x="716" y="620" on="1"/>
        <pt x="800" y="589" on="0"/>
        <pt x="889" y="469" on="0"/>
        <pt x="889" y="385" on="1"/>
        <pt x="889" y="350" on="0"/>
        <pt x="882" y="318" on="1"/>
        <pt x="851" y="167" on="0"/>
        <pt x="597" y="0" on="0"/>
        <pt x="377" y="0" on="1"/>
        <pt x="46" y="0" on="1"/>
      </contour>
      <contour>
        <pt x="545" y="132" on="0"/>
        <pt x="709" y="245" on="0"/>
        <pt x="728" y="344" on="1"/>
        <pt x="733" y="372" on="0"/>
        <pt x="733" y="391" on="1"/>
        <pt x="733" y="468" on="0"/>
        <pt x="614" y="545" on="0"/>
        <pt x="500" y="545" on="1"/>
        <pt x="307" y="545" on="1"/>
        <pt x="225" y="132" on="1"/>
        <pt x="404" y="132" on="1"/>
      </contour>
      <contour>
        <pt x="628" y="681" on="0"/>
        <pt x="790" y="782" on="0"/>
        <pt x="810" y="883" on="1"/>
        <pt x="815" y="908" on="0"/>
        <pt x="815" y="927" on="1"/>
        <pt x="815" y="1078" on="0"/>
        <pt x="571" y="1078" on="1"/>
        <pt x="414" y="1078" on="1"/>
        <pt x="335" y="681" on="1"/>
        <pt x="495" y="681" on="1"/>
      </contour>
    </TTGlyph>
    <TTGlyph name="C" xMin="162" yMin="-21" xMax="1013" yMax="1382">
      <contour>
        <pt x="310" y="-21" on="0"/>
        <pt x="162" y="174" on="0"/>
        <pt x="162" y="372" on="1"/>
        <pt x="162" y="508" on="0"/>
        <pt x="197" y="683" on="1"/>
        <pt x="267" y="1033" on="0"/>
        <pt x="550" y="1382" on="0"/>
        <pt x="752" y="1382" on="1"/>
        <pt x="893" y="1382" on="0"/>
        <pt x="1013" y="1266" on="1"/>
        <pt x="983" y="1227" on="1"/>
        <pt x="933" y="1275" on="0"/>
        <pt x="816" y="1331" on="0"/>
        <pt x="743" y="1331" on="1"/>
        <pt x="573" y="1331" on="0"/>
        <pt x="321" y="1015" on="0"/>
        <pt x="254" y="679" on="1"/>
        <pt x="218" y="498" on="0"/>
        <pt x="218" y="369" on="1"/>
        <pt x="218" y="30" on="0"/>
        <pt x="464" y="30" on="1"/>
        <pt x="519" y="30" on="0"/>
        <pt x="619" y="60" on="0"/>
        <pt x="704" y="106" on="0"/>
        <pt x="764" y="145" on="1"/>
        <pt x="781" y="103" on="1"/>
        <pt x="715" y="60" on="0"/>
        <pt x="625" y="11" on="0"/>
        <pt x="515" y="-21" on="0"/>
        <pt x="449" y="-21" on="1"/>
      </contour>
    </TTGlyph>
    <TTGlyph name="C.hex" xMin="119" yMin="-21" xMax="1019" yMax="1231">
      <contour>
        <pt x="290" y="-21" on="0"/>
        <pt x="119" y="170" on="0"/>
        <pt x="119" y="364" on="1"/>
        <pt x="119" y="469" on="0"/>
        <pt x="146" y="607" on="1"/>
        <pt x="208" y="919" on="0"/>
        <pt x="502" y="1231" on="0"/>
        <pt x="722" y="1231" on="1"/>
        <pt x="809" y="1231" on="0"/>
        <pt x="952" y="1169" on="0"/>
        <pt x="1019" y="1115" on="1"/>
        <pt x="937" y="1009" on="1"/>
        <pt x="882" y="1047" on="0"/>
        <pt x="766" y="1095" on="0"/>
        <pt x="691" y="1095" on="1"/>
        <pt x="557" y="1095" on="0"/>
        <pt x="354" y="876" on="0"/>
        <pt x="300" y="603" on="1"/>
        <pt x="274" y="471" on="0"/>
        <pt x="274" y="381" on="1"/>
        <pt x="274" y="245" on="0"/>
        <pt x="386" y="115" on="0"/>
        <pt x="498" y="115" on="1"/>
        <pt x="565" y="115" on="0"/>
        <pt x="687" y="161" on="0"/>
        <pt x="775" y="209" on="1"/>
        <pt x="817" y="103" on="1"/>
        <pt x="743" y="59" on="0"/>
        <pt x="645" y="11" on="0"/>
        <pt x="523" y="-21" on="0"/>
        <pt x="449" y="-21" on="1"/>
      </contour>
    </TTGlyph>
    <TTGlyph name="Cacute" xMin="57" yMin="-21" xMax="1050" yMax="1870">
      <component glyphName="C" x="-105" y="0" flags="0x0"/>
      <component glyphName="acutecomb.case" x="-61" y="0" flags="0x0"/>
    </TTGlyph>
    <TTGlyph name="Ccaron" xMin="57" yMin="-21" xMax="1053" yMax="1870">
      <component glyphName="C" x="-105" y="0" flags="0x0"/>
      <component glyphName="uni030C.case" x="-61" y="0" flags="0x0"/>
    </TTGlyph>
    <TTGlyph name="Ccedilla" xMin="162" yMin="-303" xMax="1013" yMax="1382">
      <contour>
        <pt x="310" y="-21" on="0"/>
        <pt x="162" y="174" on="0"/>
        <pt x="162" y="372" on="1"/>
        <pt x="162" y="508" on="0"/>
        <pt x="197" y="683" on="1"/>
        <pt x="267" y="1033" on="0"/>
        <pt x="550" y="1382" on="0"/>
        <pt x="752" y="1382" on="1"/>
        <pt x="893" y="1382" on="0"/>
        <pt x="1013" y="1266" on="1"/>
        <pt x="983" y="1227" on="1"/>
        <pt x="933" y="1275" on="0"/>
        <pt x="816" y="1331" on="0"/>
        <pt x="743" y="1331" on="1"/>
        <pt x="573" y="1331" on="0"/>
        <pt x="321" y="1015" on="0"/>
        <pt x="254" y="679" on="1"/>
        <pt x="218" y="498" on="0"/>
        <pt x="218" y="369" on="1"/>
        <pt x="218" y="30" on="0"/>
        <pt x="464" y="30" on="1"/>
        <pt x="519" y="30" on="0"/>
        <pt x="619" y="60" on="0"/>
        <pt x="704" y="106" on="0"/>
        <pt x="764" y="145" on="1"/>
        <pt x="781" y="103" on="1"/>
        <pt x="725" y="67" on="0"/>
        <pt x="658" y="27" on="0"/>
        <pt x="620" y="11" on="1"/>
        <pt x="618" y="-48" on="0"/>
        <pt x="610" y="-85" on="1"/>
        <pt x="588" y="-193" on="0"/>
        <pt x="436" y="-303" on="0"/>
        <pt x="331" y="-303" on="1"/>
        <pt x="270" y="-303" on="0"/>
        <pt x="209" y="-286" on="1"/>
        <pt x="245" y="-161" on="1"/>
        <pt x="279" y="-166" on="0"/>
        <pt x="323" y="-166" on="1"/>
        <pt x="391" y="-166" on="0"/>
        <pt x="466" y="-109" on="0"/>
        <pt x="478" y="-49" on="1"/>
        <pt x="480" y="-34" on="0"/>
        <pt x="484" y="-20" on="1"/>
        <pt x="472" y="-21" on="0"/>
        <pt x="449" y="-21" on="1"/>
      </contour>
    </TTGlyph>
    <TTGlyph name="Ccircumflex" xMin="57" yMin="-21" xMax="974" yMax="1870">
      <component glyphName="C" x="-105" y="0" flags="0x0"/>
      <component glyphName="uni0302.case" x="-61" y="0" flags="0x0"/>
    </TTGlyph>
    <TTGlyph name="Cdotaccent" xMin="57" yMin="-21" xMax="908" yMax="1839">
      <component glyphName="C" x="-105" y="0" flags="0x0"/>
      <component glyphName="uni0307" x="2" y="314" flags="0x4"/>
    </TTGlyph>
    <TTGlyph name="D" xMin="83" yMin="0" xMax="981" yMax="1362">
      <contour>
        <pt x="981" y="1362" on="0"/>
        <pt x="981" y="962" on="1"/>
        <pt x="981" y="841" on="0"/>
        <pt x="949" y="683" on="1"/>
        <pt x="904" y="461" on="0"/>
        <pt x="735" y="154" on="0"/>
        <pt x="508" y="0" on="0"/>
        <pt x="377" y="0" on="1"/>
        <pt x="83" y="0" on="1"/>
        <pt x="356" y="1362" on="1"/>
        <pt x="635" y="1362" on="1"/>
      </contour>
      <contour>
        <pt x="401" y="1310" on="1"/>
        <pt x="149" y="51" on="1"/>
        <pt x="387" y="51" on="1"/>
        <pt x="502" y="51" on="0"/>
        <pt x="698" y="189" on="0"/>
        <pt x="846" y="472" on="0"/>
        <pt x="889" y="685" on="1"/>
        <pt x="922" y="846" on="0"/>
        <pt x="922" y="965" on="1"/>
        <pt x="922" y="1139" on="0"/>
        <pt x="779" y="1310" on="0"/>
        <pt x="631" y="1310" on="1"/>
      </contour>
    </TTGlyph>
    <TTGlyph name="D.hex" xMin="46" yMin="0" xMax="994" yMax="1210">
      <contour>
        <pt x="994" y="1210" on="0"/>
        <pt x="994" y="823" on="1"/>
        <pt x="994" y="726" on="0"/>
        <pt x="970" y="607" on="1"/>
        <pt x="930" y="409" on="0"/>
        <pt x="759" y="136" on="0"/>
        <pt x="520" y="0" on="0"/>
        <pt x="377" y="0" on="1"/>
        <pt x="46" y="0" on="1"/>
        <pt x="288" y="1210" on="1"/>
        <pt x="604" y="1210" on="1"/>
      </contour>
      <contour>
        <pt x="413" y="1074" on="1"/>
        <pt x="225" y="136" on="1"/>
        <pt x="409" y="136" on="1"/>
        <pt x="559" y="136" on="0"/>
        <pt x="760" y="354" on="0"/>
        <pt x="810" y="605" on="1"/>
        <pt x="834" y="727" on="0"/>
        <pt x="834" y="813" on="1"/>
        <pt x="834" y="951" on="0"/>
        <pt x="712" y="1074" on="0"/>
        <pt x="589" y="1074" on="1"/>
      </contour>
    </TTGlyph>
    <TTGlyph name="Dcaron" xMin="-22" yMin="0" xMax="994" yMax="1870">
      <component glyphName="D" x="-105" y="0" flags="0x0"/>
      <component glyphName="uni030C.case" x="-120" y="0" flags="0x0"/>
    </TTGlyph>
    <TTGlyph name="Dcroat" xMin="-41" yMin="0" xMax="876" yMax="1362">
      <component glyphName="Eth" x="-105" y="0" flags="0x0"/>
    </TTGlyph>
    <TTGlyph name="E" xMin="105" yMin="0" xMax="1015" yMax="1362">
      <contour>
        <pt x="378" y="1362" on="1"/>
        <pt x="1015" y="1362" on="1"/>
        <pt x="1004" y="1310" on="1"/>
        <pt x="424" y="1310" on="1"/>
        <pt x="304" y="710" on="1"/>
        <pt x="816" y="710" on="1"/>
        <pt x="806" y="659" on="1"/>
        <pt x="294" y="659" on="1"/>
        <pt x="172" y="51" on="1"/>
        <pt x="759" y="51" on="1"/>
        <pt x="749" y="0" on="1"/>
        <pt x="105" y="0" on="1"/>
      </contour>
    </TTGlyph>
    <TTGlyph name="E.hex" xMin="69" yMin="0" xMax="1020" yMax="1210">
      <contour>
        <pt x="311" y="1210" on="1"/>
        <pt x="1020" y="1210" on="1"/>
        <pt x="993" y="1074" on="1"/>
        <pt x="435" y="1074" on="1"/>
        <pt x="356" y="677" on="1"/>
        <pt x="846" y="677" on="1"/>
        <pt x="819" y="541" on="1"/>
        <pt x="329" y="541" on="1"/>
        <pt x="247" y="136" on="1"/>
        <pt x="813" y="136" on="1"/>
        <pt x="786" y="0" on="1"/>
        <pt x="69" y="0" on="1"/>
      </contour>
    </TTGlyph>
    <TTGlyph name="Eacute" xMin="0" yMin="0" xMax="1016" yMax="1870">
      <component glyphName="E" x="-105" y="0" flags="0x0"/>
      <component glyphName="acutecomb.case" x="-95" y="0" flags="0x0"/>
    </TTGlyph>
    <TTGlyph name="Ebreve" xMin="0" yMin="0" xMax="985" yMax="1816">
      <component glyphName="E" x="-105" y="0" flags="0x0"/>
      <component glyphName="uni0306.case" x="-95" y="0" flags="0x0"/>
    </TTGlyph>
    <TTGlyph name="Ecaron" xMin="0" yMin="0" xMax="1019" yMax="1870">
      <component glyphName="E" x="-105" y="0" flags="0x0"/>
      <component glyphName="uni030C.case" x="-95" y="0" flags="0x0"/>
    </TTGlyph>
    <TTGlyph name="Ecircumflex" xMin="0" yMin="0" xMax="940" yMax="1870">
      <component glyphName="E" x="-105" y="0" flags="0x0"/>
      <component glyphName="uni0302.case" x="-95" y="0" flags="0x0"/>
    </TTGlyph>
    <TTGlyph name="Edieresis" xMin="0" yMin="0" xMax="910" yMax="1615">
      <component glyphName="E" x="-105" y="0" flags="0x0"/>
      <component glyphName="uni0308.case" x="-95" y="0" flags="0x0"/>
    </TTGlyph>
    <TTGlyph name="Edotaccent" xMin="0" yMin="0" xMax="910" yMax="1839">
      <component glyphName="E" x="-105" y="0" flags="0x0"/>
      <component glyphName="uni0307" x="-32" y="314" flags="0x4"/>
    </TTGlyph>
    <TTGlyph name="Egrave" xMin="0" yMin="0" xMax="910" yMax="1870">
      <component glyphName="E" x="-105" y="0" flags="0x0"/>
      <component glyphName="gravecomb.case" x="-95" y="0" flags="0x0"/>
    </TTGlyph>
    <TTGlyph name="Emacron" xMin="0" yMin="0" xMax="965" yMax="1710">
      <component glyphName="E" x="-105" y="0" flags="0x0"/>
      <component glyphName="uni0304.case" x="-95" y="0" flags="0x0"/>
    </TTGlyph>
    <TTGlyph name="Eogonek" xMin="105" yMin="-303" xMax="1015" yMax="1362">
      <contour>
        <pt x="378" y="1362" on="1"/>
        <pt x="1015" y="1362" on="1"/>
        <pt x="1004" y="1310" on="1"/>
        <pt x="424" y="1310" on="1"/>
        <pt x="304" y="710" on="1"/>
        <pt x="816" y="710" on="1"/>
        <pt x="806" y="659" on="1"/>
        <pt x="294" y="659" on="1"/>
        <pt x="172" y="51" on="1"/>
        <pt x="759" y="51" on="1"/>
        <pt x="750" y="3" on="1"/>
        <pt x="752" y="-1" on="1"/>
        <pt x="661" y="-24" on="0"/>
        <pt x="544" y="-111" on="0"/>
        <pt x="532" y="-169" on="1"/>
        <pt x="530" y="-185" on="0"/>
        <pt x="530" y="-191" on="1"/>
        <pt x="530" y="-251" on="0"/>
        <pt x="604" y="-251" on="1"/>
        <pt x="640" y="-251" on="0"/>
        <pt x="685" y="-234" on="1"/>
        <pt x="687" y="-283" on="1"/>
        <pt x="632" y="-303" on="0"/>
        <pt x="588" y="-303" on="1"/>
        <pt x="531" y="-303" on="0"/>
        <pt x="469" y="-253" on="0"/>
        <pt x="469" y="-207" on="1"/>
        <pt x="469" y="-189" on="0"/>
        <pt x="471" y="-180" on="1"/>
        <pt x="497" y="-61" on="0"/>
        <pt x="674" y="1" on="1"/>
        <pt x="105" y="0" on="1"/>
      </contour>
    </TTGlyph>
    <TTGlyph name="Eth" xMin="64" yMin="0" xMax="981" yMax="1362">
      <contour>
        <pt x="74" y="714" on="1"/>
        <pt x="226" y="714" on="1"/>
        <pt x="356" y="1362" on="1"/>
        <pt x="635" y="1362" on="1"/>
        <pt x="981" y="1362" on="0"/>
        <pt x="981" y="962" on="1"/>
        <pt x="981" y="841" on="0"/>
        <pt x="949" y="683" on="1"/>
        <pt x="904" y="461" on="0"/>
        <pt x="735" y="154" on="0"/>
        <pt x="508" y="0" on="0"/>
        <pt x="377" y="0" on="1"/>
        <pt x="83" y="0" on="1"/>
        <pt x="216" y="663" on="1"/>
        <pt x="64" y="663" on="1"/>
      </contour>
      <contour>
        <pt x="401" y="1310" on="1"/>
        <pt x="282" y="714" on="1"/>
        <pt x="565" y="714" on="1"/>
        <pt x="555" y="663" on="1"/>
        <pt x="272" y="663" on="1"/>
        <pt x="149" y="51" on="1"/>
        <pt x="387" y="51" on="1"/>
        <pt x="502" y="51" on="0"/>
        <pt x="698" y="189" on="0"/>
        <pt x="846" y="472" on="0"/>
        <pt x="889" y="685" on="1"/>
        <pt x="922" y="846" on="0"/>
        <pt x="922" y="965" on="1"/>
        <pt x="922" y="1139" on="0"/>
        <pt x="779" y="1310" on="0"/>
        <pt x="631" y="1310" on="1"/>
      </contour>
    </TTGlyph>
    <TTGlyph name="F" xMin="120" yMin="0" xMax="1039" yMax="1362">
      <contour>
        <pt x="393" y="1362" on="1"/>
        <pt x="1039" y="1362" on="1"/>
        <pt x="1028" y="1310" on="1"/>
        <pt x="439" y="1310" on="1"/>
        <pt x="318" y="704" on="1"/>
        <pt x="756" y="704" on="1"/>
        <pt x="746" y="653" on="1"/>
        <pt x="308" y="653" on="1"/>
        <pt x="177" y="0" on="1"/>
        <pt x="120" y="0" on="1"/>
      </contour>
    </TTGlyph>
    <TTGlyph name="F.hex" xMin="84" yMin="0" xMax="1045" yMax="1210">
      <contour>
        <pt x="326" y="1210" on="1"/>
        <pt x="1045" y="1210" on="1"/>
        <pt x="1018" y="1074" on="1"/>
        <pt x="450" y="1074" on="1"/>
        <pt x="366" y="654" on="1"/>
        <pt x="782" y="654" on="1"/>
        <pt x="755" y="518" on="1"/>
        <pt x="339" y="518" on="1"/>
        <pt x="235" y="0" on="1"/>
        <pt x="84" y="0" on="1"/>
      </contour>
    </TTGlyph>
    <TTGlyph name="G" xMin="162" yMin="-21" xMax="1013" yMax="1382">
      <contour>
        <pt x="162" y="-21" on="0"/>
        <pt x="162" y="376" on="1"/>
        <pt x="162" y="505" on="0"/>
        <pt x="197" y="683" on="1"/>
        <pt x="267" y="1030" on="0"/>
        <pt x="550" y="1382" on="0"/>
        <pt x="760" y="1382" on="1"/>
        <pt x="829" y="1382" on="0"/>
        <pt x="951" y="1340" on="0"/>
        <pt x="1013" y="1296" on="1"/>
        <pt x="988" y="1253" on="1"/>
        <pt x="872" y="1331" on="0"/>
        <pt x="753" y="1331" on="1"/>
        <pt x="384" y="1331" on="0"/>
        <pt x="254" y="679" on="1"/>
        <pt x="218" y="501" on="0"/>
        <pt x="218" y="373" on="1"/>
        <pt x="218" y="200" on="0"/>
        <pt x="351" y="30" on="0"/>
        <pt x="486" y="30" on="1"/>
        <pt x="600" y="30" on="0"/>
        <pt x="724" y="79" on="1"/>
        <pt x="812" y="511" on="1"/>
        <pt x="515" y="511" on="1"/>
        <pt x="526" y="563" on="1"/>
        <pt x="879" y="563" on="1"/>
        <pt x="777" y="46" on="1"/>
        <pt x="624" y="-21" on="0"/>
        <pt x="475" y="-21" on="1"/>
      </contour>
    </TTGlyph>
    <TTGlyph name="Gbreve" xMin="57" yMin="-21" xMax="1037" yMax="1903">
      <component glyphName="G" x="-105" y="0" flags="0x0"/>
      <component glyphName="uni0306" x="2" y="314" flags="0x4"/>
    </TTGlyph>
    <TTGlyph name="Gcaron" xMin="57" yMin="-21" xMax="1053" yMax="1870">
      <component glyphName="G" x="-105" y="0" flags="0x0"/>
      <component glyphName="uni030C.case" x="-61" y="0" flags="0x0"/>
    </TTGlyph>
    <TTGlyph name="Gcircumflex" xMin="57" yMin="-21" xMax="974" yMax="1870">
      <component glyphName="G" x="-105" y="0" flags="0x0"/>
      <component glyphName="uni0302.case" x="-61" y="0" flags="0x0"/>
    </TTGlyph>
    <TTGlyph name="Gdotaccent" xMin="57" yMin="-21" xMax="908" yMax="1839">
      <component glyphName="G" x="-105" y="0" flags="0x0"/>
      <component glyphName="uni0307" x="2" y="314" flags="0x4"/>
    </TTGlyph>
    <TTGlyph name="H" xMin="83" yMin="0" xMax="1039" yMax="1362">
      <contour>
        <pt x="356" y="1362" on="1"/>
        <pt x="412" y="1362" on="1"/>
        <pt x="282" y="714" on="1"/>
        <pt x="853" y="714" on="1"/>
        <pt x="983" y="1362" on="1"/>
        <pt x="1039" y="1362" on="1"/>
        <pt x="766" y="0" on="1"/>
        <pt x="710" y="0" on="1"/>
        <pt x="843" y="663" on="1"/>
        <pt x="272" y="663" on="1"/>
        <pt x="139" y="0" on="1"/>
        <pt x="83" y="0" on="1"/>
      </contour>
    </TTGlyph>
    <TTGlyph name="Hbar" xMin="83" yMin="0" xMax="1152" yMax="1362">
      <contour>
        <pt x="307" y="1117" on="1"/>
        <pt x="155" y="1117" on="1"/>
        <pt x="165" y="1168" on="1"/>
        <pt x="317" y="1168" on="1"/>
        <pt x="356" y="1362" on="1"/>
        <pt x="412" y="1362" on="1"/>
        <pt x="373" y="1168" on="1"/>
        <pt x="944" y="1168" on="1"/>
        <pt x="983" y="1362" on="1"/>
        <pt x="1039" y="1362" on="1"/>
        <pt x="1000" y="1168" on="1"/>
        <pt x="1152" y="1168" on="1"/>
        <pt x="1142" y="1117" on="1"/>
        <pt x="990" y="1117" on="1"/>
        <pt x="766" y="0" on="1"/>
        <pt x="710" y="0" on="1"/>
        <pt x="843" y="663" on="1"/>
        <pt x="272" y="663" on="1"/>
        <pt x="139" y="0" on="1"/>
        <pt x="83" y="0" on="1"/>
      </contour>
      <contour>
        <pt x="853" y="714" on="1"/>
        <pt x="934" y="1117" on="1"/>
        <pt x="363" y="1117" on="1"/>
        <pt x="282" y="714" on="1"/>
      </contour>
    </TTGlyph>
    <TTGlyph name="Hcircumflex" xMin="-22" yMin="0" xMax="934" yMax="1870">
      <component glyphName="H" x="-105" y="0" flags="0x0"/>
      <component glyphName="uni0302.case" x="-105" y="0" flags="0x0"/>
    </TTGlyph>
    <TTGlyph name="I" xMin="83" yMin="0" xMax="888" yMax="1362">
      <contour>
        <pt x="92" y="46" on="1"/>
        <pt x="330" y="51" on="1"/>
        <pt x="582" y="1310" on="1"/>
        <pt x="347" y="1316" on="1"/>
        <pt x="356" y="1362" on="1"/>
        <pt x="888" y="1362" on="1"/>
        <pt x="879" y="1316" on="1"/>
        <pt x="639" y="1310" on="1"/>
        <pt x="387" y="51" on="1"/>
        <pt x="624" y="46" on="1"/>
        <pt x="615" y="0" on="1"/>
        <pt x="83" y="0" on="1"/>
      </contour>
    </TTGlyph>
    <TTGlyph name="I.sans" xMin="112" yMin="0" xMax="442" yMax="1362">
      <contour>
        <pt x="385" y="1362" on="1"/>
        <pt x="442" y="1362" on="1"/>
        <pt x="169" y="0" on="1"/>
        <pt x="112" y="0" on="1"/>
      </contour>
    </TTGlyph>
    <TTGlyph name="I.sans.prop" xMin="396" yMin="0" xMax="726" yMax="1362">
      <contour>
        <pt x="669" y="1362" on="1"/>
        <pt x="726" y="1362" on="1"/>
        <pt x="453" y="0" on="1"/>
        <pt x="396" y="0" on="1"/>
      </contour>
    </TTGlyph>
    <TTGlyph name="Iacute" xMin="-22" yMin="0" xMax="931" yMax="1870">
      <component glyphName="I" x="-105" y="0" flags="0x0"/>
      <component glyphName="acutecomb.case" x="-180" y="0" flags="0x0"/>
    </TTGlyph>
    <TTGlyph name="Ibreve" xMin="-22" yMin="0" xMax="900" yMax="1816">
      <component glyphName="I" x="-105" y="0" flags="0x0"/>
      <component glyphName="uni0306.case" x="-180" y="0" flags="0x0"/>
    </TTGlyph>
    <TTGlyph name="Icircumflex" xMin="-22" yMin="0" xMax="855" yMax="1870">
      <component glyphName="I" x="-105" y="0" flags="0x0"/>
      <component glyphName="uni0302.case" x="-180" y="0" flags="0x0"/>
    </TTGlyph>
    <TTGlyph name="Idieresis" xMin="-22" yMin="0" xMax="808" yMax="1615">
      <component glyphName="I" x="-105" y="0" flags="0x0"/>
      <component glyphName="uni0308.case" x="-180" y="0" flags="0x0"/>
    </TTGlyph>
    <TTGlyph name="Idotaccent" xMin="-22" yMin="0" xMax="783" yMax="1839">
      <component glyphName="I" x="-105" y="0" flags="0x0"/>
      <component glyphName="uni0307" x="-117" y="314" flags="0x4"/>
    </TTGlyph>
    <TTGlyph name="Igrave" xMin="-22" yMin="0" xMax="783" yMax="1870">
      <component glyphName="I" x="-105" y="0" flags="0x0"/>
      <component glyphName="gravecomb.case" x="-180" y="0" flags="0x0"/>
    </TTGlyph>
    <TTGlyph name="Imacron" xMin="-22" yMin="0" xMax="880" yMax="1710">
      <component glyphName="I" x="-105" y="0" flags="0x0"/>
      <component glyphName="uni0304.case" x="-180" y="0" flags="0x0"/>
    </TTGlyph>
    <TTGlyph name="Iogonek" xMin="83" yMin="-303" xMax="888" yMax="1362">
      <contour>
        <pt x="92" y="46" on="1"/>
        <pt x="330" y="51" on="1"/>
        <pt x="582" y="1310" on="1"/>
        <pt x="347" y="1316" on="1"/>
        <pt x="356" y="1362" on="1"/>
        <pt x="888" y="1362" on="1"/>
        <pt x="879" y="1316" on="1"/>
        <pt x="639" y="1310" on="1"/>
        <pt x="387" y="51" on="1"/>
        <pt x="624" y="46" on="1"/>
        <pt x="617" y="-1" on="1"/>
        <pt x="526" y="-24" on="0"/>
        <pt x="409" y="-111" on="0"/>
        <pt x="397" y="-169" on="1"/>
        <pt x="395" y="-185" on="0"/>
        <pt x="395" y="-191" on="1"/>
        <pt x="395" y="-251" on="0"/>
        <pt x="469" y="-251" on="1"/>
        <pt x="505" y="-251" on="0"/>
        <pt x="550" y="-234" on="1"/>
        <pt x="552" y="-283" on="1"/>
        <pt x="497" y="-303" on="0"/>
        <pt x="453" y="-303" on="1"/>
        <pt x="396" y="-303" on="0"/>
        <pt x="334" y="-253" on="0"/>
        <pt x="334" y="-207" on="1"/>
        <pt x="334" y="-189" on="0"/>
        <pt x="336" y="-180" on="1"/>
        <pt x="362" y="-61" on="0"/>
        <pt x="539" y="1" on="1"/>
        <pt x="83" y="0" on="1"/>
      </contour>
    </TTGlyph>
    <TTGlyph name="Itilde" xMin="-22" yMin="0" xMax="927" yMax="1789">
      <component glyphName="I" x="-105" y="0" flags="0x0"/>
      <component glyphName="tildecomb.case" x="-180" y="0" flags="0x0"/>
    </TTGlyph>
    <TTGlyph name="J" xMin="22" yMin="-23" xMax="903" yMax="1362">
      <contour>
        <pt x="203" y="-23" on="0"/>
        <pt x="71" y="84" on="0"/>
        <pt x="22" y="191" on="1"/>
        <pt x="64" y="219" on="1"/>
        <pt x="109" y="124" on="0"/>
        <pt x="223" y="28" on="0"/>
        <pt x="309" y="29" on="1"/>
        <pt x="389" y="29" on="0"/>
        <pt x="529" y="112" on="0"/>
        <pt x="628" y="269" on="0"/>
        <pt x="649" y="376" on="1"/>
        <pt x="835" y="1310" on="1"/>
        <pt x="354" y="1310" on="1"/>
        <pt x="365" y="1362" on="1"/>
        <pt x="903" y="1362" on="1"/>
        <pt x="707" y="382" on="1"/>
        <pt x="682" y="257" on="0"/>
        <pt x="565" y="74" on="0"/>
        <pt x="400" y="-23" on="0"/>
        <pt x="305" y="-23" on="1"/>
      </contour>
    </TTGlyph>
    <TTGlyph name="Jcircumflex" xMin="-83" yMin="-23" xMax="885" yMax="1870">
      <component glyphName="J" x="-105" y="0" flags="0x0"/>
      <component glyphName="uni0302.case" x="-150" y="0" flags="0x0"/>
    </TTGlyph>
    <TTGlyph name="K" xMin="83" yMin="0" xMax="1026" yMax="1362">
      <contour>
        <pt x="356" y="1362" on="1"/>
        <pt x="412" y="1362" on="1"/>
        <pt x="281" y="708" on="1"/>
        <pt x="960" y="1362" on="1"/>
        <pt x="1026" y="1362" on="1"/>
        <pt x="332" y="699" on="1"/>
        <pt x="783" y="0" on="1"/>
        <pt x="712" y="0" on="1"/>
        <pt x="276" y="683" on="1"/>
        <pt x="139" y="0" on="1"/>
        <pt x="83" y="0" on="1"/>
      </contour>
    </TTGlyph>
    <TTGlyph name="L" xMin="83" yMin="0" xMax="701" yMax="1362">
      <contour>
        <pt x="356" y="1362" on="1"/>
        <pt x="412" y="1362" on="1"/>
        <pt x="149" y="51" on="1"/>
        <pt x="701" y="51" on="1"/>
        <pt x="691" y="0" on="1"/>
        <pt x="83" y="0" on="1"/>
      </contour>
    </TTGlyph>
    <TTGlyph name="Lacute" xMin="-22" yMin="0" xMax="723" yMax="1870">
      <component glyphName="L" x="-105" y="0" flags="0x0"/>
      <component glyphName="acutecomb.case" x="-388" y="0" flags="0x0"/>
    </TTGlyph>
    <TTGlyph name="M" xMin="63" yMin="0" xMax="1237" yMax="1362">
      <contour>
        <pt x="593" y="74" on="1"/>
        <pt x="1158" y="1362" on="1"/>
        <pt x="1237" y="1362" on="1"/>
        <pt x="1089" y="0" on="1"/>
        <pt x="1035" y="0" on="1"/>
        <pt x="1174" y="1283" on="1"/>
        <pt x="612" y="0" on="1"/>
        <pt x="540" y="0" on="1"/>
        <pt x="493" y="1283" on="1"/>
        <pt x="117" y="0" on="1"/>
        <pt x="63" y="0" on="1"/>
        <pt x="462" y="1362" on="1"/>
        <pt x="545" y="1362" on="1"/>
      </contour>
    </TTGlyph>
    <TTGlyph name="N" xMin="83" yMin="0" xMax="1039" yMax="1362">
      <contour>
        <pt x="356" y="1362" on="1"/>
        <pt x="418" y="1362" on="1"/>
        <pt x="744" y="147" on="1"/>
        <pt x="987" y="1362" on="1"/>
        <pt x="1039" y="1362" on="1"/>
        <pt x="766" y="0" on="1"/>
        <pt x="719" y="0" on="1"/>
        <pt x="385" y="1248" on="1"/>
        <pt x="135" y="0" on="1"/>
        <pt x="83" y="0" on="1"/>
      </contour>
    </TTGlyph>
    <TTGlyph name="Nacute" xMin="-22" yMin="0" xMax="1006" yMax="1870">
      <component glyphName="N" x="-105" y="0" flags="0x0"/>
      <component glyphName="acutecomb.case" x="-105" y="0" flags="0x0"/>
    </TTGlyph>
    <TTGlyph name="Ncaron" xMin="-22" yMin="0" xMax="1009" yMax="1870">
      <component glyphName="N" x="-105" y="0" flags="0x0"/>
      <component glyphName="uni030C.case" x="-105" y="0" flags="0x0"/>
    </TTGlyph>
    <TTGlyph name="Ntilde" xMin="-22" yMin="0" xMax="1002" yMax="1789">
      <component glyphName="N" x="-105" y="0" flags="0x0"/>
      <component glyphName="tildecomb.case" x="-105" y="0" flags="0x0"/>
    </TTGlyph>
    <TTGlyph name="O" xMin="133" yMin="-19" xMax="990" yMax="1380">
      <contour>
        <pt x="133" y="-19" on="0"/>
        <pt x="133" y="361" on="1"/>
        <pt x="133" y="499" on="0"/>
        <pt x="170" y="683" on="1"/>
        <pt x="238" y="1026" on="0"/>
        <pt x="507" y="1380" on="0"/>
        <pt x="698" y="1380" on="1"/>
        <pt x="845" y="1380" on="0"/>
        <pt x="990" y="1193" on="0"/>
        <pt x="990" y="1004" on="1"/>
        <pt x="990" y="871" on="0"/>
        <pt x="952" y="679" on="1"/>
        <pt x="908" y="459" on="0"/>
        <pt x="753" y="145" on="0"/>
        <pt x="545" y="-19" on="0"/>
        <pt x="422" y="-19" on="1"/>
      </contour>
      <contour>
        <pt x="590" y="30" on="0"/>
        <pt x="829" y="365" on="0"/>
        <pt x="893" y="683" on="1"/>
        <pt x="932" y="880" on="0"/>
        <pt x="932" y="1013" on="1"/>
        <pt x="932" y="1176" on="0"/>
        <pt x="814" y="1331" on="0"/>
        <pt x="692" y="1331" on="1"/>
        <pt x="525" y="1331" on="0"/>
        <pt x="296" y="1008" on="0"/>
        <pt x="229" y="679" on="1"/>
        <pt x="191" y="486" on="0"/>
        <pt x="191" y="355" on="1"/>
        <pt x="191" y="191" on="0"/>
        <pt x="308" y="30" on="0"/>
        <pt x="429" y="31" on="1"/>
      </contour>
    </TTGlyph>
    <TTGlyph name="Oacute" xMin="28" yMin="-19" xMax="1006" yMax="1870">
      <component glyphName="O" x="-105" y="0" flags="0x0"/>
      <component glyphName="acutecomb.case" x="-105" y="0" flags="0x0"/>
    </TTGlyph>
    <TTGlyph name="Obreve" xMin="28" yMin="-19" xMax="975" yMax="1816">
      <component glyphName="O" x="-105" y="0" flags="0x0"/>
      <component glyphName="uni0306.case" x="-105" y="0" flags="0x0"/>
    </TTGlyph>
    <TTGlyph name="Ocircumflex" xMin="28" yMin="-19" xMax="930" yMax="1870">
      <component glyphName="O" x="-105" y="0" flags="0x0"/>
      <component glyphName="uni0302.case" x="-105" y="0" flags="0x0"/>
    </TTGlyph>
    <TTGlyph name="Odieresis" xMin="28" yMin="-19" xMax="885" yMax="1615">
      <component glyphName="O" x="-105" y="0" flags="0x0"/>
      <component glyphName="uni0308.case" x="-105" y="0" flags="0x0"/>
    </TTGlyph>
    <TTGlyph name="Ograve" xMin="28" yMin="-19" xMax="885" yMax="1870">
      <component glyphName="O" x="-105" y="0" flags="0x0"/>
      <component glyphName="gravecomb.case" x="-105" y="0" flags="0x0"/>
    </TTGlyph>
    <TTGlyph name="Omacron" xMin="28" yMin="-19" xMax="955" yMax="1710">
      <component glyphName="O" x="-105" y="0" flags="0x0"/>
      <component glyphName="uni0304.case" x="-105" y="0" flags="0x0"/>
    </TTGlyph>
    <TTGlyph name="Otilde" xMin="28" yMin="-19" xMax="1002" yMax="1789">
      <component glyphName="O" x="-105" y="0" flags="0x0"/>
      <component glyphName="tildecomb.case" x="-105" y="0" flags="0x0"/>
    </TTGlyph>
    <TTGlyph name="P" xMin="83" yMin="0" xMax="959" yMax="1362">
      <contour>
        <pt x="356" y="1362" on="1"/>
        <pt x="624" y="1362" on="1"/>
        <pt x="791" y="1362" on="0"/>
        <pt x="959" y="1202" on="0"/>
        <pt x="959" y="1056" on="1"/>
        <pt x="959" y="999" on="0"/>
        <pt x="945" y="929" on="1"/>
        <pt x="920" y="804" on="0"/>
        <pt x="788" y="616" on="0"/>
        <pt x="574" y="511" on="0"/>
        <pt x="433" y="511" on="1"/>
        <pt x="324" y="511" on="0"/>
        <pt x="245" y="519" on="1"/>
        <pt x="139" y="0" on="1"/>
        <pt x="83" y="0" on="1"/>
      </contour>
      <contour>
        <pt x="315" y="565" on="0"/>
        <pt x="438" y="563" on="1"/>
        <pt x="629" y="564" on="0"/>
        <pt x="851" y="757" on="0"/>
        <pt x="885" y="930" on="1"/>
        <pt x="898" y="994" on="0"/>
        <pt x="898" y="1052" on="1"/>
        <pt x="898" y="1177" on="0"/>
        <pt x="760" y="1310" on="0"/>
        <pt x="618" y="1310" on="1"/>
        <pt x="401" y="1310" on="1"/>
        <pt x="251" y="570" on="1"/>
      </contour>
    </TTGlyph>
    <TTGlyph name="Q" xMin="133" yMin="-310" xMax="990" yMax="1380">
      <contour>
        <pt x="392" y="-310" on="0"/>
        <pt x="392" y="-78" on="1"/>
        <pt x="392" y="-50" on="0"/>
        <pt x="395" y="-18" on="1"/>
        <pt x="133" y="0" on="0"/>
        <pt x="133" y="363" on="1"/>
        <pt x="133" y="493" on="0"/>
        <pt x="170" y="683" on="1"/>
        <pt x="238" y="1026" on="0"/>
        <pt x="507" y="1380" on="0"/>
        <pt x="698" y="1380" on="1"/>
        <pt x="845" y="1380" on="0"/>
        <pt x="990" y="1193" on="0"/>
        <pt x="990" y="1004" on="1"/>
        <pt x="990" y="871" on="0"/>
        <pt x="952" y="679" on="1"/>
        <pt x="910" y="466" on="0"/>
        <pt x="763" y="160" on="0"/>
        <pt x="565" y="-10" on="0"/>
        <pt x="446" y="-20" on="1"/>
        <pt x="443" y="-50" on="0"/>
        <pt x="443" y="-77" on="1"/>
        <pt x="443" y="-171" on="0"/>
        <pt x="521" y="-259" on="0"/>
        <pt x="598" y="-259" on="1"/>
        <pt x="657" y="-259" on="0"/>
        <pt x="717" y="-237" on="1"/>
        <pt x="719" y="-285" on="1"/>
        <pt x="660" y="-310" on="0"/>
        <pt x="580" y="-310" on="1"/>
      </contour>
      <contour>
        <pt x="590" y="30" on="0"/>
        <pt x="829" y="365" on="0"/>
        <pt x="893" y="683" on="1"/>
        <pt x="932" y="880" on="0"/>
        <pt x="932" y="1013" on="1"/>
        <pt x="932" y="1176" on="0"/>
        <pt x="814" y="1331" on="0"/>
        <pt x="692" y="1331" on="1"/>
        <pt x="525" y="1331" on="0"/>
        <pt x="296" y="1008" on="0"/>
        <pt x="229" y="679" on="1"/>
        <pt x="191" y="486" on="0"/>
        <pt x="191" y="355" on="1"/>
        <pt x="191" y="191" on="0"/>
        <pt x="308" y="30" on="0"/>
        <pt x="429" y="31" on="1"/>
      </contour>
    </TTGlyph>
    <TTGlyph name="R" xMin="83" yMin="0" xMax="967" yMax="1362">
      <contour>
        <pt x="356" y="1362" on="1"/>
        <pt x="624" y="1362" on="1"/>
        <pt x="794" y="1362" on="0"/>
        <pt x="967" y="1216" on="0"/>
        <pt x="967" y="1084" on="1"/>
        <pt x="967" y="1041" on="0"/>
        <pt x="956" y="986" on="1"/>
        <pt x="924" y="826" on="0"/>
        <pt x="715" y="628" on="0"/>
        <pt x="545" y="614" on="1"/>
        <pt x="798" y="0" on="1"/>
        <pt x="728" y="0" on="1"/>
        <pt x="482" y="610" on="1"/>
        <pt x="261" y="610" on="1"/>
        <pt x="139" y="0" on="1"/>
        <pt x="83" y="0" on="1"/>
      </contour>
      <contour>
        <pt x="667" y="662" on="0"/>
        <pt x="867" y="835" on="0"/>
        <pt x="897" y="987" on="1"/>
        <pt x="907" y="1040" on="0"/>
        <pt x="907" y="1078" on="1"/>
        <pt x="907" y="1190" on="0"/>
        <pt x="764" y="1310" on="0"/>
        <pt x="618" y="1310" on="1"/>
        <pt x="401" y="1310" on="1"/>
        <pt x="272" y="661" on="1"/>
        <pt x="504" y="661" on="1"/>
      </contour>
    </TTGlyph>
    <TTGlyph name="Racute" xMin="-22" yMin="0" xMax="972" yMax="1870">
      <component glyphName="R" x="-105" y="0" flags="0x0"/>
      <component glyphName="acutecomb.case" x="-139" y="0" flags="0x0"/>
    </TTGlyph>
    <TTGlyph name="Rcaron" xMin="-22" yMin="0" xMax="975" yMax="1870">
      <component glyphName="R" x="-105" y="0" flags="0x0"/>
      <component glyphName="uni030C.case" x="-139" y="0" flags="0x0"/>
    </TTGlyph>
    <TTGlyph name="S" xMin="34" yMin="-17" xMax="904" yMax="1380">
      <contour>
        <pt x="233" y="-17" on="0"/>
        <pt x="101" y="31" on="0"/>
        <pt x="34" y="82" on="1"/>
        <pt x="59" y="124" on="1"/>
        <pt x="177" y="34" on="0"/>
        <pt x="311" y="34" on="1"/>
        <pt x="394" y="34" on="0"/>
        <pt x="538" y="103" on="0"/>
        <pt x="635" y="226" on="0"/>
        <pt x="650" y="305" on="1"/>
        <pt x="656" y="337" on="0"/>
        <pt x="656" y="365" on="1"/>
        <pt x="656" y="427" on="0"/>
        <pt x="604" y="531" on="0"/>
        <pt x="527" y="612" on="0"/>
        <pt x="462" y="670" on="1"/>
        <pt x="394" y="730" on="0"/>
        <pt x="314" y="815" on="0"/>
        <pt x="258" y="927" on="0"/>
        <pt x="258" y="995" on="1"/>
        <pt x="258" y="1029" on="0"/>
        <pt x="265" y="1063" on="1"/>
        <pt x="283" y="1153" on="0"/>
        <pt x="390" y="1298" on="0"/>
        <pt x="543" y="1380" on="0"/>
        <pt x="629" y="1380" on="1"/>
        <pt x="699" y="1380" on="0"/>
        <pt x="847" y="1332" on="0"/>
        <pt x="904" y="1291" on="1"/>
        <pt x="878" y="1249" on="1"/>
        <pt x="822" y="1288" on="0"/>
        <pt x="691" y="1329" on="0"/>
        <pt x="628" y="1329" on="1"/>
        <pt x="556" y="1329" on="0"/>
        <pt x="428" y="1260" on="0"/>
        <pt x="338" y="1139" on="0"/>
        <pt x="323" y="1063" on="1"/>
        <pt x="317" y="1033" on="0"/>
        <pt x="317" y="1005" on="1"/>
        <pt x="317" y="944" on="0"/>
        <pt x="369" y="842" on="0"/>
        <pt x="445" y="762" on="0"/>
        <pt x="510" y="706" on="1"/>
        <pt x="578" y="647" on="0"/>
        <pt x="660" y="560" on="0"/>
        <pt x="716" y="446" on="0"/>
        <pt x="716" y="376" on="1"/>
        <pt x="716" y="345" on="0"/>
        <pt x="708" y="303" on="1"/>
        <pt x="690" y="211" on="0"/>
        <pt x="575" y="65" on="0"/>
        <pt x="405" y="-17" on="0"/>
        <pt x="308" y="-17" on="1"/>
      </contour>
    </TTGlyph>
    <TTGlyph name="Sacute" xMin="-71" yMin="-17" xMax="940" yMax="1870">
      <component glyphName="S" x="-105" y="0" flags="0x0"/>
      <component glyphName="acutecomb.case" x="-171" y="0" flags="0x0"/>
    </TTGlyph>
    <TTGlyph name="Scaron" xMin="-71" yMin="-17" xMax="943" yMax="1870">
      <component glyphName="S" x="-105" y="0" flags="0x0"/>
      <component glyphName="uni030C.case" x="-171" y="0" flags="0x0"/>
    </TTGlyph>
    <TTGlyph name="Scedilla" xMin="34" yMin="-303" xMax="904" yMax="1380">
      <contour>
        <pt x="233" y="-17" on="0"/>
        <pt x="101" y="31" on="0"/>
        <pt x="34" y="82" on="1"/>
        <pt x="59" y="124" on="1"/>
        <pt x="177" y="34" on="0"/>
        <pt x="311" y="34" on="1"/>
        <pt x="394" y="34" on="0"/>
        <pt x="538" y="103" on="0"/>
        <pt x="635" y="226" on="0"/>
        <pt x="650" y="305" on="1"/>
        <pt x="656" y="337" on="0"/>
        <pt x="656" y="365" on="1"/>
        <pt x="656" y="427" on="0"/>
        <pt x="604" y="531" on="0"/>
        <pt x="527" y="612" on="0"/>
        <pt x="462" y="670" on="1"/>
        <pt x="394" y="730" on="0"/>
        <pt x="314" y="815" on="0"/>
        <pt x="258" y="927" on="0"/>
        <pt x="258" y="995" on="1"/>
        <pt x="258" y="1029" on="0"/>
        <pt x="265" y="1063" on="1"/>
        <pt x="283" y="1153" on="0"/>
        <pt x="390" y="1298" on="0"/>
        <pt x="543" y="1380" on="0"/>
        <pt x="629" y="1380" on="1"/>
        <pt x="699" y="1380" on="0"/>
        <pt x="847" y="1332" on="0"/>
        <pt x="904" y="1291" on="1"/>
        <pt x="878" y="1249" on="1"/>
        <pt x="822" y="1288" on="0"/>
        <pt x="691" y="1329" on="0"/>
        <pt x="628" y="1329" on="1"/>
        <pt x="556" y="1329" on="0"/>
        <pt x="428" y="1260" on="0"/>
        <pt x="338" y="1139" on="0"/>
        <pt x="323" y="1063" on="1"/>
        <pt x="317" y="1033" on="0"/>
        <pt x="317" y="1005" on="1"/>
        <pt x="317" y="944" on="0"/>
        <pt x="369" y="842" on="0"/>
        <pt x="445" y="762" on="0"/>
        <pt x="510" y="706" on="1"/>
        <pt x="578" y="647" on="0"/>
        <pt x="660" y="560" on="0"/>
        <pt x="716" y="446" on="0"/>
        <pt x="716" y="376" on="1"/>
        <pt x="716" y="345" on="0"/>
        <pt x="708" y="303" on="1"/>
        <pt x="689" y="208" on="0"/>
        <pt x="570" y="60" on="0"/>
        <pt x="481" y="19" on="1"/>
        <pt x="481" y="-34" on="0"/>
        <pt x="471" y="-85" on="1"/>
        <pt x="449" y="-193" on="0"/>
        <pt x="297" y="-303" on="0"/>
        <pt x="192" y="-303" on="1"/>
        <pt x="131" y="-303" on="0"/>
        <pt x="70" y="-286" on="1"/>
        <pt x="106" y="-161" on="1"/>
        <pt x="140" y="-166" on="0"/>
        <pt x="184" y="-166" on="1"/>
        <pt x="252" y="-166" on="0"/>
        <pt x="327" y="-109" on="0"/>
        <pt x="339" y="-49" on="1"/>
        <pt x="345" y="-16" on="1"/>
        <pt x="308" y="-17" on="1"/>
      </contour>
    </TTGlyph>
    <TTGlyph name="Scircumflex" xMin="-71" yMin="-17" xMax="864" yMax="1870">
      <component glyphName="S" x="-105" y="0" flags="0x0"/>
      <component glyphName="uni0302.case" x="-171" y="0" flags="0x0"/>
    </TTGlyph>
    <TTGlyph name="T" xMin="310" yMin="0" xMax="1074" yMax="1362">
      <contour>
        <pt x="658" y="1310" on="1"/>
        <pt x="310" y="1310" on="1"/>
        <pt x="321" y="1362" on="1"/>
        <pt x="1074" y="1362" on="1"/>
        <pt x="1063" y="1310" on="1"/>
        <pt x="715" y="1310" on="1"/>
        <pt x="453" y="0" on="1"/>
        <pt x="396" y="0" on="1"/>
      </contour>
    </TTGlyph>
    <TTGlyph name="Tcaron" xMin="205" yMin="0" xMax="1009" yMax="1870">
      <component glyphName="T" x="-105" y="0" flags="0x0"/>
      <component glyphName="uni030C.case" x="-105" y="0" flags="0x0"/>
    </TTGlyph>
    <TTGlyph name="Thorn" xMin="83" yMin="0" xMax="908" yMax="1362">
      <contour>
        <pt x="356" y="1362" on="1"/>
        <pt x="412" y="1362" on="1"/>
        <pt x="349" y="1048" on="1"/>
        <pt x="561" y="1048" on="1"/>
        <pt x="731" y="1048" on="0"/>
        <pt x="908" y="911" on="0"/>
        <pt x="908" y="784" on="1"/>
        <pt x="908" y="744" on="0"/>
        <pt x="899" y="699" on="1"/>
        <pt x="877" y="592" on="0"/>
        <pt x="746" y="435" on="0"/>
        <pt x="537" y="350" on="0"/>
        <pt x="401" y="350" on="1"/>
        <pt x="297" y="350" on="0"/>
        <pt x="213" y="358" on="1"/>
        <pt x="139" y="0" on="1"/>
        <pt x="83" y="0" on="1"/>
      </contour>
      <contour>
        <pt x="318" y="401" on="0"/>
        <pt x="406" y="401" on="1"/>
        <pt x="589" y="401" on="0"/>
        <pt x="811" y="558" on="0"/>
        <pt x="839" y="700" on="1"/>
        <pt x="848" y="742" on="0"/>
        <pt x="848" y="779" on="1"/>
        <pt x="848" y="886" on="0"/>
        <pt x="701" y="997" on="0"/>
        <pt x="556" y="997" on="1"/>
        <pt x="339" y="997" on="1"/>
        <pt x="219" y="408" on="1"/>
      </contour>
    </TTGlyph>
    <TTGlyph name="U" xMin="143" yMin="-23" xMax="1034" yMax="1362">
      <contour>
        <pt x="287" y="-23" on="0"/>
        <pt x="143" y="114" on="0"/>
        <pt x="143" y="244" on="1"/>
        <pt x="143" y="299" on="0"/>
        <pt x="157" y="367" on="1"/>
        <pt x="356" y="1362" on="1"/>
        <pt x="412" y="1362" on="1"/>
        <pt x="212" y="364" on="1"/>
        <pt x="200" y="303" on="0"/>
        <pt x="200" y="253" on="1"/>
        <pt x="200" y="143" on="0"/>
        <pt x="316" y="30" on="0"/>
        <pt x="430" y="30" on="1"/>
        <pt x="513" y="30" on="0"/>
        <pt x="658" y="109" on="0"/>
        <pt x="762" y="268" on="0"/>
        <pt x="785" y="384" on="1"/>
        <pt x="981" y="1362" on="1"/>
        <pt x="1034" y="1362" on="1"/>
        <pt x="837" y="380" on="1"/>
        <pt x="811" y="249" on="0"/>
        <pt x="689" y="68" on="0"/>
        <pt x="520" y="-23" on="0"/>
        <pt x="422" y="-23" on="1"/>
      </contour>
    </TTGlyph>
    <TTGlyph name="Uacute" xMin="38" yMin="-23" xMax="1016" yMax="1870">
      <component glyphName="U" x="-105" y="0" flags="0x0"/>
      <component glyphName="acutecomb.case" x="-95" y="0" flags="0x0"/>
    </TTGlyph>
    <TTGlyph name="Ubreve" xMin="38" yMin="-23" xMax="985" yMax="1816">
      <component glyphName="U" x="-105" y="0" flags="0x0"/>
      <component glyphName="uni0306.case" x="-95" y="0" flags="0x0"/>
    </TTGlyph>
    <TTGlyph name="Ucircumflex" xMin="38" yMin="-23" xMax="940" yMax="1870">
      <component glyphName="U" x="-105" y="0" flags="0x0"/>
      <component glyphName="uni0302.case" x="-95" y="0" flags="0x0"/>
    </TTGlyph>
    <TTGlyph name="Udieresis" xMin="38" yMin="-23" xMax="929" yMax="1615">
      <component glyphName="U" x="-105" y="0" flags="0x0"/>
      <component glyphName="uni0308.case" x="-95" y="0" flags="0x0"/>
    </TTGlyph>
    <TTGlyph name="Ugrave" xMin="38" yMin="-23" xMax="929" yMax="1870">
      <component glyphName="U" x="-105" y="0" flags="0x0"/>
      <component glyphName="gravecomb.case" x="-95" y="0" flags="0x0"/>
    </TTGlyph>
    <TTGlyph name="Umacron" xMin="38" yMin="-23" xMax="965" yMax="1710">
      <component glyphName="U" x="-105" y="0" flags="0x0"/>
      <component glyphName="uni0304.case" x="-95" y="0" flags="0x0"/>
    </TTGlyph>
    <TTGlyph name="Uogonek" xMin="143" yMin="-303" xMax="1034" yMax="1362">
      <contour>
        <pt x="330" y="-303" on="0"/>
        <pt x="268" y="-253" on="0"/>
        <pt x="268" y="-207" on="1"/>
        <pt x="268" y="-189" on="0"/>
        <pt x="270" y="-180" on="1"/>
        <pt x="291" y="-81" on="0"/>
        <pt x="421" y="-23" on="1"/>
        <pt x="286" y="-23" on="0"/>
        <pt x="143" y="115" on="0"/>
        <pt x="143" y="245" on="1"/>
        <pt x="143" y="299" on="0"/>
        <pt x="157" y="367" on="1"/>
        <pt x="356" y="1362" on="1"/>
        <pt x="412" y="1362" on="1"/>
        <pt x="212" y="364" on="1"/>
        <pt x="200" y="303" on="0"/>
        <pt x="200" y="253" on="1"/>
        <pt x="200" y="143" on="0"/>
        <pt x="316" y="30" on="0"/>
        <pt x="430" y="30" on="1"/>
        <pt x="513" y="30" on="0"/>
        <pt x="658" y="109" on="0"/>
        <pt x="762" y="268" on="0"/>
        <pt x="785" y="384" on="1"/>
        <pt x="981" y="1362" on="1"/>
        <pt x="1034" y="1362" on="1"/>
        <pt x="837" y="380" on="1"/>
        <pt x="803" y="212" on="0"/>
        <pt x="626" y="10" on="0"/>
        <pt x="502" y="-16" on="1"/>
        <pt x="432" y="-41" on="0"/>
        <pt x="341" y="-119" on="0"/>
        <pt x="331" y="-169" on="1"/>
        <pt x="329" y="-185" on="0"/>
        <pt x="329" y="-191" on="1"/>
        <pt x="329" y="-251" on="0"/>
        <pt x="403" y="-251" on="1"/>
        <pt x="439" y="-251" on="0"/>
        <pt x="484" y="-234" on="1"/>
        <pt x="486" y="-283" on="1"/>
        <pt x="431" y="-303" on="0"/>
        <pt x="387" y="-303" on="1"/>
      </contour>
    </TTGlyph>
    <TTGlyph name="Uring" xMin="38" yMin="-23" xMax="929" yMax="1902">
      <component glyphName="U" x="-105" y="0" flags="0x0"/>
      <component glyphName="uni030A.case" x="-95" y="0" flags="0x0"/>
    </TTGlyph>
    <TTGlyph name="Utilde" xMin="38" yMin="-23" xMax="1012" yMax="1789">
      <component glyphName="U" x="-105" y="0" flags="0x0"/>
      <component glyphName="tildecomb.case" x="-95" y="0" flags="0x0"/>
    </TTGlyph>
    <TTGlyph name="V" xMin="273" yMin="0" xMax="1121" yMax="1362">
      <contour>
        <pt x="273" y="1362" on="1"/>
        <pt x="336" y="1362" on="1"/>
        <pt x="442" y="87" on="1"/>
        <pt x="1064" y="1362" on="1"/>
        <pt x="1121" y="1362" on="1"/>
        <pt x="452" y="0" on="1"/>
        <pt x="393" y="0" on="1"/>
      </contour>
    </TTGlyph>
    <TTGlyph name="W" xMin="256" yMin="0" xMax="1406" yMax="1362">
      <contour>
        <pt x="829" y="1272" on="1"/>
        <pt x="334" y="0" on="1"/>
        <pt x="256" y="0" on="1"/>
        <pt x="292" y="1362" on="1"/>
        <pt x="346" y="1362" on="1"/>
        <pt x="312" y="69" on="1"/>
        <pt x="814" y="1362" on="1"/>
        <pt x="884" y="1362" on="1"/>
        <pt x="868" y="72" on="1"/>
        <pt x="1352" y="1362" on="1"/>
        <pt x="1406" y="1362" on="1"/>
        <pt x="896" y="0" on="1"/>
        <pt x="813" y="0" on="1"/>
      </contour>
    </TTGlyph>
    <TTGlyph name="Wacute" xMin="151" yMin="0" xMax="1301" yMax="1870">
      <component glyphName="W" x="-105" y="0" flags="0x0"/>
      <component glyphName="acutecomb.case" x="47" y="0" flags="0x0"/>
    </TTGlyph>
    <TTGlyph name="Wcircumflex" xMin="151" yMin="0" xMax="1301" yMax="1870">
      <component glyphName="W" x="-105" y="0" flags="0x0"/>
      <component glyphName="uni0302.case" x="47" y="0" flags="0x0"/>
    </TTGlyph>
    <TTGlyph name="Wdieresis" xMin="151" yMin="0" xMax="1301" yMax="1615">
      <component glyphName="W" x="-105" y="0" flags="0x0"/>
      <component glyphName="uni0308.case" x="47" y="0" flags="0x0"/>
    </TTGlyph>
    <TTGlyph name="Wgrave" xMin="151" yMin="0" xMax="1301" yMax="1870">
      <component glyphName="W" x="-105" y="0" flags="0x0"/>
      <component glyphName="gravecomb.case" x="47" y="0" flags="0x0"/>
    </TTGlyph>
    <TTGlyph name="X" xMin="3" yMin="0" xMax="1036" yMax="1362">
      <contour>
        <pt x="528" y="655" on="1"/>
        <pt x="63" y="0" on="1"/>
        <pt x="3" y="0" on="1"/>
        <pt x="512" y="710" on="1"/>
        <pt x="334" y="1362" on="1"/>
        <pt x="396" y="1362" on="1"/>
        <pt x="563" y="756" on="1"/>
        <pt x="976" y="1362" on="1"/>
        <pt x="1036" y="1362" on="1"/>
        <pt x="578" y="699" on="1"/>
        <pt x="770" y="0" on="1"/>
        <pt x="707" y="0" on="1"/>
      </contour>
    </TTGlyph>
    <TTGlyph name="Y" xMin="231" yMin="0" xMax="1024" yMax="1362">
      <contour>
        <pt x="441" y="605" on="1"/>
        <pt x="231" y="1362" on="1"/>
        <pt x="294" y="1362" on="1"/>
        <pt x="485" y="663" on="1"/>
        <pt x="966" y="1362" on="1"/>
        <pt x="1024" y="1362" on="1"/>
        <pt x="498" y="605" on="1"/>
        <pt x="377" y="0" on="1"/>
        <pt x="320" y="0" on="1"/>
      </contour>
    </TTGlyph>
    <TTGlyph name="Yacute" xMin="126" yMin="0" xMax="940" yMax="1870">
      <component glyphName="Y" x="-105" y="0" flags="0x0"/>
      <component glyphName="acutecomb.case" x="-171" y="0" flags="0x0"/>
    </TTGlyph>
    <TTGlyph name="Ycircumflex" xMin="126" yMin="0" xMax="919" yMax="1870">
      <component glyphName="Y" x="-105" y="0" flags="0x0"/>
      <component glyphName="uni0302.case" x="-171" y="0" flags="0x0"/>
    </TTGlyph>
    <TTGlyph name="Ydieresis" xMin="126" yMin="0" xMax="919" yMax="1615">
      <component glyphName="Y" x="-105" y="0" flags="0x0"/>
      <component glyphName="uni0308.case" x="-171" y="0" flags="0x0"/>
    </TTGlyph>
    <TTGlyph name="Ygrave" xMin="126" yMin="0" xMax="919" yMax="1870">
      <component glyphName="Y" x="-105" y="0" flags="0x0"/>
      <component glyphName="gravecomb.case" x="-171" y="0" flags="0x0"/>
    </TTGlyph>
    <TTGlyph name="Z" xMin="56" yMin="0" xMax="915" yMax="1362">
      <contour>
        <pt x="65" y="45" on="1"/>
        <pt x="841" y="1310" on="1"/>
        <pt x="318" y="1310" on="1"/>
        <pt x="329" y="1362" on="1"/>
        <pt x="915" y="1362" on="1"/>
        <pt x="906" y="1317" on="1"/>
        <pt x="129" y="51" on="1"/>
        <pt x="652" y="51" on="1"/>
        <pt x="642" y="0" on="1"/>
        <pt x="56" y="0" on="1"/>
      </contour>
    </TTGlyph>
    <TTGlyph name="Zacute" xMin="-49" yMin="0" xMax="940" yMax="1870">
      <component glyphName="Z" x="-105" y="0" flags="0x0"/>
      <component glyphName="acutecomb.case" x="-171" y="0" flags="0x0"/>
    </TTGlyph>
    <TTGlyph name="Zcaron" xMin="-49" yMin="0" xMax="943" yMax="1870">
      <component glyphName="Z" x="-105" y="0" flags="0x0"/>
      <component glyphName="uni030C.case" x="-171" y="0" flags="0x0"/>
    </TTGlyph>
    <TTGlyph name="Zdotaccent" xMin="-49" yMin="0" xMax="810" yMax="1839">
      <component glyphName="Z" x="-105" y="0" flags="0x0"/>
      <component glyphName="uni0307" x="-108" y="314" flags="0x4"/>
    </TTGlyph>
    <TTGlyph name="a" xMin="91" yMin="-15" xMax="896" yMax="1073">
      <contour>
        <pt x="193" y="-15" on="0"/>
        <pt x="91" y="88" on="0"/>
        <pt x="91" y="175" on="1"/>
        <pt x="91" y="209" on="0"/>
        <pt x="98" y="241" on="1"/>
        <pt x="118" y="345" on="0"/>
        <pt x="269" y="493" on="0"/>
        <pt x="516" y="571" on="0"/>
        <pt x="677" y="571" on="1"/>
        <pt x="798" y="571" on="1"/>
        <pt x="826" y="713" on="1"/>
        <pt x="838" y="773" on="0"/>
        <pt x="838" y="821" on="1"/>
        <pt x="838" y="1020" on="0"/>
        <pt x="626" y="1022" on="1"/>
        <pt x="513" y="1021" on="0"/>
        <pt x="322" y="960" on="1"/>
        <pt x="315" y="1008" on="1"/>
        <pt x="519" y="1073" on="0"/>
        <pt x="645" y="1073" on="1"/>
        <pt x="768" y="1073" on="0"/>
        <pt x="896" y="949" on="0"/>
        <pt x="896" y="830" on="1"/>
        <pt x="896" y="774" on="0"/>
        <pt x="883" y="713" on="1"/>
        <pt x="740" y="0" on="1"/>
        <pt x="683" y="0" on="1"/>
        <pt x="738" y="274" on="1"/>
        <pt x="611" y="156" on="1"/>
        <pt x="502" y="60" on="0"/>
        <pt x="356" y="-15" on="0"/>
        <pt x="280" y="-15" on="1"/>
      </contour>
      <contour>
        <pt x="363" y="36" on="0"/>
        <pt x="497" y="110" on="0"/>
        <pt x="604" y="205" on="1"/>
        <pt x="750" y="334" on="1"/>
        <pt x="788" y="525" on="1"/>
        <pt x="675" y="525" on="1"/>
        <pt x="531" y="525" on="0"/>
        <pt x="310" y="458" on="0"/>
        <pt x="174" y="330" on="0"/>
        <pt x="156" y="241" on="1"/>
        <pt x="150" y="211" on="0"/>
        <pt x="150" y="186" on="1"/>
        <pt x="150" y="115" on="0"/>
        <pt x="228" y="36" on="0"/>
        <pt x="298" y="36" on="1"/>
      </contour>
    </TTGlyph>
    <TTGlyph name="a.sc" xMin="-140" yMin="0" xMax="777" yMax="1210">
      <component glyphName="A.hex" x="-105" y="0" flags="0x0"/>
    </TTGlyph>
    <TTGlyph name="aacute" xMin="-14" yMin="-15" xMax="961" yMax="1643">
      <component glyphName="a" x="-105" y="0" flags="0x0"/>
      <component glyphName="acutecomb" x="-105" y="0" flags="0x0"/>
    </TTGlyph>
    <TTGlyph name="aacute.sc" xMin="-245" yMin="0" xMax="994" yMax="1805">
      <component glyphName="a.sc" x="-105" y="0" flags="0x0"/>
      <component glyphName="acutecomb" x="-72" y="162" flags="0x4"/>
    </TTGlyph>
    <TTGlyph name="abreve" xMin="-14" yMin="-15" xMax="930" yMax="1589">
      <component glyphName="a" x="-105" y="0" flags="0x0"/>
      <component glyphName="uni0306" x="-105" y="0" flags="0x0"/>
    </TTGlyph>
    <TTGlyph name="abreve.sc" xMin="-245" yMin="0" xMax="963" yMax="1751">
      <component glyphName="a.sc" x="-105" y="0" flags="0x0"/>
      <component glyphName="uni0306" x="-72" y="162" flags="0x4"/>
    </TTGlyph>
    <TTGlyph name="acircumflex" xMin="-14" yMin="-15" xMax="885" yMax="1643">
      <component glyphName="a" x="-105" y="0" flags="0x0"/>
      <component glyphName="uni0302" x="-105" y="0" flags="0x0"/>
    </TTGlyph>
    <TTGlyph name="acircumflex.sc" xMin="-245" yMin="0" xMax="918" yMax="1805">
      <component glyphName="a.sc" x="-105" y="0" flags="0x0"/>
      <component glyphName="uni0302" x="-72" y="162" flags="0x4"/>
    </TTGlyph>
    <TTGlyph name="acute" xMin="393" yMin="756" xMax="926" yMax="1362">
      <contour>
        <pt x="393" y="756" on="1"/>
        <pt x="652" y="1362" on="1"/>
        <pt x="926" y="1362" on="1"/>
        <pt x="520" y="756" on="1"/>
      </contour>
    </TTGlyph>
    <TTGlyph name="acutecomb" xMin="582" yMin="1248" xMax="1066" yMax="1643">
      <contour>
        <pt x="806" y="1643" on="1"/>
        <pt x="1066" y="1643" on="1"/>
        <pt x="724" y="1248" on="1"/>
        <pt x="582" y="1248" on="1"/>
      </contour>
    </TTGlyph>
    <TTGlyph name="acutecomb.case" xMin="627" yMin="1475" xMax="1111" yMax="1870">
      <contour>
        <pt x="851" y="1870" on="1"/>
        <pt x="1111" y="1870" on="1"/>
        <pt x="769" y="1475" on="1"/>
        <pt x="627" y="1475" on="1"/>
      </contour>
    </TTGlyph>
    <TTGlyph name="adieresis" xMin="-14" yMin="-15" xMax="861" yMax="1519">
      <component glyphName="a" x="-105" y="0" flags="0x0"/>
      <component glyphName="uni0308" x="-105" y="0" flags="0x0"/>
    </TTGlyph>
    <TTGlyph name="adieresis.sc" xMin="-245" yMin="0" xMax="894" yMax="1681">
      <component glyphName="a.sc" x="-105" y="0" flags="0x0"/>
      <component glyphName="uni0308" x="-72" y="162" flags="0x4"/>
    </TTGlyph>
    <TTGlyph name="agrave" xMin="-14" yMin="-15" xMax="791" yMax="1643">
      <component glyphName="a" x="-105" y="0" flags="0x0"/>
      <component glyphName="gravecomb" x="-105" y="0" flags="0x0"/>
    </TTGlyph>
    <TTGlyph name="agrave.sc" xMin="-245" yMin="0" xMax="695" yMax="1805">
      <component glyphName="a.sc" x="-105" y="0" flags="0x0"/>
      <component glyphName="gravecomb" x="-72" y="162" flags="0x4"/>
    </TTGlyph>
    <TTGlyph name="amacron" xMin="-14" yMin="-15" xMax="876" yMax="1498">
      <component glyphName="a" x="-105" y="0" flags="0x0"/>
      <component glyphName="uni0304" x="-105" y="0" flags="0x0"/>
    </TTGlyph>
    <TTGlyph name="amacron.sc" xMin="-245" yMin="0" xMax="909" yMax="1660">
      <component glyphName="a.sc" x="-105" y="0" flags="0x0"/>
      <component glyphName="uni0304" x="-72" y="162" flags="0x4"/>
    </TTGlyph>
    <TTGlyph name="ampersand" xMin="-10" yMin="-17" xMax="1069" yMax="1377">
      <contour>
        <pt x="175" y="-17" on="0"/>
        <pt x="-10" y="121" on="0"/>
        <pt x="-10" y="247" on="1"/>
        <pt x="-10" y="280" on="0"/>
        <pt x="-2" y="323" on="1"/>
        <pt x="22" y="440" on="0"/>
        <pt x="163" y="605" on="0"/>
        <pt x="277" y="679" on="1"/>
        <pt x="248" y="736" on="0"/>
        <pt x="221" y="844" on="0"/>
        <pt x="221" y="902" on="1"/>
        <pt x="221" y="961" on="0"/>
        <pt x="234" y="1023" on="1"/>
        <pt x="256" y="1133" on="0"/>
        <pt x="376" y="1293" on="0"/>
        <pt x="541" y="1377" on="0"/>
        <pt x="630" y="1377" on="1"/>
        <pt x="712" y="1377" on="0"/>
        <pt x="826" y="1317" on="0"/>
        <pt x="884" y="1211" on="0"/>
        <pt x="884" y="1144" on="1"/>
        <pt x="884" y="1118" on="0"/>
        <pt x="877" y="1078" on="1"/>
        <pt x="858" y="984" on="0"/>
        <pt x="747" y="842" on="0"/>
        <pt x="607" y="742" on="0"/>
        <pt x="493" y="675" on="1"/>
        <pt x="467" y="660" on="1"/>
        <pt x="508" y="598" on="0"/>
        <pt x="578" y="512" on="1"/>
        <pt x="741" y="321" on="1"/>
        <pt x="806" y="406" on="0"/>
        <pt x="897" y="629" on="0"/>
        <pt x="919" y="758" on="1"/>
        <pt x="1069" y="754" on="1"/>
        <pt x="1041" y="595" on="0"/>
        <pt x="918" y="320" on="0"/>
        <pt x="827" y="216" on="1"/>
        <pt x="1007" y="0" on="1"/>
        <pt x="803" y="0" on="1"/>
        <pt x="713" y="109" on="1"/>
        <pt x="543" y="-17" on="0"/>
        <pt x="340" y="-17" on="1"/>
      </contour>
      <contour>
        <pt x="149" y="306" on="0"/>
        <pt x="149" y="278" on="1"/>
        <pt x="149" y="204" on="0"/>
        <pt x="256" y="119" on="0"/>
        <pt x="363" y="119" on="1"/>
        <pt x="509" y="119" on="0"/>
        <pt x="630" y="210" on="1"/>
        <pt x="451" y="429" on="1"/>
        <pt x="385" y="510" on="0"/>
        <pt x="337" y="575" on="1"/>
        <pt x="262" y="521" on="0"/>
        <pt x="169" y="402" on="0"/>
        <pt x="154" y="327" on="1"/>
      </contour>
      <contour>
        <pt x="375" y="958" on="0"/>
        <pt x="375" y="920" on="1"/>
        <pt x="375" y="837" on="0"/>
        <pt x="412" y="762" on="1"/>
        <pt x="502" y="816" on="0"/>
        <pt x="616" y="899" on="0"/>
        <pt x="702" y="1008" on="0"/>
        <pt x="716" y="1076" on="1"/>
        <pt x="720" y="1096" on="0"/>
        <pt x="720" y="1119" on="1"/>
        <pt x="720" y="1177" on="0"/>
        <pt x="655" y="1244" on="0"/>
        <pt x="600" y="1244" on="1"/>
        <pt x="522" y="1244" on="0"/>
        <pt x="407" y="1125" on="0"/>
        <pt x="385" y="1013" on="1"/>
      </contour>
    </TTGlyph>
    <TTGlyph name="aogonek" xMin="91" yMin="-303" xMax="896" yMax="1073">
      <contour>
        <pt x="193" y="-15" on="0"/>
        <pt x="91" y="88" on="0"/>
        <pt x="91" y="175" on="1"/>
        <pt x="91" y="209" on="0"/>
        <pt x="98" y="241" on="1"/>
        <pt x="118" y="345" on="0"/>
        <pt x="269" y="493" on="0"/>
        <pt x="516" y="571" on="0"/>
        <pt x="677" y="571" on="1"/>
        <pt x="798" y="571" on="1"/>
        <pt x="826" y="713" on="1"/>
        <pt x="838" y="773" on="0"/>
        <pt x="838" y="821" on="1"/>
        <pt x="838" y="1020" on="0"/>
        <pt x="626" y="1022" on="1"/>
        <pt x="513" y="1021" on="0"/>
        <pt x="322" y="960" on="1"/>
        <pt x="315" y="1008" on="1"/>
        <pt x="519" y="1073" on="0"/>
        <pt x="645" y="1073" on="1"/>
        <pt x="768" y="1073" on="0"/>
        <pt x="896" y="949" on="0"/>
        <pt x="896" y="830" on="1"/>
        <pt x="896" y="774" on="0"/>
        <pt x="883" y="713" on="1"/>
        <pt x="742" y="-1" on="1"/>
        <pt x="651" y="-24" on="0"/>
        <pt x="534" y="-111" on="0"/>
        <pt x="522" y="-169" on="1"/>
        <pt x="520" y="-185" on="0"/>
        <pt x="520" y="-191" on="1"/>
        <pt x="520" y="-251" on="0"/>
        <pt x="594" y="-251" on="1"/>
        <pt x="630" y="-251" on="0"/>
        <pt x="675" y="-234" on="1"/>
        <pt x="677" y="-283" on="1"/>
        <pt x="622" y="-303" on="0"/>
        <pt x="578" y="-303" on="1"/>
        <pt x="521" y="-303" on="0"/>
        <pt x="459" y="-253" on="0"/>
        <pt x="459" y="-207" on="1"/>
        <pt x="459" y="-189" on="0"/>
        <pt x="461" y="-180" on="1"/>
        <pt x="475" y="-115" on="0"/>
        <pt x="593" y="-22" on="0"/>
        <pt x="683" y="7" on="1"/>
        <pt x="738" y="274" on="1"/>
        <pt x="611" y="156" on="1"/>
        <pt x="502" y="60" on="0"/>
        <pt x="356" y="-15" on="0"/>
        <pt x="280" y="-15" on="1"/>
      </contour>
      <contour>
        <pt x="363" y="36" on="0"/>
        <pt x="497" y="110" on="0"/>
        <pt x="604" y="205" on="1"/>
        <pt x="750" y="334" on="1"/>
        <pt x="788" y="525" on="1"/>
        <pt x="675" y="525" on="1"/>
        <pt x="531" y="525" on="0"/>
        <pt x="310" y="458" on="0"/>
        <pt x="174" y="330" on="0"/>
        <pt x="156" y="241" on="1"/>
        <pt x="150" y="211" on="0"/>
        <pt x="150" y="186" on="1"/>
        <pt x="150" y="115" on="0"/>
        <pt x="228" y="36" on="0"/>
        <pt x="298" y="36" on="1"/>
      </contour>
    </TTGlyph>
    <TTGlyph name="aogonek.sc" xMin="-35" yMin="-303" xMax="884" yMax="1210">
      <contour>
        <pt x="663" y="-303" on="0"/>
        <pt x="601" y="-253" on="0"/>
        <pt x="601" y="-207" on="1"/>
        <pt x="601" y="-189" on="0"/>
        <pt x="603" y="-180" on="1"/>
        <pt x="629" y="-61" on="0"/>
        <pt x="806" y="1" on="1"/>
        <pt x="714" y="0" on="1"/>
        <pt x="685" y="310" on="1"/>
        <pt x="275" y="310" on="1"/>
        <pt x="116" y="0" on="1"/>
        <pt x="-35" y="0" on="1"/>
        <pt x="591" y="1210" on="1"/>
        <pt x="748" y="1210" on="1"/>
        <pt x="884" y="-1" on="1"/>
        <pt x="793" y="-24" on="0"/>
        <pt x="676" y="-111" on="0"/>
        <pt x="664" y="-169" on="1"/>
        <pt x="662" y="-185" on="0"/>
        <pt x="662" y="-191" on="1"/>
        <pt x="662" y="-251" on="0"/>
        <pt x="736" y="-251" on="1"/>
        <pt x="772" y="-251" on="0"/>
        <pt x="817" y="-234" on="1"/>
        <pt x="819" y="-283" on="1"/>
        <pt x="764" y="-303" on="0"/>
        <pt x="720" y="-303" on="1"/>
      </contour>
      <contour>
        <pt x="673" y="446" on="1"/>
        <pt x="622" y="990" on="1"/>
        <pt x="344" y="446" on="1"/>
      </contour>
    </TTGlyph>
    <TTGlyph name="aring" xMin="-14" yMin="-15" xMax="856" yMax="1675">
      <component glyphName="a" x="-105" y="0" flags="0x0"/>
      <component glyphName="uni030A" x="-105" y="0" flags="0x0"/>
    </TTGlyph>
    <TTGlyph name="aring.sc" xMin="-245" yMin="0" xMax="889" yMax="1837">
      <component glyphName="a.sc" x="-105" y="0" flags="0x0"/>
      <component glyphName="uni030A" x="-72" y="162" flags="0x4"/>
    </TTGlyph>
    <TTGlyph name="arrowdown" xMin="36" yMin="-43" xMax="973" yMax="1362">
      <contour>
        <pt x="36" y="399" on="1"/>
        <pt x="139" y="488" on="1"/>
        <pt x="387" y="189" on="1"/>
        <pt x="622" y="1362" on="1"/>
        <pt x="773" y="1362" on="1"/>
        <pt x="538" y="189" on="1"/>
        <pt x="906" y="488" on="1"/>
        <pt x="973" y="399" on="1"/>
        <pt x="454" y="-43" on="1"/>
        <pt x="379" y="-43" on="1"/>
      </contour>
    </TTGlyph>
    <TTGlyph name="arrowleft" xMin="-19" yMin="202" xMax="1102" yMax="1140">
      <contour>
        <pt x="-19" y="643" on="1"/>
        <pt x="-8" y="700" on="1"/>
        <pt x="522" y="1140" on="1"/>
        <pt x="594" y="1055" on="1"/>
        <pt x="226" y="738" on="1"/>
        <pt x="1102" y="738" on="1"/>
        <pt x="1075" y="605" on="1"/>
        <pt x="199" y="605" on="1"/>
        <pt x="441" y="287" on="1"/>
        <pt x="335" y="202" on="1"/>
      </contour>
    </TTGlyph>
    <TTGlyph name="arrowright" xMin="16" yMin="202" xMax="1137" yMax="1140">
      <contour>
        <pt x="524" y="287" on="1"/>
        <pt x="892" y="605" on="1"/>
        <pt x="16" y="605" on="1"/>
        <pt x="43" y="738" on="1"/>
        <pt x="919" y="738" on="1"/>
        <pt x="677" y="1055" on="1"/>
        <pt x="783" y="1140" on="1"/>
        <pt x="1137" y="700" on="1"/>
        <pt x="1126" y="643" on="1"/>
        <pt x="596" y="202" on="1"/>
      </contour>
    </TTGlyph>
    <TTGlyph name="arrowup" xMin="149" yMin="0" xMax="1086" yMax="1405">
      <contour>
        <pt x="584" y="1172" on="1"/>
        <pt x="216" y="874" on="1"/>
        <pt x="149" y="963" on="1"/>
        <pt x="668" y="1405" on="1"/>
        <pt x="743" y="1405" on="1"/>
        <pt x="1086" y="963" on="1"/>
        <pt x="983" y="874" on="1"/>
        <pt x="735" y="1172" on="1"/>
        <pt x="500" y="0" on="1"/>
        <pt x="349" y="0" on="1"/>
      </contour>
    </TTGlyph>
    <TTGlyph name="asciicircum" xMin="111" yMin="303" xMax="867" yMax="1210">
      <contour>
        <pt x="255" y="303" on="1"/>
        <pt x="627" y="1027" on="1"/>
        <pt x="709" y="303" on="1"/>
        <pt x="867" y="303" on="1"/>
        <pt x="746" y="1210" on="1"/>
        <pt x="595" y="1210" on="1"/>
        <pt x="111" y="303" on="1"/>
      </contour>
    </TTGlyph>
    <TTGlyph name="asciitilde" xMin="3" yMin="458" xMax="1123" yMax="904">
      <contour>
        <pt x="39" y="697" on="0"/>
        <pt x="232" y="904" on="0"/>
        <pt x="384" y="904" on="1"/>
        <pt x="456" y="904" on="0"/>
        <pt x="552" y="853" on="0"/>
        <pt x="607" y="780" on="0"/>
        <pt x="638" y="723" on="1"/>
        <pt x="661" y="680" on="0"/>
        <pt x="696" y="631" on="0"/>
        <pt x="746" y="598" on="0"/>
        <pt x="781" y="598" on="1"/>
        <pt x="855" y="598" on="0"/>
        <pt x="956" y="735" on="0"/>
        <pt x="984" y="902" on="1"/>
        <pt x="1123" y="898" on="1"/>
        <pt x="1086" y="666" on="0"/>
        <pt x="889" y="458" on="0"/>
        <pt x="738" y="458" on="1"/>
        <pt x="666" y="458" on="0"/>
        <pt x="571" y="510" on="0"/>
        <pt x="515" y="582" on="0"/>
        <pt x="482" y="640" on="1"/>
        <pt x="459" y="682" on="0"/>
        <pt x="424" y="732" on="0"/>
        <pt x="375" y="764" on="0"/>
        <pt x="341" y="764" on="1"/>
        <pt x="263" y="764" on="0"/>
        <pt x="167" y="626" on="0"/>
        <pt x="142" y="459" on="1"/>
        <pt x="3" y="463" on="1"/>
      </contour>
    </TTGlyph>
    <TTGlyph name="asterisk" xMin="46" yMin="179" xMax="1101" yMax="1184">
      <contour>
        <pt x="125" y="893" on="1"/>
        <pt x="504" y="752" on="1"/>
        <pt x="582" y="1184" on="1"/>
        <pt x="741" y="1184" on="1"/>
        <pt x="647" y="753" on="1"/>
        <pt x="1082" y="894" on="1"/>
        <pt x="1101" y="743" on="1"/>
        <pt x="664" y="618" on="1"/>
        <pt x="855" y="273" on="1"/>
        <pt x="708" y="179" on="1"/>
        <pt x="531" y="533" on="1"/>
        <pt x="213" y="180" on="1"/>
        <pt x="104" y="273" on="1"/>
        <pt x="432" y="617" on="1"/>
        <pt x="46" y="742" on="1"/>
      </contour>
    </TTGlyph>
    <TTGlyph name="at" xMin="99" yMin="-172" xMax="985" yMax="1231">
      <contour>
        <pt x="298" y="-172" on="0"/>
        <pt x="99" y="28" on="0"/>
        <pt x="99" y="244" on="1"/>
        <pt x="99" y="361" on="0"/>
        <pt x="128" y="503" on="1"/>
        <pt x="202" y="874" on="0"/>
        <pt x="481" y="1231" on="0"/>
        <pt x="687" y="1231" on="1"/>
        <pt x="839" y="1231" on="0"/>
        <pt x="985" y="1088" on="0"/>
        <pt x="985" y="962" on="1"/>
        <pt x="985" y="910" on="0"/>
        <pt x="973" y="851" on="1"/>
        <pt x="865" y="300" on="1"/>
        <pt x="810" y="284" on="0"/>
        <pt x="686" y="265" on="0"/>
        <pt x="631" y="265" on="1"/>
        <pt x="528" y="265" on="0"/>
        <pt x="428" y="346" on="0"/>
        <pt x="428" y="436" on="1"/>
        <pt x="428" y="474" on="0"/>
        <pt x="439" y="531" on="1"/>
        <pt x="491" y="794" on="0"/>
        <pt x="725" y="794" on="1"/>
        <pt x="768" y="794" on="0"/>
        <pt x="807" y="791" on="1"/>
        <pt x="824" y="864" on="1"/>
        <pt x="833" y="911" on="0"/>
        <pt x="833" y="947" on="1"/>
        <pt x="833" y="1026" on="0"/>
        <pt x="745" y="1099" on="0"/>
        <pt x="656" y="1099" on="1"/>
        <pt x="571" y="1099" on="0"/>
        <pt x="437" y="991" on="0"/>
        <pt x="325" y="728" on="0"/>
        <pt x="279" y="499" on="1"/>
        <pt x="250" y="357" on="0"/>
        <pt x="250" y="250" on="1"/>
        <pt x="250" y="96" on="0"/>
        <pt x="379" y="-40" on="0"/>
        <pt x="509" y="-40" on="1"/>
        <pt x="611" y="-40" on="0"/>
        <pt x="751" y="-11" on="1"/>
        <pt x="750" y="-133" on="1"/>
        <pt x="591" y="-172" on="0"/>
        <pt x="479" y="-172" on="1"/>
      </contour>
      <contour>
        <pt x="580" y="484" on="0"/>
        <pt x="580" y="457" on="1"/>
        <pt x="580" y="419" on="0"/>
        <pt x="618" y="393" on="0"/>
        <pt x="662" y="393" on="1"/>
        <pt x="695" y="393" on="0"/>
        <pt x="729" y="399" on="1"/>
        <pt x="784" y="664" on="1"/>
        <pt x="726" y="666" on="1"/>
        <pt x="685" y="666" on="0"/>
        <pt x="633" y="641" on="0"/>
        <pt x="600" y="581" on="0"/>
        <pt x="589" y="527" on="1"/>
      </contour>
    </TTGlyph>
    <TTGlyph name="atilde" xMin="-14" yMin="-15" xMax="956" yMax="1562">
      <component glyphName="a" x="-105" y="0" flags="0x0"/>
      <component glyphName="tildecomb" x="-105" y="0" flags="0x0"/>
    </TTGlyph>
    <TTGlyph name="atilde.sc" xMin="-245" yMin="0" xMax="989" yMax="1724">
      <component glyphName="a.sc" x="-105" y="0" flags="0x0"/>
      <component glyphName="tildecomb" x="-72" y="162" flags="0x4"/>
    </TTGlyph>
    <TTGlyph name="b" xMin="92" yMin="-21" xMax="956" yMax="1513">
      <contour>
        <pt x="305" y="-21" on="0"/>
        <pt x="157" y="10" on="0"/>
        <pt x="92" y="35" on="1"/>
        <pt x="386" y="1513" on="1"/>
        <pt x="442" y="1513" on="1"/>
        <pt x="295" y="777" on="1"/>
        <pt x="403" y="886" on="1"/>
        <pt x="488" y="970" on="0"/>
        <pt x="649" y="1063" on="0"/>
        <pt x="734" y="1062" on="1"/>
        <pt x="843" y="1063" on="0"/>
        <pt x="956" y="919" on="0"/>
        <pt x="956" y="782" on="1"/>
        <pt x="956" y="700" on="0"/>
        <pt x="935" y="595" on="1"/>
        <pt x="896" y="398" on="0"/>
        <pt x="725" y="120" on="0"/>
        <pt x="501" y="-21" on="0"/>
        <pt x="379" y="-21" on="1"/>
      </contour>
      <contour>
        <pt x="487" y="28" on="0"/>
        <pt x="687" y="156" on="0"/>
        <pt x="838" y="412" on="0"/>
        <pt x="875" y="595" on="1"/>
        <pt x="896" y="703" on="0"/>
        <pt x="896" y="781" on="1"/>
        <pt x="896" y="897" on="0"/>
        <pt x="807" y="1010" on="0"/>
        <pt x="718" y="1011" on="1"/>
        <pt x="643" y="1010" on="0"/>
        <pt x="498" y="922" on="0"/>
        <pt x="411" y="837" on="1"/>
        <pt x="282" y="714" on="1"/>
        <pt x="151" y="67" on="1"/>
        <pt x="198" y="49" on="0"/>
        <pt x="316" y="28" on="0"/>
        <pt x="375" y="28" on="1"/>
      </contour>
    </TTGlyph>
    <TTGlyph name="b.sc" xMin="-59" yMin="0" xMax="872" yMax="1210">
      <component glyphName="B.hex" x="-105" y="0" flags="0x0"/>
    </TTGlyph>
    <TTGlyph name="backslash" xMin="344" yMin="-303" xMax="748" yMax="1513">
      <contour>
        <pt x="344" y="1513" on="1"/>
        <pt x="504" y="1513" on="1"/>
        <pt x="748" y="-303" on="1"/>
        <pt x="590" y="-303" on="1"/>
      </contour>
    </TTGlyph>
    <TTGlyph name="bar" xMin="454" yMin="-303" xMax="605" yMax="1513">
      <contour>
        <pt x="454" y="1513" on="1"/>
        <pt x="605" y="1513" on="1"/>
        <pt x="605" y="-303" on="1"/>
        <pt x="454" y="-303" on="1"/>
      </contour>
    </TTGlyph>
    <TTGlyph name="block" xMin="-165" yMin="-303" xMax="1257" yMax="1513">
      <contour>
        <pt x="198" y="1513" on="1"/>
        <pt x="1257" y="1513" on="1"/>
        <pt x="894" y="-303" on="1"/>
        <pt x="-165" y="-303" on="1"/>
      </contour>
    </TTGlyph>
    <TTGlyph name="braceleft" xMin="114" yMin="-290" xMax="1099" yMax="1500">
      <contour>
        <pt x="265" y="677" on="0"/>
        <pt x="414" y="725" on="0"/>
        <pt x="492" y="807" on="0"/>
        <pt x="506" y="878" on="1"/>
        <pt x="511" y="899" on="0"/>
        <pt x="519" y="969" on="1"/>
        <pt x="530" y="1054" on="0"/>
        <pt x="537" y="1089" on="1"/>
        <pt x="567" y="1238" on="0"/>
        <pt x="715" y="1409" on="0"/>
        <pt x="936" y="1485" on="0"/>
        <pt x="1099" y="1500" on="1"/>
        <pt x="1092" y="1379" on="1"/>
        <pt x="960" y="1361" on="0"/>
        <pt x="813" y="1313" on="0"/>
        <pt x="712" y="1196" on="0"/>
        <pt x="689" y="1083" on="1"/>
        <pt x="679" y="1037" on="0"/>
        <pt x="671" y="972" on="1"/>
        <pt x="667" y="951" on="0"/>
        <pt x="661" y="909" on="0"/>
        <pt x="657" y="889" on="1"/>
        <pt x="632" y="765" on="0"/>
        <pt x="476" y="634" on="0"/>
        <pt x="322" y="605" on="1"/>
        <pt x="440" y="581" on="0"/>
        <pt x="551" y="479" on="0"/>
        <pt x="551" y="391" on="1"/>
        <pt x="551" y="360" on="0"/>
        <pt x="543" y="317" on="1"/>
        <pt x="539" y="296" on="0"/>
        <pt x="524" y="239" on="1"/>
        <pt x="504" y="163" on="0"/>
        <pt x="497" y="123" on="1"/>
        <pt x="487" y="73" on="0"/>
        <pt x="487" y="32" on="1"/>
        <pt x="487" y="-41" on="0"/>
        <pt x="554" y="-119" on="0"/>
        <pt x="671" y="-153" on="0"/>
        <pt x="778" y="-169" on="1"/>
        <pt x="745" y="-290" on="1"/>
        <pt x="611" y="-277" on="0"/>
        <pt x="432" y="-217" on="0"/>
        <pt x="332" y="-92" on="0"/>
        <pt x="332" y="12" on="1"/>
        <pt x="332" y="62" on="0"/>
        <pt x="344" y="125" on="1"/>
        <pt x="353" y="172" on="0"/>
        <pt x="376" y="250" on="1"/>
        <pt x="382" y="273" on="0"/>
        <pt x="395" y="320" on="0"/>
        <pt x="398" y="336" on="1"/>
        <pt x="404" y="365" on="0"/>
        <pt x="404" y="388" on="1"/>
        <pt x="404" y="438" on="0"/>
        <pt x="347" y="498" on="0"/>
        <pt x="224" y="536" on="0"/>
        <pt x="114" y="552" on="1"/>
        <pt x="131" y="658" on="1"/>
      </contour>
    </TTGlyph>
    <TTGlyph name="braceright" xMin="-8" yMin="-290" xMax="978" yMax="1500">
      <contour>
        <pt x="827" y="533" on="0"/>
        <pt x="678" y="485" on="0"/>
        <pt x="600" y="403" on="0"/>
        <pt x="586" y="332" on="1"/>
        <pt x="582" y="313" on="0"/>
        <pt x="573" y="245" on="1"/>
        <pt x="562" y="160" on="0"/>
        <pt x="554" y="121" on="1"/>
        <pt x="524" y="-28" on="0"/>
        <pt x="376" y="-199" on="0"/>
        <pt x="155" y="-275" on="0"/>
        <pt x="-8" y="-290" on="1"/>
        <pt x="0" y="-169" on="1"/>
        <pt x="132" y="-151" on="0"/>
        <pt x="279" y="-103" on="0"/>
        <pt x="380" y="14" on="0"/>
        <pt x="403" y="127" on="1"/>
        <pt x="413" y="174" on="0"/>
        <pt x="420" y="233" on="1"/>
        <pt x="431" y="303" on="0"/>
        <pt x="435" y="321" on="1"/>
        <pt x="460" y="445" on="0"/>
        <pt x="616" y="576" on="0"/>
        <pt x="770" y="605" on="1"/>
        <pt x="652" y="629" on="0"/>
        <pt x="541" y="731" on="0"/>
        <pt x="541" y="819" on="1"/>
        <pt x="541" y="850" on="0"/>
        <pt x="549" y="893" on="1"/>
        <pt x="569" y="977" on="1"/>
        <pt x="595" y="1087" on="1"/>
        <pt x="605" y="1137" on="0"/>
        <pt x="605" y="1178" on="1"/>
        <pt x="605" y="1251" on="0"/>
        <pt x="538" y="1329" on="0"/>
        <pt x="421" y="1363" on="0"/>
        <pt x="313" y="1379" on="1"/>
        <pt x="346" y="1500" on="1"/>
        <pt x="480" y="1487" on="0"/>
        <pt x="659" y="1427" on="0"/>
        <pt x="759" y="1302" on="0"/>
        <pt x="759" y="1198" on="1"/>
        <pt x="759" y="1148" on="0"/>
        <pt x="747" y="1085" on="1"/>
        <pt x="738" y="1037" on="0"/>
        <pt x="715" y="956" on="1"/>
        <pt x="698" y="895" on="0"/>
        <pt x="694" y="874" on="1"/>
        <pt x="688" y="846" on="0"/>
        <pt x="688" y="822" on="1"/>
        <pt x="688" y="772" on="0"/>
        <pt x="745" y="712" on="0"/>
        <pt x="868" y="674" on="0"/>
        <pt x="978" y="658" on="1"/>
        <pt x="961" y="552" on="1"/>
      </contour>
    </TTGlyph>
    <TTGlyph name="bracketleft" xMin="138" yMin="-303" xMax="1106" yMax="1513">
      <contour>
        <pt x="501" y="1513" on="1"/>
        <pt x="1106" y="1513" on="1"/>
        <pt x="1079" y="1380" on="1"/>
        <pt x="625" y="1380" on="1"/>
        <pt x="315" y="-170" on="1"/>
        <pt x="769" y="-170" on="1"/>
        <pt x="743" y="-303" on="1"/>
        <pt x="138" y="-303" on="1"/>
      </contour>
    </TTGlyph>
    <TTGlyph name="bracketright" xMin="-14" yMin="-303" xMax="954" yMax="1513">
      <contour>
        <pt x="12" y="-170" on="1"/>
        <pt x="466" y="-170" on="1"/>
        <pt x="776" y="1380" on="1"/>
        <pt x="322" y="1380" on="1"/>
        <pt x="349" y="1513" on="1"/>
        <pt x="954" y="1513" on="1"/>
        <pt x="591" y="-303" on="1"/>
        <pt x="-14" y="-303" on="1"/>
      </contour>
    </TTGlyph>
    <TTGlyph name="breve" xMin="326" yMin="1244" xMax="930" yMax="1589">
      <component glyphName="uni0306" x="-105" y="0" flags="0x0"/>
    </TTGlyph>
    <TTGlyph name="bullet" xMin="410" yMin="521" xMax="706" yMax="811">
      <contour>
        <pt x="476" y="522" on="0"/>
        <pt x="410" y="586" on="0"/>
        <pt x="410" y="636" on="1"/>
        <pt x="410" y="651" on="0"/>
        <pt x="413" y="667" on="1"/>
        <pt x="425" y="729" on="0"/>
        <pt x="523" y="811" on="0"/>
        <pt x="585" y="811" on="1"/>
        <pt x="639" y="811" on="0"/>
        <pt x="706" y="745" on="0"/>
        <pt x="706" y="694" on="1"/>
        <pt x="706" y="680" on="0"/>
        <pt x="703" y="663" on="1"/>
        <pt x="690" y="601" on="0"/>
        <pt x="594" y="522" on="0"/>
        <pt x="530" y="521" on="1"/>
      </contour>
    </TTGlyph>
    <TTGlyph name="c" xMin="152" yMin="-19" xMax="935" yMax="1074">
      <contour>
        <pt x="855" y="971" on="0"/>
        <pt x="734" y="1023" on="0"/>
        <pt x="652" y="1023" on="1"/>
        <pt x="494" y="1023" on="0"/>
        <pt x="281" y="771" on="0"/>
        <pt x="232" y="527" on="1"/>
        <pt x="211" y="421" on="0"/>
        <pt x="211" y="335" on="1"/>
        <pt x="211" y="185" on="0"/>
        <pt x="343" y="32" on="0"/>
        <pt x="473" y="32" on="1"/>
        <pt x="539" y="32" on="0"/>
        <pt x="653" y="65" on="0"/>
        <pt x="721" y="95" on="1"/>
        <pt x="731" y="48" on="1"/>
        <pt x="666" y="16" on="0"/>
        <pt x="534" y="-19" on="0"/>
        <pt x="460" y="-19" on="1"/>
        <pt x="309" y="-19" on="0"/>
        <pt x="152" y="160" on="0"/>
        <pt x="152" y="330" on="1"/>
        <pt x="152" y="418" on="0"/>
        <pt x="175" y="531" on="1"/>
        <pt x="227" y="795" on="0"/>
        <pt x="475" y="1074" on="0"/>
        <pt x="658" y="1074" on="1"/>
        <pt x="818" y="1074" on="0"/>
        <pt x="935" y="971" on="1"/>
        <pt x="905" y="928" on="1"/>
      </contour>
    </TTGlyph>
    <TTGlyph name="c.sc" xMin="14" yMin="-21" xMax="914" yMax="1231">
      <component glyphName="C.hex" x="-105" y="0" flags="0x0"/>
    </TTGlyph>
    <TTGlyph name="cacute" xMin="47" yMin="-19" xMax="990" yMax="1643">
      <component glyphName="c" x="-105" y="0" flags="0x0"/>
      <component glyphName="acutecomb" x="-76" y="0" flags="0x0"/>
    </TTGlyph>
    <TTGlyph name="cacute.sc" xMin="-91" yMin="-21" xMax="1038" yMax="1805">
      <component glyphName="c.sc" x="-105" y="0" flags="0x0"/>
      <component glyphName="acutecomb" x="-28" y="162" flags="0x4"/>
    </TTGlyph>
    <TTGlyph name="caron" xMin="333" yMin="1248" xMax="964" yMax="1643">
      <component glyphName="uni030C" x="-105" y="0" flags="0x0"/>
    </TTGlyph>
    <TTGlyph name="ccaron" xMin="47" yMin="-19" xMax="993" yMax="1643">
      <component glyphName="c" x="-105" y="0" flags="0x0"/>
      <component glyphName="uni030C" x="-76" y="0" flags="0x0"/>
    </TTGlyph>
    <TTGlyph name="ccaron.sc" xMin="-91" yMin="-21" xMax="1041" yMax="1805">
      <component glyphName="c.sc" x="-105" y="0" flags="0x0"/>
      <component glyphName="uni030C" x="-28" y="162" flags="0x4"/>
    </TTGlyph>
    <TTGlyph name="ccedilla" xMin="152" yMin="-303" xMax="935" yMax="1074">
      <contour>
        <pt x="855" y="971" on="0"/>
        <pt x="734" y="1023" on="0"/>
        <pt x="652" y="1023" on="1"/>
        <pt x="494" y="1023" on="0"/>
        <pt x="281" y="771" on="0"/>
        <pt x="232" y="527" on="1"/>
        <pt x="211" y="421" on="0"/>
        <pt x="211" y="335" on="1"/>
        <pt x="211" y="185" on="0"/>
        <pt x="343" y="32" on="0"/>
        <pt x="473" y="32" on="1"/>
        <pt x="539" y="32" on="0"/>
        <pt x="653" y="65" on="0"/>
        <pt x="721" y="95" on="1"/>
        <pt x="731" y="48" on="1"/>
        <pt x="670" y="18" on="0"/>
        <pt x="619" y="3" on="1"/>
        <pt x="617" y="-50" on="0"/>
        <pt x="610" y="-85" on="1"/>
        <pt x="588" y="-193" on="0"/>
        <pt x="436" y="-303" on="0"/>
        <pt x="331" y="-303" on="1"/>
        <pt x="270" y="-303" on="0"/>
        <pt x="209" y="-286" on="1"/>
        <pt x="245" y="-161" on="1"/>
        <pt x="279" y="-166" on="0"/>
        <pt x="323" y="-166" on="1"/>
        <pt x="391" y="-166" on="0"/>
        <pt x="466" y="-109" on="0"/>
        <pt x="478" y="-49" on="1"/>
        <pt x="482" y="-19" on="1"/>
        <pt x="460" y="-19" on="1"/>
        <pt x="309" y="-19" on="0"/>
        <pt x="152" y="160" on="0"/>
        <pt x="152" y="330" on="1"/>
        <pt x="152" y="418" on="0"/>
        <pt x="175" y="531" on="1"/>
        <pt x="227" y="795" on="0"/>
        <pt x="475" y="1074" on="0"/>
        <pt x="658" y="1074" on="1"/>
        <pt x="818" y="1074" on="0"/>
        <pt x="935" y="971" on="1"/>
        <pt x="905" y="928" on="1"/>
      </contour>
    </TTGlyph>
    <TTGlyph name="ccedilla.sc" xMin="119" yMin="-303" xMax="1019" yMax="1231">
      <contour>
        <pt x="290" y="-21" on="0"/>
        <pt x="119" y="170" on="0"/>
        <pt x="119" y="364" on="1"/>
        <pt x="119" y="469" on="0"/>
        <pt x="146" y="607" on="1"/>
        <pt x="208" y="919" on="0"/>
        <pt x="502" y="1231" on="0"/>
        <pt x="722" y="1231" on="1"/>
        <pt x="809" y="1231" on="0"/>
        <pt x="952" y="1169" on="0"/>
        <pt x="1019" y="1115" on="1"/>
        <pt x="937" y="1009" on="1"/>
        <pt x="882" y="1047" on="0"/>
        <pt x="766" y="1095" on="0"/>
        <pt x="691" y="1095" on="1"/>
        <pt x="557" y="1095" on="0"/>
        <pt x="354" y="876" on="0"/>
        <pt x="300" y="603" on="1"/>
        <pt x="274" y="471" on="0"/>
        <pt x="274" y="381" on="1"/>
        <pt x="274" y="245" on="0"/>
        <pt x="386" y="115" on="0"/>
        <pt x="498" y="115" on="1"/>
        <pt x="565" y="115" on="0"/>
        <pt x="687" y="161" on="0"/>
        <pt x="775" y="209" on="1"/>
        <pt x="817" y="103" on="1"/>
        <pt x="750" y="64" on="0"/>
        <pt x="667" y="20" on="0"/>
        <pt x="619" y="4" on="1"/>
        <pt x="619" y="-40" on="0"/>
        <pt x="610" y="-85" on="1"/>
        <pt x="588" y="-193" on="0"/>
        <pt x="436" y="-303" on="0"/>
        <pt x="331" y="-303" on="1"/>
        <pt x="270" y="-303" on="0"/>
        <pt x="209" y="-286" on="1"/>
        <pt x="245" y="-161" on="1"/>
        <pt x="279" y="-166" on="0"/>
        <pt x="323" y="-166" on="1"/>
        <pt x="391" y="-166" on="0"/>
        <pt x="466" y="-109" on="0"/>
        <pt x="478" y="-49" on="1"/>
        <pt x="484" y="-20" on="1"/>
        <pt x="472" y="-21" on="0"/>
        <pt x="449" y="-21" on="1"/>
      </contour>
    </TTGlyph>
    <TTGlyph name="ccircumflex" xMin="47" yMin="-19" xMax="914" yMax="1643">
      <component glyphName="c" x="-105" y="0" flags="0x0"/>
      <component glyphName="uni0302" x="-76" y="0" flags="0x0"/>
    </TTGlyph>
    <TTGlyph name="ccircumflex.sc" xMin="-91" yMin="-21" xMax="962" yMax="1805">
      <component glyphName="c.sc" x="-105" y="0" flags="0x0"/>
      <component glyphName="uni0302" x="-28" y="162" flags="0x4"/>
    </TTGlyph>
    <TTGlyph name="cdotaccent" xMin="47" yMin="-19" xMax="830" yMax="1525">
      <component glyphName="c" x="-105" y="0" flags="0x0"/>
      <component glyphName="uni0307" x="-76" y="0" flags="0x0"/>
    </TTGlyph>
    <TTGlyph name="cdotaccent.sc" xMin="-91" yMin="-21" xMax="809" yMax="1687">
      <component glyphName="c.sc" x="-105" y="0" flags="0x0"/>
      <component glyphName="uni0307" x="-28" y="162" flags="0x4"/>
    </TTGlyph>
    <TTGlyph name="cedilla" xMin="104" yMin="-303" xMax="515" yMax="28">
      <component glyphName="uni0327" x="-105" y="0" flags="0x0"/>
    </TTGlyph>
    <TTGlyph name="circumflex" xMin="254" yMin="1248" xMax="885" yMax="1643">
      <component glyphName="uni0302" x="-105" y="0" flags="0x0"/>
    </TTGlyph>
    <TTGlyph name="colon" xMin="27" yMin="-11" xMax="336" yMax="899">
      <component glyphName="period" x="-105" y="0" flags="0x0"/>
      <component glyphName="period" x="47" y="756" flags="0x4"/>
    </TTGlyph>
    <TTGlyph name="comma" xMin="136" yMin="-303" xMax="669" yMax="303">
      <contour>
        <pt x="136" y="-303" on="1"/>
        <pt x="395" y="303" on="1"/>
        <pt x="669" y="303" on="1"/>
        <pt x="262" y="-303" on="1"/>
      </contour>
    </TTGlyph>
    <TTGlyph name="copyright" xMin="-12" yMin="-174" xMax="1104" yMax="1384">
      <contour>
        <pt x="263" y="-174" on="0"/>
        <pt x="82" y="-52" on="0"/>
        <pt x="-12" y="178" on="0"/>
        <pt x="-12" y="337" on="1"/>
        <pt x="-12" y="465" on="0"/>
        <pt x="17" y="607" on="1"/>
        <pt x="65" y="845" on="0"/>
        <pt x="262" y="1195" on="0"/>
        <pt x="538" y="1384" on="0"/>
        <pt x="699" y="1384" on="1"/>
        <pt x="828" y="1384" on="0"/>
        <pt x="1010" y="1262" on="0"/>
        <pt x="1104" y="1032" on="0"/>
        <pt x="1104" y="873" on="1"/>
        <pt x="1104" y="745" on="0"/>
        <pt x="1075" y="603" on="1"/>
        <pt x="1027" y="366" on="0"/>
        <pt x="829" y="15" on="0"/>
        <pt x="553" y="-174" on="0"/>
        <pt x="391" y="-174" on="1"/>
      </contour>
      <contour>
        <pt x="543" y="-38" on="0"/>
        <pt x="745" y="124" on="0"/>
        <pt x="886" y="414" on="0"/>
        <pt x="925" y="609" on="1"/>
        <pt x="955" y="756" on="0"/>
        <pt x="955" y="877" on="1"/>
        <pt x="955" y="1054" on="0"/>
        <pt x="818" y="1248" on="0"/>
        <pt x="678" y="1248" on="1"/>
        <pt x="552" y="1248" on="0"/>
        <pt x="349" y="1088" on="0"/>
        <pt x="206" y="799" on="0"/>
        <pt x="167" y="605" on="1"/>
        <pt x="138" y="458" on="0"/>
        <pt x="138" y="341" on="1"/>
        <pt x="138" y="161" on="0"/>
        <pt x="277" y="-38" on="0"/>
        <pt x="417" y="-38" on="1"/>
      </contour>
      <contour>
        <pt x="402" y="303" on="0"/>
        <pt x="281" y="431" on="0"/>
        <pt x="281" y="533" on="1"/>
        <pt x="281" y="567" on="0"/>
        <pt x="289" y="607" on="1"/>
        <pt x="317" y="751" on="0"/>
        <pt x="504" y="908" on="0"/>
        <pt x="642" y="908" on="1"/>
        <pt x="682" y="908" on="0"/>
        <pt x="786" y="890" on="0"/>
        <pt x="822" y="878" on="1"/>
        <pt x="773" y="757" on="1"/>
        <pt x="711" y="772" on="0"/>
        <pt x="627" y="772" on="1"/>
        <pt x="559" y="772" on="0"/>
        <pt x="457" y="692" on="0"/>
        <pt x="440" y="603" on="1"/>
        <pt x="435" y="581" on="0"/>
        <pt x="435" y="555" on="1"/>
        <pt x="435" y="448" on="0"/>
        <pt x="567" y="448" on="1"/>
        <pt x="638" y="448" on="0"/>
        <pt x="712" y="466" on="1"/>
        <pt x="717" y="347" on="1"/>
        <pt x="619" y="303" on="0"/>
        <pt x="518" y="303" on="1"/>
      </contour>
    </TTGlyph>
    <TTGlyph name="d" xMin="103" yMin="-15" xMax="1069" yMax="1513">
      <contour>
        <pt x="215" y="-15" on="0"/>
        <pt x="103" y="128" on="0"/>
        <pt x="103" y="265" on="1"/>
        <pt x="103" y="347" on="0"/>
        <pt x="124" y="452" on="1"/>
        <pt x="164" y="650" on="0"/>
        <pt x="334" y="928" on="0"/>
        <pt x="558" y="1068" on="0"/>
        <pt x="680" y="1068" on="1"/>
        <pt x="787" y="1068" on="0"/>
        <pt x="914" y="1027" on="1"/>
        <pt x="1013" y="1513" on="1"/>
        <pt x="1069" y="1513" on="1"/>
        <pt x="766" y="0" on="1"/>
        <pt x="710" y="0" on="1"/>
        <pt x="764" y="270" on="1"/>
        <pt x="656" y="160" on="1"/>
        <pt x="571" y="77" on="0"/>
        <pt x="410" y="-15" on="0"/>
        <pt x="325" y="-15" on="1"/>
      </contour>
      <contour>
        <pt x="416" y="36" on="0"/>
        <pt x="561" y="125" on="0"/>
        <pt x="648" y="210" on="1"/>
        <pt x="777" y="333" on="1"/>
        <pt x="908" y="980" on="1"/>
        <pt x="861" y="997" on="0"/>
        <pt x="742" y="1019" on="0"/>
        <pt x="684" y="1019" on="1"/>
        <pt x="572" y="1019" on="0"/>
        <pt x="372" y="891" on="0"/>
        <pt x="221" y="636" on="0"/>
        <pt x="184" y="452" on="1"/>
        <pt x="163" y="346" on="0"/>
        <pt x="163" y="267" on="1"/>
        <pt x="163" y="36" on="0"/>
        <pt x="341" y="36" on="1"/>
      </contour>
    </TTGlyph>
    <TTGlyph name="d.sc" xMin="-59" yMin="0" xMax="889" yMax="1210">
      <component glyphName="D.hex" x="-105" y="0" flags="0x0"/>
    </TTGlyph>
    <TTGlyph name="dagger" xMin="125" yMin="-113" xMax="1061" yMax="1324">
      <contour>
        <pt x="504" y="772" on="1"/>
        <pt x="125" y="768" on="1"/>
        <pt x="154" y="911" on="1"/>
        <pt x="530" y="907" on="1"/>
        <pt x="608" y="1324" on="1"/>
        <pt x="771" y="1324" on="1"/>
        <pt x="682" y="907" on="1"/>
        <pt x="1061" y="911" on="1"/>
        <pt x="1032" y="768" on="1"/>
        <pt x="655" y="772" on="1"/>
        <pt x="478" y="-113" on="1"/>
        <pt x="327" y="-113" on="1"/>
      </contour>
    </TTGlyph>
    <TTGlyph name="dcaron.sc" xMin="-164" yMin="0" xMax="982" yMax="1805">
      <component glyphName="d.sc" x="-105" y="0" flags="0x0"/>
      <component glyphName="uni030C" x="-87" y="162" flags="0x4"/>
    </TTGlyph>
    <TTGlyph name="dcroat" xMin="103" yMin="-15" xMax="1181" yMax="1513">
      <contour>
        <pt x="215" y="-15" on="0"/>
        <pt x="103" y="128" on="0"/>
        <pt x="103" y="265" on="1"/>
        <pt x="103" y="347" on="0"/>
        <pt x="124" y="452" on="1"/>
        <pt x="164" y="650" on="0"/>
        <pt x="334" y="928" on="0"/>
        <pt x="558" y="1068" on="0"/>
        <pt x="680" y="1068" on="1"/>
        <pt x="787" y="1068" on="0"/>
        <pt x="914" y="1027" on="1"/>
        <pt x="963" y="1262" on="1"/>
        <pt x="680" y="1262" on="1"/>
        <pt x="690" y="1313" on="1"/>
        <pt x="973" y="1313" on="1"/>
        <pt x="1013" y="1513" on="1"/>
        <pt x="1069" y="1513" on="1"/>
        <pt x="1029" y="1313" on="1"/>
        <pt x="1181" y="1313" on="1"/>
        <pt x="1171" y="1262" on="1"/>
        <pt x="1019" y="1262" on="1"/>
        <pt x="766" y="0" on="1"/>
        <pt x="710" y="0" on="1"/>
        <pt x="764" y="270" on="1"/>
        <pt x="656" y="160" on="1"/>
        <pt x="571" y="77" on="0"/>
        <pt x="410" y="-15" on="0"/>
        <pt x="325" y="-15" on="1"/>
      </contour>
      <contour>
        <pt x="416" y="36" on="0"/>
        <pt x="561" y="125" on="0"/>
        <pt x="648" y="210" on="1"/>
        <pt x="777" y="333" on="1"/>
        <pt x="908" y="980" on="1"/>
        <pt x="861" y="997" on="0"/>
        <pt x="742" y="1019" on="0"/>
        <pt x="684" y="1019" on="1"/>
        <pt x="572" y="1019" on="0"/>
        <pt x="372" y="891" on="0"/>
        <pt x="221" y="636" on="0"/>
        <pt x="184" y="452" on="1"/>
        <pt x="163" y="346" on="0"/>
        <pt x="163" y="267" on="1"/>
        <pt x="163" y="36" on="0"/>
        <pt x="341" y="36" on="1"/>
      </contour>
    </TTGlyph>
    <TTGlyph name="dcroat.sc" xMin="-101" yMin="0" xMax="889" yMax="1210">
      <component glyphName="eth.sc" x="-105" y="0" flags="0x0"/>
    </TTGlyph>
    <TTGlyph name="dieresis" xMin="362" yMin="1397" xMax="861" yMax="1519">
      <component glyphName="uni0308" x="-105" y="0" flags="0x0"/>
    </TTGlyph>
    <TTGlyph name="dollar" xMin="76" yMin="-303" xMax="1018" yMax="1664">
      <contour>
        <pt x="333" y="-14" on="1"/>
        <pt x="261" y="-8" on="0"/>
        <pt x="137" y="41" on="0"/>
        <pt x="76" y="82" on="1"/>
        <pt x="147" y="196" on="1"/>
        <pt x="201" y="163" on="0"/>
        <pt x="335" y="119" on="0"/>
        <pt x="399" y="119" on="1"/>
        <pt x="504" y="119" on="0"/>
        <pt x="652" y="230" on="0"/>
        <pt x="671" y="323" on="1"/>
        <pt x="676" y="350" on="0"/>
        <pt x="676" y="370" on="1"/>
        <pt x="676" y="422" on="0"/>
        <pt x="629" y="512" on="0"/>
        <pt x="559" y="584" on="0"/>
        <pt x="500" y="636" on="1"/>
        <pt x="433" y="695" on="0"/>
        <pt x="352" y="782" on="0"/>
        <pt x="295" y="898" on="0"/>
        <pt x="295" y="969" on="1"/>
        <pt x="295" y="1000" on="0"/>
        <pt x="303" y="1042" on="1"/>
        <pt x="318" y="1119" on="0"/>
        <pt x="405" y="1258" on="0"/>
        <pt x="542" y="1357" on="0"/>
        <pt x="629" y="1373" on="1"/>
        <pt x="689" y="1664" on="1"/>
        <pt x="841" y="1664" on="1"/>
        <pt x="781" y="1375" on="1"/>
        <pt x="905" y="1359" on="0"/>
        <pt x="1018" y="1291" on="1"/>
        <pt x="944" y="1179" on="1"/>
        <pt x="821" y="1244" on="0"/>
        <pt x="698" y="1244" on="1"/>
        <pt x="634" y="1244" on="0"/>
        <pt x="533" y="1187" on="0"/>
        <pt x="469" y="1098" on="0"/>
        <pt x="459" y="1049" on="1"/>
        <pt x="454" y="1021" on="0"/>
        <pt x="454" y="1001" on="1"/>
        <pt x="454" y="948" on="0"/>
        <pt x="500" y="860" on="0"/>
        <pt x="568" y="791" on="0"/>
        <pt x="628" y="739" on="1"/>
        <pt x="696" y="681" on="0"/>
        <pt x="777" y="596" on="0"/>
        <pt x="834" y="478" on="0"/>
        <pt x="834" y="404" on="1"/>
        <pt x="834" y="362" on="0"/>
        <pt x="826" y="323" on="1"/>
        <pt x="811" y="247" on="0"/>
        <pt x="720" y="110" on="0"/>
        <pt x="577" y="11" on="0"/>
        <pt x="486" y="-8" on="1"/>
        <pt x="425" y="-303" on="1"/>
        <pt x="274" y="-303" on="1"/>
      </contour>
    </TTGlyph>
    <TTGlyph name="dotaccent" xMin="544" yMin="1392" xMax="679" yMax="1525">
      <component glyphName="uni0307" x="-105" y="0" flags="0x0"/>
    </TTGlyph>
    <TTGlyph name="dotlessi" xMin="33" yMin="0" xMax="674" yMax="1051">
      <contour>
        <pt x="665" y="0" on="1"/>
        <pt x="33" y="0" on="1"/>
        <pt x="42" y="43" on="1"/>
        <pt x="330" y="50" on="1"/>
        <pt x="521" y="1001" on="1"/>
        <pt x="253" y="1001" on="1"/>
        <pt x="261" y="1044" on="1"/>
        <pt x="561" y="1051" on="1"/>
        <pt x="588" y="1051" on="1"/>
        <pt x="387" y="50" on="1"/>
        <pt x="674" y="43" on="1"/>
      </contour>
    </TTGlyph>
    <TTGlyph name="dotlessi.sans" xMin="112" yMin="0" xMax="379" yMax="1047">
      <contour>
        <pt x="322" y="1047" on="1"/>
        <pt x="379" y="1047" on="1"/>
        <pt x="169" y="0" on="1"/>
        <pt x="112" y="0" on="1"/>
      </contour>
    </TTGlyph>
    <TTGlyph name="dotlessi.sans.prop" xMin="396" yMin="0" xMax="663" yMax="1047">
      <contour>
        <pt x="606" y="1047" on="1"/>
        <pt x="663" y="1047" on="1"/>
        <pt x="453" y="0" on="1"/>
        <pt x="396" y="0" on="1"/>
      </contour>
    </TTGlyph>
    <TTGlyph name="dotlessi.sc" xMin="-59" yMin="0" xMax="788" yMax="1210">
      <component glyphName="i.sc" x="-105" y="0" flags="0x0"/>
    </TTGlyph>
    <TTGlyph name="e" xMin="130" yMin="-19" xMax="885" yMax="1063">
      <contour>
        <pt x="297" y="-19" on="0"/>
        <pt x="130" y="163" on="0"/>
        <pt x="130" y="336" on="1"/>
        <pt x="130" y="422" on="0"/>
        <pt x="151" y="525" on="1"/>
        <pt x="185" y="693" on="0"/>
        <pt x="322" y="935" on="0"/>
        <pt x="514" y="1062" on="0"/>
        <pt x="630" y="1062" on="1"/>
        <pt x="753" y="1063" on="0"/>
        <pt x="885" y="918" on="0"/>
        <pt x="885" y="788" on="1"/>
        <pt x="885" y="683" on="0"/>
        <pt x="840" y="549" on="1"/>
        <pt x="215" y="551" on="1"/>
        <pt x="208" y="521" on="1"/>
        <pt x="188" y="416" on="0"/>
        <pt x="188" y="339" on="1"/>
        <pt x="188" y="187" on="0"/>
        <pt x="328" y="32" on="0"/>
        <pt x="467" y="32" on="1"/>
        <pt x="572" y="32" on="0"/>
        <pt x="720" y="95" on="1"/>
        <pt x="727" y="46" on="1"/>
        <pt x="577" y="-19" on="0"/>
        <pt x="457" y="-19" on="1"/>
      </contour>
      <contour>
        <pt x="799" y="603" on="1"/>
        <pt x="827" y="705" on="0"/>
        <pt x="827" y="786" on="1"/>
        <pt x="827" y="896" on="0"/>
        <pt x="722" y="1012" on="0"/>
        <pt x="621" y="1012" on="1"/>
        <pt x="486" y="1012" on="0"/>
        <pt x="280" y="796" on="0"/>
        <pt x="227" y="599" on="1"/>
      </contour>
    </TTGlyph>
    <TTGlyph name="e.sc" xMin="-36" yMin="0" xMax="915" yMax="1210">
      <component glyphName="E.hex" x="-105" y="0" flags="0x0"/>
    </TTGlyph>
    <TTGlyph name="eacute" xMin="25" yMin="-19" xMax="952" yMax="1643">
      <component glyphName="e" x="-105" y="0" flags="0x0"/>
      <component glyphName="acutecomb" x="-114" y="0" flags="0x0"/>
    </TTGlyph>
    <TTGlyph name="eacute.sc" xMin="-141" yMin="0" xMax="1004" yMax="1805">
      <component glyphName="e.sc" x="-105" y="0" flags="0x0"/>
      <component glyphName="acutecomb" x="-62" y="162" flags="0x4"/>
    </TTGlyph>
    <TTGlyph name="ebreve" xMin="25" yMin="-19" xMax="921" yMax="1589">
      <component glyphName="e" x="-105" y="0" flags="0x0"/>
      <component glyphName="uni0306" x="-114" y="0" flags="0x0"/>
    </TTGlyph>
    <TTGlyph name="ebreve.sc" xMin="-141" yMin="0" xMax="973" yMax="1751">
      <component glyphName="e.sc" x="-105" y="0" flags="0x0"/>
      <component glyphName="uni0306" x="-62" y="162" flags="0x4"/>
    </TTGlyph>
    <TTGlyph name="ecaron" xMin="25" yMin="-19" xMax="955" yMax="1643">
      <component glyphName="e" x="-105" y="0" flags="0x0"/>
      <component glyphName="uni030C" x="-114" y="0" flags="0x0"/>
    </TTGlyph>
    <TTGlyph name="ecaron.sc" xMin="-141" yMin="0" xMax="1007" yMax="1805">
      <component glyphName="e.sc" x="-105" y="0" flags="0x0"/>
      <component glyphName="uni030C" x="-62" y="162" flags="0x4"/>
    </TTGlyph>
    <TTGlyph name="ecircumflex" xMin="25" yMin="-19" xMax="876" yMax="1643">
      <component glyphName="e" x="-105" y="0" flags="0x0"/>
      <component glyphName="uni0302" x="-114" y="0" flags="0x0"/>
    </TTGlyph>
    <TTGlyph name="ecircumflex.sc" xMin="-141" yMin="0" xMax="928" yMax="1805">
      <component glyphName="e.sc" x="-105" y="0" flags="0x0"/>
      <component glyphName="uni0302" x="-62" y="162" flags="0x4"/>
    </TTGlyph>
    <TTGlyph name="edieresis" xMin="25" yMin="-19" xMax="852" yMax="1519">
      <component glyphName="e" x="-105" y="0" flags="0x0"/>
      <component glyphName="uni0308" x="-114" y="0" flags="0x0"/>
    </TTGlyph>
    <TTGlyph name="edieresis.sc" xMin="-141" yMin="0" xMax="904" yMax="1681">
      <component glyphName="e.sc" x="-105" y="0" flags="0x0"/>
      <component glyphName="uni0308" x="-62" y="162" flags="0x4"/>
    </TTGlyph>
    <TTGlyph name="edotaccent" xMin="25" yMin="-19" xMax="780" yMax="1525">
      <component glyphName="e" x="-105" y="0" flags="0x0"/>
      <component glyphName="uni0307" x="-114" y="0" flags="0x0"/>
    </TTGlyph>
    <TTGlyph name="edotaccent.sc" xMin="-141" yMin="0" xMax="810" yMax="1687">
      <component glyphName="e.sc" x="-105" y="0" flags="0x0"/>
      <component glyphName="uni0307" x="-62" y="162" flags="0x4"/>
    </TTGlyph>
    <TTGlyph name="egrave" xMin="25" yMin="-19" xMax="780" yMax="1643">
      <component glyphName="e" x="-105" y="0" flags="0x0"/>
      <component glyphName="gravecomb" x="-114" y="0" flags="0x0"/>
    </TTGlyph>
    <TTGlyph name="egrave.sc" xMin="-141" yMin="0" xMax="810" yMax="1805">
      <component glyphName="e.sc" x="-105" y="0" flags="0x0"/>
      <component glyphName="gravecomb" x="-62" y="162" flags="0x4"/>
    </TTGlyph>
    <TTGlyph name="eight" xMin="49" yMin="-19" xMax="1022" yMax="1380">
      <contour>
        <pt x="233" y="-19" on="0"/>
        <pt x="49" y="124" on="0"/>
        <pt x="49" y="243" on="1"/>
        <pt x="49" y="278" on="0"/>
        <pt x="56" y="312" on="1"/>
        <pt x="82" y="442" on="0"/>
        <pt x="276" y="626" on="0"/>
        <pt x="429" y="709" on="1"/>
        <pt x="365" y="771" on="1"/>
        <pt x="304" y="827" on="0"/>
        <pt x="243" y="927" on="0"/>
        <pt x="243" y="995" on="1"/>
        <pt x="243" y="1027" on="0"/>
        <pt x="250" y="1061" on="1"/>
        <pt x="267" y="1150" on="0"/>
        <pt x="392" y="1296" on="0"/>
        <pt x="584" y="1380" on="0"/>
        <pt x="698" y="1380" on="1"/>
        <pt x="796" y="1380" on="0"/>
        <pt x="943" y="1312" on="0"/>
        <pt x="1022" y="1190" on="0"/>
        <pt x="1022" y="1111" on="1"/>
        <pt x="1022" y="1076" on="0"/>
        <pt x="1015" y="1044" on="1"/>
        <pt x="1000" y="969" on="0"/>
        <pt x="916" y="849" on="0"/>
        <pt x="797" y="752" on="0"/>
        <pt x="697" y="685" on="1"/>
        <pt x="774" y="612" on="1"/>
        <pt x="849" y="541" on="0"/>
        <pt x="915" y="423" on="0"/>
        <pt x="915" y="362" on="1"/>
        <pt x="915" y="334" on="0"/>
        <pt x="909" y="304" on="1"/>
        <pt x="892" y="220" on="0"/>
        <pt x="762" y="72" on="0"/>
        <pt x="551" y="-19" on="0"/>
        <pt x="419" y="-19" on="1"/>
      </contour>
      <contour>
        <pt x="212" y="297" on="0"/>
        <pt x="212" y="281" on="1"/>
        <pt x="212" y="239" on="0"/>
        <pt x="258" y="165" on="0"/>
        <pt x="362" y="117" on="0"/>
        <pt x="443" y="117" on="1"/>
        <pt x="528" y="117" on="0"/>
        <pt x="660" y="165" on="0"/>
        <pt x="740" y="251" on="0"/>
        <pt x="751" y="306" on="1"/>
        <pt x="755" y="325" on="0"/>
        <pt x="755" y="344" on="1"/>
        <pt x="755" y="380" on="0"/>
        <pt x="714" y="449" on="0"/>
        <pt x="661" y="498" on="1"/>
        <pt x="525" y="621" on="1"/>
        <pt x="384" y="551" on="0"/>
        <pt x="234" y="406" on="0"/>
        <pt x="215" y="312" on="1"/>
      </contour>
      <contour>
        <pt x="404" y="1037" on="0"/>
        <pt x="404" y="1019" on="1"/>
        <pt x="404" y="980" on="0"/>
        <pt x="441" y="918" on="0"/>
        <pt x="482" y="880" on="1"/>
        <pt x="610" y="766" on="1"/>
        <pt x="691" y="824" on="0"/>
        <pt x="778" y="895" on="0"/>
        <pt x="846" y="989" on="0"/>
        <pt x="858" y="1048" on="1"/>
        <pt x="862" y="1065" on="0"/>
        <pt x="862" y="1087" on="1"/>
        <pt x="862" y="1155" on="0"/>
        <pt x="768" y="1246" on="0"/>
        <pt x="672" y="1246" on="1"/>
        <pt x="566" y="1246" on="0"/>
        <pt x="425" y="1146" on="0"/>
        <pt x="409" y="1065" on="1"/>
      </contour>
    </TTGlyph>
    <TTGlyph name="ellipsis" xMin="29" yMin="-23" xMax="853" yMax="189">
      <contour>
        <pt x="80" y="-23" on="0"/>
        <pt x="29" y="25" on="0"/>
        <pt x="29" y="63" on="1"/>
        <pt x="29" y="69" on="0"/>
        <pt x="31" y="85" on="1"/>
        <pt x="41" y="132" on="0"/>
        <pt x="111" y="189" on="0"/>
        <pt x="158" y="189" on="1"/>
        <pt x="198" y="189" on="0"/>
        <pt x="248" y="143" on="0"/>
        <pt x="248" y="105" on="1"/>
        <pt x="248" y="50" on="0"/>
        <pt x="173" y="-23" on="0"/>
        <pt x="120" y="-23" on="1"/>
      </contour>
      <contour>
        <pt x="382" y="-23" on="0"/>
        <pt x="332" y="25" on="0"/>
        <pt x="332" y="63" on="1"/>
        <pt x="332" y="69" on="0"/>
        <pt x="334" y="85" on="1"/>
        <pt x="344" y="132" on="0"/>
        <pt x="413" y="189" on="0"/>
        <pt x="460" y="189" on="1"/>
        <pt x="501" y="189" on="0"/>
        <pt x="551" y="143" on="0"/>
        <pt x="551" y="105" on="1"/>
        <pt x="551" y="93" on="0"/>
        <pt x="548" y="81" on="1"/>
        <pt x="539" y="35" on="0"/>
        <pt x="469" y="-23" on="0"/>
        <pt x="422" y="-23" on="1"/>
      </contour>
      <contour>
        <pt x="685" y="-23" on="0"/>
        <pt x="634" y="25" on="0"/>
        <pt x="634" y="63" on="1"/>
        <pt x="634" y="69" on="0"/>
        <pt x="636" y="85" on="1"/>
        <pt x="646" y="132" on="0"/>
        <pt x="716" y="189" on="0"/>
        <pt x="763" y="189" on="1"/>
        <pt x="803" y="189" on="0"/>
        <pt x="853" y="143" on="0"/>
        <pt x="853" y="105" on="1"/>
        <pt x="853" y="50" on="0"/>
        <pt x="778" y="-23" on="0"/>
        <pt x="725" y="-23" on="1"/>
      </contour>
    </TTGlyph>
    <TTGlyph name="emacron" xMin="25" yMin="-19" xMax="867" yMax="1498">
      <component glyphName="e" x="-105" y="0" flags="0x0"/>
      <component glyphName="uni0304" x="-114" y="0" flags="0x0"/>
    </TTGlyph>
    <TTGlyph name="emacron.sc" xMin="-141" yMin="0" xMax="919" yMax="1660">
      <component glyphName="e.sc" x="-105" y="0" flags="0x0"/>
      <component glyphName="uni0304" x="-62" y="162" flags="0x4"/>
    </TTGlyph>
    <TTGlyph name="emdash" xMin="25" yMin="646" xMax="1094" yMax="696">
      <contour>
        <pt x="35" y="696" on="1"/>
        <pt x="1094" y="696" on="1"/>
        <pt x="1084" y="646" on="1"/>
        <pt x="25" y="646" on="1"/>
      </contour>
    </TTGlyph>
    <TTGlyph name="endash" xMin="25" yMin="646" xMax="1094" yMax="696">
      <contour>
        <pt x="35" y="696" on="1"/>
        <pt x="1094" y="696" on="1"/>
        <pt x="1084" y="646" on="1"/>
        <pt x="25" y="646" on="1"/>
      </contour>
    </TTGlyph>
    <TTGlyph name="eogonek" xMin="130" yMin="-303" xMax="885" yMax="1063">
      <contour>
        <pt x="297" y="-19" on="0"/>
        <pt x="130" y="163" on="0"/>
        <pt x="130" y="336" on="1"/>
        <pt x="130" y="422" on="0"/>
        <pt x="151" y="525" on="1"/>
        <pt x="185" y="693" on="0"/>
        <pt x="322" y="935" on="0"/>
        <pt x="514" y="1062" on="0"/>
        <pt x="630" y="1062" on="1"/>
        <pt x="753" y="1063" on="0"/>
        <pt x="885" y="918" on="0"/>
        <pt x="885" y="788" on="1"/>
        <pt x="885" y="683" on="0"/>
        <pt x="840" y="549" on="1"/>
        <pt x="215" y="551" on="1"/>
        <pt x="208" y="521" on="1"/>
        <pt x="188" y="416" on="0"/>
        <pt x="188" y="339" on="1"/>
        <pt x="188" y="187" on="0"/>
        <pt x="328" y="32" on="0"/>
        <pt x="467" y="32" on="1"/>
        <pt x="572" y="32" on="0"/>
        <pt x="720" y="95" on="1"/>
        <pt x="727" y="46" on="1"/>
        <pt x="644" y="-6" on="0"/>
        <pt x="547" y="-108" on="0"/>
        <pt x="536" y="-162" on="1"/>
        <pt x="533" y="-176" on="0"/>
        <pt x="533" y="-188" on="1"/>
        <pt x="533" y="-219" on="0"/>
        <pt x="570" y="-251" on="0"/>
        <pt x="606" y="-251" on="1"/>
        <pt x="643" y="-251" on="0"/>
        <pt x="686" y="-234" on="1"/>
        <pt x="689" y="-283" on="1"/>
        <pt x="634" y="-303" on="0"/>
        <pt x="590" y="-303" on="1"/>
        <pt x="534" y="-303" on="0"/>
        <pt x="471" y="-252" on="0"/>
        <pt x="471" y="-204" on="1"/>
        <pt x="471" y="-190" on="0"/>
        <pt x="474" y="-175" on="1"/>
        <pt x="496" y="-70" on="0"/>
        <pt x="636" y="11" on="1"/>
        <pt x="542" y="-19" on="0"/>
        <pt x="457" y="-19" on="1"/>
      </contour>
      <contour>
        <pt x="799" y="603" on="1"/>
        <pt x="827" y="705" on="0"/>
        <pt x="827" y="786" on="1"/>
        <pt x="827" y="896" on="0"/>
        <pt x="722" y="1012" on="0"/>
        <pt x="621" y="1012" on="1"/>
        <pt x="486" y="1012" on="0"/>
        <pt x="280" y="796" on="0"/>
        <pt x="227" y="599" on="1"/>
      </contour>
    </TTGlyph>
    <TTGlyph name="eogonek.sc" xMin="69" yMin="-303" xMax="1020" yMax="1210">
      <contour>
        <pt x="311" y="1210" on="1"/>
        <pt x="1020" y="1210" on="1"/>
        <pt x="993" y="1074" on="1"/>
        <pt x="435" y="1074" on="1"/>
        <pt x="356" y="677" on="1"/>
        <pt x="846" y="677" on="1"/>
        <pt x="819" y="541" on="1"/>
        <pt x="329" y="541" on="1"/>
        <pt x="247" y="136" on="1"/>
        <pt x="813" y="136" on="1"/>
        <pt x="788" y="-1" on="1"/>
        <pt x="697" y="-24" on="0"/>
        <pt x="580" y="-111" on="0"/>
        <pt x="568" y="-169" on="1"/>
        <pt x="566" y="-185" on="0"/>
        <pt x="566" y="-191" on="1"/>
        <pt x="566" y="-251" on="0"/>
        <pt x="640" y="-251" on="1"/>
        <pt x="676" y="-251" on="0"/>
        <pt x="721" y="-234" on="1"/>
        <pt x="723" y="-283" on="1"/>
        <pt x="668" y="-303" on="0"/>
        <pt x="624" y="-303" on="1"/>
        <pt x="567" y="-303" on="0"/>
        <pt x="505" y="-253" on="0"/>
        <pt x="505" y="-207" on="1"/>
        <pt x="505" y="-189" on="0"/>
        <pt x="507" y="-180" on="1"/>
        <pt x="533" y="-61" on="0"/>
        <pt x="710" y="1" on="1"/>
        <pt x="69" y="0" on="1"/>
      </contour>
    </TTGlyph>
    <TTGlyph name="equal" xMin="25" yMin="461" xMax="1096" yMax="900">
      <contour>
        <pt x="113" y="900" on="1"/>
        <pt x="1096" y="900" on="1"/>
        <pt x="1069" y="764" on="1"/>
        <pt x="86" y="764" on="1"/>
      </contour>
      <contour>
        <pt x="53" y="598" on="1"/>
        <pt x="1036" y="598" on="1"/>
        <pt x="1008" y="461" on="1"/>
        <pt x="25" y="461" on="1"/>
      </contour>
    </TTGlyph>
    <TTGlyph name="eth.sc" xMin="4" yMin="0" xMax="994" yMax="1210">
      <contour>
        <pt x="994" y="1210" on="0"/>
        <pt x="994" y="823" on="1"/>
        <pt x="994" y="726" on="0"/>
        <pt x="970" y="607" on="1"/>
        <pt x="930" y="409" on="0"/>
        <pt x="759" y="136" on="0"/>
        <pt x="520" y="0" on="0"/>
        <pt x="377" y="0" on="1"/>
        <pt x="46" y="0" on="1"/>
        <pt x="155" y="545" on="1"/>
        <pt x="4" y="545" on="1"/>
        <pt x="32" y="681" on="1"/>
        <pt x="183" y="681" on="1"/>
        <pt x="288" y="1210" on="1"/>
        <pt x="604" y="1210" on="1"/>
      </contour>
      <contour>
        <pt x="413" y="1074" on="1"/>
        <pt x="335" y="681" on="1"/>
        <pt x="596" y="681" on="1"/>
        <pt x="568" y="545" on="1"/>
        <pt x="307" y="545" on="1"/>
        <pt x="225" y="136" on="1"/>
        <pt x="409" y="136" on="1"/>
        <pt x="559" y="136" on="0"/>
        <pt x="760" y="354" on="0"/>
        <pt x="810" y="605" on="1"/>
        <pt x="834" y="727" on="0"/>
        <pt x="834" y="813" on="1"/>
        <pt x="834" y="951" on="0"/>
        <pt x="712" y="1074" on="0"/>
        <pt x="589" y="1074" on="1"/>
      </contour>
    </TTGlyph>
    <TTGlyph name="exclam" xMin="132" yMin="-11" xMax="749" yMax="1362">
      <contour>
        <pt x="646" y="1362" on="1"/>
        <pt x="749" y="1362" on="1"/>
        <pt x="550" y="529" on="1"/>
        <pt x="511" y="529" on="1"/>
      </contour>
      <contour>
        <pt x="168" y="-11" on="0"/>
        <pt x="132" y="25" on="0"/>
        <pt x="132" y="52" on="1"/>
        <pt x="132" y="90" on="0"/>
        <pt x="186" y="143" on="0"/>
        <pt x="222" y="143" on="1"/>
        <pt x="252" y="143" on="0"/>
        <pt x="289" y="109" on="0"/>
        <pt x="289" y="82" on="1"/>
        <pt x="289" y="43" on="0"/>
        <pt x="235" y="-11" on="0"/>
        <pt x="197" y="-11" on="1"/>
      </contour>
    </TTGlyph>
    <TTGlyph name="exclamdown" xMin="313" yMin="-303" xMax="929" yMax="1070">
      <contour>
        <pt x="416" y="-303" on="1"/>
        <pt x="313" y="-303" on="1"/>
        <pt x="511" y="530" on="1"/>
        <pt x="550" y="530" on="1"/>
      </contour>
      <contour>
        <pt x="893" y="1070" on="0"/>
        <pt x="929" y="1034" on="0"/>
        <pt x="929" y="1007" on="1"/>
        <pt x="929" y="969" on="0"/>
        <pt x="875" y="916" on="0"/>
        <pt x="839" y="916" on="1"/>
        <pt x="809" y="916" on="0"/>
        <pt x="772" y="951" on="0"/>
        <pt x="772" y="978" on="1"/>
        <pt x="772" y="1016" on="0"/>
        <pt x="826" y="1070" on="0"/>
        <pt x="864" y="1070" on="1"/>
      </contour>
    </TTGlyph>
    <TTGlyph name="f" xMin="95" yMin="-328" xMax="1094" yMax="1536">
      <contour>
        <pt x="225" y="-213" on="0"/>
        <pt x="382" y="-18" on="0"/>
        <pt x="413" y="137" on="1"/>
        <pt x="548" y="814" on="1"/>
        <pt x="234" y="814" on="1"/>
        <pt x="244" y="865" on="1"/>
        <pt x="558" y="865" on="1"/>
        <pt x="631" y="1226" on="1"/>
        <pt x="660" y="1373" on="0"/>
        <pt x="822" y="1536" on="0"/>
        <pt x="939" y="1536" on="1"/>
        <pt x="1014" y="1536" on="0"/>
        <pt x="1094" y="1500" on="1"/>
        <pt x="1075" y="1454" on="1"/>
        <pt x="1006" y="1484" on="0"/>
        <pt x="937" y="1484" on="1"/>
        <pt x="842" y="1484" on="0"/>
        <pt x="711" y="1347" on="0"/>
        <pt x="687" y="1225" on="1"/>
        <pt x="615" y="865" on="1"/>
        <pt x="958" y="865" on="1"/>
        <pt x="948" y="814" on="1"/>
        <pt x="605" y="814" on="1"/>
        <pt x="469" y="136" on="1"/>
        <pt x="434" y="-38" on="0"/>
        <pt x="255" y="-254" on="0"/>
        <pt x="111" y="-328" on="1"/>
        <pt x="95" y="-284" on="1"/>
      </contour>
    </TTGlyph>
    <TTGlyph name="f.sc" xMin="-21" yMin="0" xMax="940" yMax="1210">
      <component glyphName="F.hex" x="-105" y="0" flags="0x0"/>
    </TTGlyph>
    <TTGlyph name="five" xMin="-18" yMin="-321" xMax="977" yMax="1210">
      <contour>
        <pt x="203" y="-167" on="0"/>
        <pt x="489" y="-62" on="0"/>
        <pt x="652" y="103" on="0"/>
        <pt x="676" y="225" on="1"/>
        <pt x="682" y="255" on="0"/>
        <pt x="682" y="283" on="1"/>
        <pt x="682" y="379" on="0"/>
        <pt x="543" y="503" on="0"/>
        <pt x="403" y="503" on="1"/>
        <pt x="294" y="503" on="0"/>
        <pt x="157" y="484" on="1"/>
        <pt x="300" y="1210" on="1"/>
        <pt x="977" y="1210" on="1"/>
        <pt x="950" y="1074" on="1"/>
        <pt x="424" y="1074" on="1"/>
        <pt x="334" y="631" on="1"/>
        <pt x="400" y="637" on="0"/>
        <pt x="458" y="637" on="1"/>
        <pt x="591" y="637" on="0"/>
        <pt x="766" y="555" on="0"/>
        <pt x="849" y="413" on="0"/>
        <pt x="849" y="321" on="1"/>
        <pt x="849" y="281" on="0"/>
        <pt x="839" y="229" on="1"/>
        <pt x="795" y="5" on="0"/>
        <pt x="374" y="-272" on="0"/>
        <pt x="-18" y="-321" on="1"/>
        <pt x="-16" y="-199" on="1"/>
      </contour>
    </TTGlyph>
    <TTGlyph name="florin" xMin="234" yMin="0" xMax="1094" yMax="1536">
      <contour>
        <pt x="548" y="814" on="1"/>
        <pt x="234" y="814" on="1"/>
        <pt x="244" y="865" on="1"/>
        <pt x="558" y="865" on="1"/>
        <pt x="631" y="1226" on="1"/>
        <pt x="660" y="1373" on="0"/>
        <pt x="821" y="1536" on="0"/>
        <pt x="939" y="1536" on="1"/>
        <pt x="1014" y="1536" on="0"/>
        <pt x="1094" y="1500" on="1"/>
        <pt x="1075" y="1454" on="1"/>
        <pt x="1006" y="1484" on="0"/>
        <pt x="937" y="1484" on="1"/>
        <pt x="842" y="1484" on="0"/>
        <pt x="712" y="1348" on="0"/>
        <pt x="687" y="1225" on="1"/>
        <pt x="615" y="865" on="1"/>
        <pt x="958" y="865" on="1"/>
        <pt x="948" y="814" on="1"/>
        <pt x="605" y="814" on="1"/>
        <pt x="442" y="0" on="1"/>
        <pt x="385" y="0" on="1"/>
      </contour>
    </TTGlyph>
    <TTGlyph name="four" xMin="8" yMin="-151" xMax="905" yMax="1210">
      <contour>
        <pt x="576" y="151" on="1"/>
        <pt x="8" y="151" on="1"/>
        <pt x="28" y="248" on="1"/>
        <pt x="649" y="1210" on="1"/>
        <pt x="805" y="1210" on="1"/>
        <pt x="199" y="284" on="1"/>
        <pt x="603" y="284" on="1"/>
        <pt x="688" y="709" on="1"/>
        <pt x="839" y="709" on="1"/>
        <pt x="754" y="284" on="1"/>
        <pt x="905" y="284" on="1"/>
        <pt x="878" y="151" on="1"/>
        <pt x="727" y="151" on="1"/>
        <pt x="667" y="-151" on="1"/>
        <pt x="516" y="-151" on="1"/>
      </contour>
    </TTGlyph>
    <TTGlyph name="g" xMin="-3" yMin="-318" xMax="967" yMax="1068">
      <contour>
        <pt x="241" y="136" on="0"/>
        <pt x="124" y="268" on="0"/>
        <pt x="124" y="391" on="1"/>
        <pt x="124" y="452" on="0"/>
        <pt x="139" y="527" on="1"/>
        <pt x="173" y="700" on="0"/>
        <pt x="338" y="944" on="0"/>
        <pt x="559" y="1068" on="0"/>
        <pt x="680" y="1068" on="1"/>
        <pt x="822" y="1068" on="0"/>
        <pt x="967" y="1012" on="1"/>
        <pt x="785" y="96" on="1"/>
        <pt x="759" y="-37" on="0"/>
        <pt x="631" y="-223" on="0"/>
        <pt x="448" y="-318" on="0"/>
        <pt x="341" y="-318" on="1"/>
        <pt x="242" y="-318" on="0"/>
        <pt x="69" y="-247" on="0"/>
        <pt x="-3" y="-188" on="1"/>
        <pt x="25" y="-148" on="1"/>
        <pt x="170" y="-266" on="0"/>
        <pt x="341" y="-266" on="1"/>
        <pt x="488" y="-266" on="0"/>
        <pt x="694" y="-78" on="0"/>
        <pt x="730" y="96" on="1"/>
        <pt x="795" y="422" on="1"/>
        <pt x="686" y="313" on="1"/>
        <pt x="600" y="228" on="0"/>
        <pt x="440" y="136" on="0"/>
        <pt x="355" y="136" on="1"/>
      </contour>
      <contour>
        <pt x="446" y="187" on="0"/>
        <pt x="592" y="276" on="0"/>
        <pt x="679" y="363" on="1"/>
        <pt x="807" y="485" on="1"/>
        <pt x="908" y="980" on="1"/>
        <pt x="861" y="997" on="0"/>
        <pt x="742" y="1019" on="0"/>
        <pt x="684" y="1019" on="1"/>
        <pt x="572" y="1019" on="0"/>
        <pt x="375" y="907" on="0"/>
        <pt x="231" y="686" on="0"/>
        <pt x="199" y="527" on="1"/>
        <pt x="184" y="452" on="0"/>
        <pt x="184" y="395" on="1"/>
        <pt x="184" y="187" on="0"/>
        <pt x="371" y="187" on="1"/>
      </contour>
    </TTGlyph>
    <TTGlyph name="g.sc" xMin="119" yMin="-21" xMax="1019" yMax="1231">
      <contour>
        <pt x="300" y="-21" on="0"/>
        <pt x="119" y="171" on="0"/>
        <pt x="119" y="367" on="1"/>
        <pt x="119" y="472" on="0"/>
        <pt x="146" y="607" on="1"/>
        <pt x="208" y="920" on="0"/>
        <pt x="505" y="1231" on="0"/>
        <pt x="730" y="1231" on="1"/>
        <pt x="812" y="1231" on="0"/>
        <pt x="953" y="1186" on="0"/>
        <pt x="1019" y="1145" on="1"/>
        <pt x="946" y="1028" on="1"/>
        <pt x="887" y="1059" on="0"/>
        <pt x="773" y="1095" on="0"/>
        <pt x="706" y="1095" on="1"/>
        <pt x="562" y="1095" on="0"/>
        <pt x="354" y="877" on="0"/>
        <pt x="300" y="603" on="1"/>
        <pt x="274" y="473" on="0"/>
        <pt x="274" y="383" on="1"/>
        <pt x="274" y="245" on="0"/>
        <pt x="392" y="115" on="0"/>
        <pt x="512" y="115" on="1"/>
        <pt x="583" y="115" on="0"/>
        <pt x="677" y="139" on="1"/>
        <pt x="745" y="469" on="1"/>
        <pt x="507" y="469" on="1"/>
        <pt x="534" y="605" on="1"/>
        <pt x="924" y="605" on="1"/>
        <pt x="814" y="46" on="1"/>
        <pt x="642" y="-21" on="0"/>
        <pt x="475" y="-21" on="1"/>
      </contour>
    </TTGlyph>
    <TTGlyph name="gbreve" xMin="-108" yMin="-318" xMax="949" yMax="1589">
      <component glyphName="g" x="-105" y="0" flags="0x0"/>
      <component glyphName="uni0306" x="-86" y="0" flags="0x0"/>
    </TTGlyph>
    <TTGlyph name="gbreve.sc" xMin="14" yMin="-21" xMax="1007" yMax="1751">
      <component glyphName="g.sc" x="-105" y="0" flags="0x0"/>
      <component glyphName="uni0306" x="-28" y="162" flags="0x4"/>
    </TTGlyph>
    <TTGlyph name="gcaron" xMin="-108" yMin="-318" xMax="983" yMax="1643">
      <component glyphName="g" x="-105" y="0" flags="0x0"/>
      <component glyphName="uni030C" x="-86" y="0" flags="0x0"/>
    </TTGlyph>
    <TTGlyph name="gcaron.sc" xMin="14" yMin="-21" xMax="1041" yMax="1805">
      <component glyphName="g.sc" x="-105" y="0" flags="0x0"/>
      <component glyphName="uni030C" x="-28" y="162" flags="0x4"/>
    </TTGlyph>
    <TTGlyph name="gcircumflex" xMin="-108" yMin="-318" xMax="904" yMax="1643">
      <component glyphName="g" x="-105" y="0" flags="0x0"/>
      <component glyphName="uni0302" x="-86" y="0" flags="0x0"/>
    </TTGlyph>
    <TTGlyph name="gcircumflex.sc" xMin="14" yMin="-21" xMax="962" yMax="1805">
      <component glyphName="g.sc" x="-105" y="0" flags="0x0"/>
      <component glyphName="uni0302" x="-28" y="162" flags="0x4"/>
    </TTGlyph>
    <TTGlyph name="gdotaccent" xMin="-108" yMin="-318" xMax="862" yMax="1525">
      <component glyphName="g" x="-105" y="0" flags="0x0"/>
      <component glyphName="uni0307" x="-86" y="0" flags="0x0"/>
    </TTGlyph>
    <TTGlyph name="gdotaccent.sc" xMin="14" yMin="-21" xMax="914" yMax="1687">
      <component glyphName="g.sc" x="-105" y="0" flags="0x0"/>
      <component glyphName="uni0307" x="-28" y="162" flags="0x4"/>
    </TTGlyph>
    <TTGlyph name="germandbls" xMin="-208" yMin="-328" xMax="950" yMax="1532">
      <contour>
        <pt x="-79" y="-213" on="0"/>
        <pt x="79" y="-18" on="0"/>
        <pt x="111" y="137" on="1"/>
        <pt x="319" y="1180" on="1"/>
        <pt x="341" y="1292" on="0"/>
        <pt x="450" y="1451" on="0"/>
        <pt x="607" y="1532" on="0"/>
        <pt x="700" y="1532" on="1"/>
        <pt x="818" y="1532" on="0"/>
        <pt x="950" y="1410" on="0"/>
        <pt x="950" y="1303" on="1"/>
        <pt x="950" y="1265" on="0"/>
        <pt x="941" y="1223" on="1"/>
        <pt x="928" y="1155" on="0"/>
        <pt x="867" y="1046" on="0"/>
        <pt x="796" y="969" on="0"/>
        <pt x="741" y="918" on="1"/>
        <pt x="677" y="859" on="0"/>
        <pt x="608" y="773" on="0"/>
        <pt x="597" y="718" on="1"/>
        <pt x="594" y="700" on="0"/>
        <pt x="594" y="685" on="1"/>
        <pt x="594" y="648" on="0"/>
        <pt x="630" y="592" on="0"/>
        <pt x="684" y="551" on="0"/>
        <pt x="729" y="524" on="1"/>
        <pt x="783" y="491" on="0"/>
        <pt x="847" y="439" on="0"/>
        <pt x="893" y="360" on="0"/>
        <pt x="893" y="305" on="1"/>
        <pt x="893" y="278" on="0"/>
        <pt x="887" y="245" on="1"/>
        <pt x="874" y="178" on="0"/>
        <pt x="779" y="56" on="0"/>
        <pt x="631" y="-19" on="0"/>
        <pt x="544" y="-19" on="1"/>
        <pt x="492" y="-19" on="0"/>
        <pt x="417" y="6" on="0"/>
        <pt x="371" y="31" on="1"/>
        <pt x="391" y="70" on="1"/>
        <pt x="425" y="50" on="0"/>
        <pt x="494" y="30" on="0"/>
        <pt x="542" y="30" on="1"/>
        <pt x="615" y="30" on="0"/>
        <pt x="739" y="93" on="0"/>
        <pt x="819" y="195" on="0"/>
        <pt x="830" y="251" on="1"/>
        <pt x="835" y="279" on="0"/>
        <pt x="835" y="298" on="1"/>
        <pt x="835" y="344" on="0"/>
        <pt x="795" y="410" on="0"/>
        <pt x="736" y="453" on="0"/>
        <pt x="687" y="482" on="1"/>
        <pt x="637" y="511" on="0"/>
        <pt x="577" y="557" on="0"/>
        <pt x="536" y="625" on="0"/>
        <pt x="536" y="673" on="1"/>
        <pt x="536" y="700" on="0"/>
        <pt x="541" y="722" on="1"/>
        <pt x="550" y="769" on="0"/>
        <pt x="595" y="843" on="0"/>
        <pt x="650" y="900" on="0"/>
        <pt x="695" y="939" on="1"/>
        <pt x="747" y="985" on="0"/>
        <pt x="813" y="1054" on="0"/>
        <pt x="870" y="1155" on="0"/>
        <pt x="883" y="1221" on="1"/>
        <pt x="891" y="1263" on="0"/>
        <pt x="891" y="1294" on="1"/>
        <pt x="891" y="1384" on="0"/>
        <pt x="789" y="1483" on="0"/>
        <pt x="692" y="1482" on="1"/>
        <pt x="574" y="1483" on="0"/>
        <pt x="404" y="1323" on="0"/>
        <pt x="375" y="1177" on="1"/>
        <pt x="166" y="136" on="1"/>
        <pt x="131" y="-38" on="0"/>
        <pt x="-48" y="-253" on="0"/>
        <pt x="-191" y="-328" on="1"/>
        <pt x="-208" y="-284" on="1"/>
      </contour>
    </TTGlyph>
    <TTGlyph name="germandbls.sc" xMin="-2" yMin="-303" xMax="910" yMax="1229">
      <contour>
        <pt x="218" y="-17" on="0"/>
        <pt x="70" y="34" on="0"/>
        <pt x="-2" y="82" on="1"/>
        <pt x="69" y="196" on="1"/>
        <pt x="124" y="163" on="0"/>
        <pt x="258" y="119" on="0"/>
        <pt x="322" y="119" on="1"/>
        <pt x="428" y="119" on="0"/>
        <pt x="572" y="215" on="0"/>
        <pt x="588" y="299" on="1"/>
        <pt x="591" y="317" on="0"/>
        <pt x="591" y="333" on="1"/>
        <pt x="591" y="377" on="0"/>
        <pt x="544" y="453" on="0"/>
        <pt x="474" y="515" on="0"/>
        <pt x="414" y="558" on="1"/>
        <pt x="343" y="610" on="0"/>
        <pt x="256" y="689" on="0"/>
        <pt x="195" y="798" on="0"/>
        <pt x="195" y="866" on="1"/>
        <pt x="195" y="891" on="0"/>
        <pt x="202" y="929" on="1"/>
        <pt x="217" y="1007" on="0"/>
        <pt x="323" y="1144" on="0"/>
        <pt x="493" y="1229" on="0"/>
        <pt x="599" y="1229" on="1"/>
        <pt x="691" y="1229" on="0"/>
        <pt x="851" y="1176" on="0"/>
        <pt x="910" y="1139" on="1"/>
        <pt x="837" y="1028" on="1"/>
        <pt x="709" y="1093" on="0"/>
        <pt x="591" y="1093" on="1"/>
        <pt x="527" y="1093" on="0"/>
        <pt x="426" y="1046" on="0"/>
        <pt x="365" y="972" on="0"/>
        <pt x="357" y="930" on="1"/>
        <pt x="354" y="912" on="0"/>
        <pt x="354" y="896" on="1"/>
        <pt x="354" y="851" on="0"/>
        <pt x="401" y="774" on="0"/>
        <pt x="470" y="714" on="0"/>
        <pt x="531" y="668" on="1"/>
        <pt x="602" y="616" on="0"/>
        <pt x="689" y="537" on="0"/>
        <pt x="750" y="427" on="0"/>
        <pt x="750" y="359" on="1"/>
        <pt x="750" y="327" on="0"/>
        <pt x="743" y="295" on="1"/>
        <pt x="724" y="202" on="0"/>
        <pt x="588" y="48" on="0"/>
        <pt x="481" y="10" on="1"/>
        <pt x="479" y="-49" on="0"/>
        <pt x="471" y="-85" on="1"/>
        <pt x="449" y="-193" on="0"/>
        <pt x="297" y="-303" on="0"/>
        <pt x="192" y="-303" on="1"/>
        <pt x="131" y="-303" on="0"/>
        <pt x="70" y="-286" on="1"/>
        <pt x="106" y="-161" on="1"/>
        <pt x="140" y="-166" on="0"/>
        <pt x="184" y="-166" on="1"/>
        <pt x="252" y="-166" on="0"/>
        <pt x="327" y="-109" on="0"/>
        <pt x="339" y="-49" on="1"/>
        <pt x="345" y="-16" on="1"/>
        <pt x="332" y="-17" on="0"/>
        <pt x="308" y="-17" on="1"/>
      </contour>
    </TTGlyph>
    <TTGlyph name="grave" xMin="514" yMin="756" xMax="805" yMax="1362">
      <contour>
        <pt x="514" y="1362" on="1"/>
        <pt x="788" y="1362" on="1"/>
        <pt x="805" y="756" on="1"/>
        <pt x="679" y="756" on="1"/>
      </contour>
    </TTGlyph>
    <TTGlyph name="gravecomb" xMin="441" yMin="1248" xMax="767" yMax="1643">
      <contour>
        <pt x="625" y="1248" on="1"/>
        <pt x="441" y="1643" on="1"/>
        <pt x="701" y="1643" on="1"/>
        <pt x="767" y="1248" on="1"/>
      </contour>
    </TTGlyph>
    <TTGlyph name="gravecomb.case" xMin="486" yMin="1475" xMax="812" yMax="1870">
      <contour>
        <pt x="670" y="1475" on="1"/>
        <pt x="486" y="1870" on="1"/>
        <pt x="746" y="1870" on="1"/>
        <pt x="812" y="1475" on="1"/>
      </contour>
    </TTGlyph>
    <TTGlyph name="greater" xMin="33" yMin="-68" xMax="979" yMax="1432">
      <contour>
        <pt x="802" y="671" on="1"/>
        <pt x="293" y="1231" on="1"/>
        <pt x="333" y="1432" on="1"/>
        <pt x="979" y="717" on="1"/>
        <pt x="965" y="647" on="1"/>
        <pt x="33" y="-68" on="1"/>
        <pt x="68" y="110" on="1"/>
      </contour>
    </TTGlyph>
    <TTGlyph name="h" xMin="83" yMin="0" xMax="934" yMax="1513">
      <contour>
        <pt x="386" y="1513" on="1"/>
        <pt x="442" y="1513" on="1"/>
        <pt x="295" y="779" on="1"/>
        <pt x="408" y="884" on="1"/>
        <pt x="473" y="944" on="0"/>
        <pt x="571" y="1018" on="0"/>
        <pt x="679" y="1062" on="0"/>
        <pt x="739" y="1062" on="1"/>
        <pt x="834" y="1063" on="0"/>
        <pt x="934" y="970" on="0"/>
        <pt x="934" y="880" on="1"/>
        <pt x="934" y="842" on="0"/>
        <pt x="925" y="795" on="1"/>
        <pt x="766" y="0" on="1"/>
        <pt x="710" y="0" on="1"/>
        <pt x="870" y="797" on="1"/>
        <pt x="878" y="839" on="0"/>
        <pt x="878" y="869" on="1"/>
        <pt x="878" y="1009" on="0"/>
        <pt x="728" y="1009" on="1"/>
        <pt x="675" y="1009" on="0"/>
        <pt x="576" y="968" on="0"/>
        <pt x="482" y="897" on="0"/>
        <pt x="416" y="837" on="1"/>
        <pt x="283" y="720" on="1"/>
        <pt x="139" y="0" on="1"/>
        <pt x="83" y="0" on="1"/>
      </contour>
    </TTGlyph>
    <TTGlyph name="h.sc" xMin="46" yMin="0" xMax="1045" yMax="1210">
      <contour>
        <pt x="288" y="1210" on="1"/>
        <pt x="440" y="1210" on="1"/>
        <pt x="335" y="681" on="1"/>
        <pt x="788" y="681" on="1"/>
        <pt x="893" y="1210" on="1"/>
        <pt x="1045" y="1210" on="1"/>
        <pt x="803" y="0" on="1"/>
        <pt x="651" y="0" on="1"/>
        <pt x="760" y="545" on="1"/>
        <pt x="307" y="545" on="1"/>
        <pt x="198" y="0" on="1"/>
        <pt x="46" y="0" on="1"/>
      </contour>
    </TTGlyph>
    <TTGlyph name="h.short" xMin="83" yMin="0" xMax="934" yMax="1362">
      <contour>
        <pt x="356" y="1362" on="1"/>
        <pt x="412" y="1362" on="1"/>
        <pt x="295" y="779" on="1"/>
        <pt x="408" y="884" on="1"/>
        <pt x="473" y="944" on="0"/>
        <pt x="571" y="1018" on="0"/>
        <pt x="679" y="1062" on="0"/>
        <pt x="739" y="1062" on="1"/>
        <pt x="834" y="1063" on="0"/>
        <pt x="934" y="970" on="0"/>
        <pt x="934" y="880" on="1"/>
        <pt x="934" y="842" on="0"/>
        <pt x="925" y="795" on="1"/>
        <pt x="766" y="0" on="1"/>
        <pt x="710" y="0" on="1"/>
        <pt x="870" y="797" on="1"/>
        <pt x="878" y="839" on="0"/>
        <pt x="878" y="869" on="1"/>
        <pt x="878" y="1009" on="0"/>
        <pt x="728" y="1009" on="1"/>
        <pt x="675" y="1009" on="0"/>
        <pt x="576" y="968" on="0"/>
        <pt x="482" y="897" on="0"/>
        <pt x="416" y="837" on="1"/>
        <pt x="283" y="720" on="1"/>
        <pt x="139" y="0" on="1"/>
        <pt x="83" y="0" on="1"/>
      </contour>
    </TTGlyph>
    <TTGlyph name="hbar" xMin="83" yMin="0" xMax="934" yMax="1513">
      <contour>
        <pt x="337" y="1268" on="1"/>
        <pt x="185" y="1268" on="1"/>
        <pt x="195" y="1319" on="1"/>
        <pt x="347" y="1319" on="1"/>
        <pt x="386" y="1513" on="1"/>
        <pt x="442" y="1513" on="1"/>
        <pt x="403" y="1319" on="1"/>
        <pt x="662" y="1319" on="1"/>
        <pt x="652" y="1268" on="1"/>
        <pt x="393" y="1268" on="1"/>
        <pt x="295" y="779" on="1"/>
        <pt x="408" y="884" on="1"/>
        <pt x="473" y="944" on="0"/>
        <pt x="571" y="1018" on="0"/>
        <pt x="679" y="1062" on="0"/>
        <pt x="739" y="1062" on="1"/>
        <pt x="834" y="1063" on="0"/>
        <pt x="934" y="970" on="0"/>
        <pt x="934" y="880" on="1"/>
        <pt x="934" y="842" on="0"/>
        <pt x="925" y="795" on="1"/>
        <pt x="766" y="0" on="1"/>
        <pt x="710" y="0" on="1"/>
        <pt x="870" y="797" on="1"/>
        <pt x="878" y="839" on="0"/>
        <pt x="878" y="869" on="1"/>
        <pt x="878" y="1009" on="0"/>
        <pt x="728" y="1009" on="1"/>
        <pt x="675" y="1009" on="0"/>
        <pt x="576" y="968" on="0"/>
        <pt x="482" y="897" on="0"/>
        <pt x="416" y="837" on="1"/>
        <pt x="283" y="720" on="1"/>
        <pt x="139" y="0" on="1"/>
        <pt x="83" y="0" on="1"/>
      </contour>
    </TTGlyph>
    <TTGlyph name="hbar.sc" xMin="46" yMin="0" xMax="1166" yMax="1210">
      <contour>
        <pt x="231" y="923" on="1"/>
        <pt x="80" y="923" on="1"/>
        <pt x="107" y="1059" on="1"/>
        <pt x="258" y="1059" on="1"/>
        <pt x="288" y="1210" on="1"/>
        <pt x="440" y="1210" on="1"/>
        <pt x="410" y="1059" on="1"/>
        <pt x="863" y="1059" on="1"/>
        <pt x="893" y="1210" on="1"/>
        <pt x="1045" y="1210" on="1"/>
        <pt x="1015" y="1059" on="1"/>
        <pt x="1166" y="1059" on="1"/>
        <pt x="1139" y="923" on="1"/>
        <pt x="988" y="923" on="1"/>
        <pt x="803" y="0" on="1"/>
        <pt x="651" y="0" on="1"/>
        <pt x="760" y="545" on="1"/>
        <pt x="307" y="545" on="1"/>
        <pt x="198" y="0" on="1"/>
        <pt x="46" y="0" on="1"/>
      </contour>
      <contour>
        <pt x="788" y="681" on="1"/>
        <pt x="836" y="923" on="1"/>
        <pt x="383" y="923" on="1"/>
        <pt x="335" y="681" on="1"/>
      </contour>
    </TTGlyph>
    <TTGlyph name="hcircumflex" xMin="-22" yMin="0" xMax="930" yMax="1870">
      <component glyphName="h.short" x="-105" y="0" flags="0x0"/>
      <component glyphName="uni0302.case" x="-105" y="0" flags="0x0"/>
    </TTGlyph>
    <TTGlyph name="hcircumflex.sc" xMin="-59" yMin="0" xMax="940" yMax="1805">
      <component glyphName="h.sc" x="-105" y="0" flags="0x0"/>
      <component glyphName="uni0302" x="-72" y="162" flags="0x4"/>
    </TTGlyph>
    <TTGlyph name="hyphen" xMin="174" yMin="640" xMax="941" yMax="690">
      <contour>
        <pt x="184" y="690" on="1"/>
        <pt x="941" y="690" on="1"/>
        <pt x="931" y="640" on="1"/>
        <pt x="174" y="640" on="1"/>
      </contour>
    </TTGlyph>
    <TTGlyph name="i" xMin="-72" yMin="0" xMax="617" yMax="1525">
      <component glyphName="dotlessi" x="-105" y="0" flags="0x0"/>
      <component glyphName="uni0307" x="-167" y="0" flags="0x0"/>
    </TTGlyph>
    <TTGlyph name="i.sans" xMin="7" yMin="0" xMax="394" yMax="1525">
      <component glyphName="dotlessi.sans" x="-105" y="0" flags="0x0"/>
      <component glyphName="uni0307" x="-390" y="0" flags="0x0"/>
    </TTGlyph>
    <TTGlyph name="i.sans.prop" xMin="291" yMin="0" xMax="678" yMax="1525">
      <component glyphName="dotlessi.sans.prop" x="-105" y="0" flags="0x0"/>
      <component glyphName="uni0307" x="-106" y="0" flags="0x0"/>
    </TTGlyph>
    <TTGlyph name="i.sc" xMin="46" yMin="0" xMax="893" yMax="1210">
      <contour>
        <pt x="70" y="121" on="1"/>
        <pt x="300" y="136" on="1"/>
        <pt x="488" y="1074" on="1"/>
        <pt x="264" y="1089" on="1"/>
        <pt x="288" y="1210" on="1"/>
        <pt x="893" y="1210" on="1"/>
        <pt x="869" y="1089" on="1"/>
        <pt x="639" y="1074" on="1"/>
        <pt x="451" y="136" on="1"/>
        <pt x="675" y="121" on="1"/>
        <pt x="651" y="0" on="1"/>
        <pt x="46" y="0" on="1"/>
      </contour>
    </TTGlyph>
    <TTGlyph name="iacute" xMin="-72" yMin="0" xMax="899" yMax="1643">
      <component glyphName="dotlessi" x="-105" y="0" flags="0x0"/>
      <component glyphName="acutecomb" x="-167" y="0" flags="0x0"/>
    </TTGlyph>
    <TTGlyph name="iacute.sc" xMin="-59" yMin="0" xMax="919" yMax="1805">
      <component glyphName="i.sc" x="-105" y="0" flags="0x0"/>
      <component glyphName="acutecomb" x="-147" y="162" flags="0x4"/>
    </TTGlyph>
    <TTGlyph name="ibreve" xMin="-72" yMin="0" xMax="868" yMax="1589">
      <component glyphName="dotlessi" x="-105" y="0" flags="0x0"/>
      <component glyphName="uni0306" x="-167" y="0" flags="0x0"/>
    </TTGlyph>
    <TTGlyph name="ibreve.sc" xMin="-59" yMin="0" xMax="888" yMax="1751">
      <component glyphName="i.sc" x="-105" y="0" flags="0x0"/>
      <component glyphName="uni0306" x="-147" y="162" flags="0x4"/>
    </TTGlyph>
    <TTGlyph name="icircumflex" xMin="-72" yMin="0" xMax="823" yMax="1643">
      <component glyphName="dotlessi" x="-105" y="0" flags="0x0"/>
      <component glyphName="uni0302" x="-167" y="0" flags="0x0"/>
    </TTGlyph>
    <TTGlyph name="icircumflex.sc" xMin="-59" yMin="0" xMax="843" yMax="1805">
      <component glyphName="i.sc" x="-105" y="0" flags="0x0"/>
      <component glyphName="uni0302" x="-147" y="162" flags="0x4"/>
    </TTGlyph>
    <TTGlyph name="idieresis" xMin="-72" yMin="0" xMax="799" yMax="1519">
      <component glyphName="dotlessi" x="-105" y="0" flags="0x0"/>
      <component glyphName="uni0308" x="-167" y="0" flags="0x0"/>
    </TTGlyph>
    <TTGlyph name="idieresis.sc" xMin="-59" yMin="0" xMax="819" yMax="1681">
      <component glyphName="i.sc" x="-105" y="0" flags="0x0"/>
      <component glyphName="uni0308" x="-147" y="162" flags="0x4"/>
    </TTGlyph>
    <TTGlyph name="igrave" xMin="-72" yMin="0" xMax="600" yMax="1643">
      <component glyphName="dotlessi" x="-105" y="0" flags="0x0"/>
      <component glyphName="gravecomb" x="-167" y="0" flags="0x0"/>
    </TTGlyph>
    <TTGlyph name="igrave.sc" xMin="-59" yMin="0" xMax="788" yMax="1805">
      <component glyphName="i.sc" x="-105" y="0" flags="0x0"/>
      <component glyphName="gravecomb" x="-147" y="162" flags="0x4"/>
    </TTGlyph>
    <TTGlyph name="ij.sc" xMin="-59" yMin="-23" xMax="1712" yMax="1210">
      <component glyphName="i.sc" x="-105" y="0" flags="0x0"/>
      <component glyphName="j.sc" x="803" y="0" flags="0x0"/>
    </TTGlyph>
    <TTGlyph name="imacron" xMin="-72" yMin="0" xMax="814" yMax="1498">
      <component glyphName="dotlessi" x="-105" y="0" flags="0x0"/>
      <component glyphName="uni0304" x="-167" y="0" flags="0x0"/>
    </TTGlyph>
    <TTGlyph name="imacron.sc" xMin="-59" yMin="0" xMax="834" yMax="1660">
      <component glyphName="i.sc" x="-105" y="0" flags="0x0"/>
      <component glyphName="uni0304" x="-147" y="162" flags="0x4"/>
    </TTGlyph>
    <TTGlyph name="iogonek" xMin="33" yMin="-303" xMax="722" yMax="1525">
      <contour>
        <pt x="667" y="-1" on="1"/>
        <pt x="576" y="-24" on="0"/>
        <pt x="459" y="-111" on="0"/>
        <pt x="447" y="-169" on="1"/>
        <pt x="445" y="-185" on="0"/>
        <pt x="445" y="-191" on="1"/>
        <pt x="445" y="-251" on="0"/>
        <pt x="519" y="-251" on="1"/>
        <pt x="555" y="-251" on="0"/>
        <pt x="600" y="-234" on="1"/>
        <pt x="602" y="-283" on="1"/>
        <pt x="547" y="-303" on="0"/>
        <pt x="503" y="-303" on="1"/>
        <pt x="446" y="-303" on="0"/>
        <pt x="384" y="-253" on="0"/>
        <pt x="384" y="-207" on="1"/>
        <pt x="384" y="-189" on="0"/>
        <pt x="386" y="-180" on="1"/>
        <pt x="412" y="-61" on="0"/>
        <pt x="589" y="1" on="1"/>
        <pt x="33" y="0" on="1"/>
        <pt x="42" y="43" on="1"/>
        <pt x="330" y="50" on="1"/>
        <pt x="521" y="1001" on="1"/>
        <pt x="253" y="1001" on="1"/>
        <pt x="261" y="1044" on="1"/>
        <pt x="561" y="1051" on="1"/>
        <pt x="588" y="1051" on="1"/>
        <pt x="387" y="50" on="1"/>
        <pt x="674" y="43" on="1"/>
      </contour>
      <contour>
        <pt x="619" y="1392" on="0"/>
        <pt x="587" y="1422" on="0"/>
        <pt x="587" y="1446" on="1"/>
        <pt x="587" y="1455" on="0"/>
        <pt x="588" y="1460" on="1"/>
        <pt x="594" y="1488" on="0"/>
        <pt x="637" y="1524" on="0"/>
        <pt x="666" y="1525" on="1"/>
        <pt x="691" y="1524" on="0"/>
        <pt x="722" y="1494" on="0"/>
        <pt x="722" y="1471" on="1"/>
        <pt x="722" y="1437" on="0"/>
        <pt x="676" y="1392" on="0"/>
        <pt x="643" y="1392" on="1"/>
      </contour>
    </TTGlyph>
    <TTGlyph name="iogonek.sc" xMin="46" yMin="-303" xMax="893" yMax="1210">
      <contour>
        <pt x="70" y="121" on="1"/>
        <pt x="300" y="136" on="1"/>
        <pt x="488" y="1074" on="1"/>
        <pt x="264" y="1089" on="1"/>
        <pt x="288" y="1210" on="1"/>
        <pt x="893" y="1210" on="1"/>
        <pt x="869" y="1089" on="1"/>
        <pt x="639" y="1074" on="1"/>
        <pt x="451" y="136" on="1"/>
        <pt x="675" y="121" on="1"/>
        <pt x="653" y="-1" on="1"/>
        <pt x="562" y="-24" on="0"/>
        <pt x="445" y="-111" on="0"/>
        <pt x="433" y="-169" on="1"/>
        <pt x="431" y="-185" on="0"/>
        <pt x="431" y="-191" on="1"/>
        <pt x="431" y="-251" on="0"/>
        <pt x="505" y="-251" on="1"/>
        <pt x="541" y="-251" on="0"/>
        <pt x="586" y="-234" on="1"/>
        <pt x="588" y="-283" on="1"/>
        <pt x="533" y="-303" on="0"/>
        <pt x="489" y="-303" on="1"/>
        <pt x="432" y="-303" on="0"/>
        <pt x="370" y="-253" on="0"/>
        <pt x="370" y="-207" on="1"/>
        <pt x="370" y="-189" on="0"/>
        <pt x="372" y="-180" on="1"/>
        <pt x="398" y="-61" on="0"/>
        <pt x="575" y="1" on="1"/>
        <pt x="46" y="0" on="1"/>
      </contour>
    </TTGlyph>
    <TTGlyph name="itilde" xMin="-72" yMin="0" xMax="894" yMax="1562">
      <component glyphName="dotlessi" x="-105" y="0" flags="0x0"/>
      <component glyphName="tildecomb" x="-167" y="0" flags="0x0"/>
    </TTGlyph>
    <TTGlyph name="itilde.sc" xMin="-59" yMin="0" xMax="914" yMax="1724">
      <component glyphName="i.sc" x="-105" y="0" flags="0x0"/>
      <component glyphName="tildecomb" x="-147" y="162" flags="0x4"/>
    </TTGlyph>
    <TTGlyph name="j" xMin="-171" yMin="-303" xMax="583" yMax="1525">
      <component glyphName="uni0237" x="-105" y="0" flags="0x0"/>
      <component glyphName="uni0307" x="-201" y="0" flags="0x0"/>
    </TTGlyph>
    <TTGlyph name="j.sans" xMin="-171" yMin="-303" xMax="583" yMax="1525">
      <component glyphName="uni0237" x="-105" y="0" flags="0x0"/>
      <component glyphName="uni0307" x="-201" y="0" flags="0x0"/>
    </TTGlyph>
    <TTGlyph name="j.sans.prop" xMin="-171" yMin="-303" xMax="583" yMax="1525">
      <component glyphName="uni0237" x="-105" y="0" flags="0x0"/>
      <component glyphName="uni0307" x="-201" y="0" flags="0x0"/>
    </TTGlyph>
    <TTGlyph name="j.sc" xMin="-14" yMin="-23" xMax="909" yMax="1210">
      <contour>
        <pt x="192" y="-23" on="0"/>
        <pt x="42" y="85" on="0"/>
        <pt x="-14" y="191" on="1"/>
        <pt x="103" y="270" on="1"/>
        <pt x="148" y="192" on="0"/>
        <pt x="250" y="113" on="0"/>
        <pt x="323" y="113" on="1"/>
        <pt x="424" y="113" on="0"/>
        <pt x="565" y="248" on="0"/>
        <pt x="591" y="376" on="1"/>
        <pt x="730" y="1074" on="1"/>
        <pt x="307" y="1074" on="1"/>
        <pt x="334" y="1210" on="1"/>
        <pt x="909" y="1210" on="1"/>
        <pt x="744" y="382" on="1"/>
        <pt x="719" y="257" on="0"/>
        <pt x="593" y="74" on="0"/>
        <pt x="412" y="-23" on="0"/>
        <pt x="305" y="-23" on="1"/>
      </contour>
    </TTGlyph>
    <TTGlyph name="jcircumflex" xMin="-171" yMin="-303" xMax="789" yMax="1643">
      <component glyphName="uni0237" x="-105" y="0" flags="0x0"/>
      <component glyphName="uni0302" x="-201" y="0" flags="0x0"/>
    </TTGlyph>
    <TTGlyph name="jcircumflex.sc" xMin="-119" yMin="-23" xMax="873" yMax="1805">
      <component glyphName="j.sc" x="-105" y="0" flags="0x0"/>
      <component glyphName="uni0302" x="-117" y="162" flags="0x4"/>
    </TTGlyph>
    <TTGlyph name="k" xMin="83" yMin="0" xMax="929" yMax="1513">
      <contour>
        <pt x="83" y="0" on="1"/>
        <pt x="386" y="1513" on="1"/>
        <pt x="442" y="1513" on="1"/>
        <pt x="252" y="564" on="1"/>
        <pt x="257" y="564" on="1"/>
        <pt x="861" y="1047" on="1"/>
        <pt x="929" y="1047" on="1"/>
        <pt x="297" y="549" on="1"/>
        <pt x="747" y="0" on="1"/>
        <pt x="672" y="0" on="1"/>
        <pt x="245" y="527" on="1"/>
        <pt x="139" y="0" on="1"/>
      </contour>
    </TTGlyph>
    <TTGlyph name="k.sc" xMin="46" yMin="0" xMax="1031" yMax="1210">
      <contour>
        <pt x="46" y="0" on="1"/>
        <pt x="288" y="1210" on="1"/>
        <pt x="440" y="1210" on="1"/>
        <pt x="330" y="659" on="1"/>
        <pt x="857" y="1210" on="1"/>
        <pt x="1031" y="1210" on="1"/>
        <pt x="462" y="630" on="1"/>
        <pt x="820" y="0" on="1"/>
        <pt x="631" y="0" on="1"/>
        <pt x="314" y="581" on="1"/>
        <pt x="198" y="0" on="1"/>
      </contour>
    </TTGlyph>
    <TTGlyph name="l" xMin="33" yMin="0" xMax="681" yMax="1517">
      <contour>
        <pt x="42" y="43" on="1"/>
        <pt x="330" y="50" on="1"/>
        <pt x="614" y="1467" on="1"/>
        <pt x="346" y="1467" on="1"/>
        <pt x="354" y="1510" on="1"/>
        <pt x="653" y="1517" on="1"/>
        <pt x="681" y="1517" on="1"/>
        <pt x="387" y="50" on="1"/>
        <pt x="674" y="43" on="1"/>
        <pt x="665" y="0" on="1"/>
        <pt x="33" y="0" on="1"/>
      </contour>
    </TTGlyph>
    <TTGlyph name="l.sans" xMin="112" yMin="0" xMax="472" yMax="1513">
      <contour>
        <pt x="415" y="1513" on="1"/>
        <pt x="472" y="1513" on="1"/>
        <pt x="169" y="0" on="1"/>
        <pt x="112" y="0" on="1"/>
      </contour>
    </TTGlyph>
    <TTGlyph name="l.sans.prop" xMin="396" yMin="0" xMax="756" yMax="1513">
      <contour>
        <pt x="699" y="1513" on="1"/>
        <pt x="756" y="1513" on="1"/>
        <pt x="453" y="0" on="1"/>
        <pt x="396" y="0" on="1"/>
      </contour>
    </TTGlyph>
    <TTGlyph name="l.sc" xMin="46" yMin="0" xMax="754" yMax="1210">
      <contour>
        <pt x="288" y="1210" on="1"/>
        <pt x="440" y="1210" on="1"/>
        <pt x="225" y="136" on="1"/>
        <pt x="754" y="136" on="1"/>
        <pt x="727" y="0" on="1"/>
        <pt x="46" y="0" on="1"/>
      </contour>
    </TTGlyph>
    <TTGlyph name="lacute" xMin="-72" yMin="0" xMax="974" yMax="2021">
      <component glyphName="l" x="-105" y="0" flags="0x0"/>
      <component glyphName="acutecomb.case" x="-137" y="151" flags="0x4"/>
    </TTGlyph>
    <TTGlyph name="lacute.sc" xMin="-59" yMin="0" xMax="711" yMax="1805">
      <component glyphName="l.sc" x="-105" y="0" flags="0x0"/>
      <component glyphName="acutecomb" x="-355" y="162" flags="0x4"/>
    </TTGlyph>
    <TTGlyph name="lcaron.sc" xMin="-59" yMin="0" xMax="649" yMax="1210">
      <component glyphName="l.sc" x="-105" y="0" flags="0x0"/>
    </TTGlyph>
    <TTGlyph name="less" xMin="143" yMin="-70" xMax="1089" yMax="1430">
      <contour>
        <pt x="320" y="692" on="1"/>
        <pt x="829" y="131" on="1"/>
        <pt x="789" y="-70" on="1"/>
        <pt x="143" y="645" on="1"/>
        <pt x="157" y="715" on="1"/>
        <pt x="1089" y="1430" on="1"/>
        <pt x="1054" y="1252" on="1"/>
      </contour>
    </TTGlyph>
    <TTGlyph name="lslash.sc" xMin="-59" yMin="0" xMax="649" yMax="1210">
      <component glyphName="l.sc" x="-105" y="0" flags="0x0"/>
    </TTGlyph>
    <TTGlyph name="m" xMin="83" yMin="0" xMax="1247" yMax="1062">
      <contour>
        <pt x="293" y="1047" on="1"/>
        <pt x="349" y="1047" on="1"/>
        <pt x="298" y="792" on="1"/>
        <pt x="398" y="912" on="1"/>
        <pt x="463" y="988" on="0"/>
        <pt x="585" y="1062" on="0"/>
        <pt x="650" y="1062" on="1"/>
        <pt x="716" y="1062" on="0"/>
        <pt x="782" y="989" on="0"/>
        <pt x="782" y="920" on="1"/>
        <pt x="782" y="890" on="0"/>
        <pt x="774" y="847" on="1"/>
        <pt x="763" y="792" on="1"/>
        <pt x="863" y="912" on="1"/>
        <pt x="928" y="988" on="0"/>
        <pt x="1050" y="1062" on="0"/>
        <pt x="1115" y="1062" on="1"/>
        <pt x="1180" y="1062" on="0"/>
        <pt x="1247" y="988" on="0"/>
        <pt x="1247" y="919" on="1"/>
        <pt x="1247" y="889" on="0"/>
        <pt x="1239" y="847" on="1"/>
        <pt x="1069" y="0" on="1"/>
        <pt x="1012" y="0" on="1"/>
        <pt x="1182" y="849" on="1"/>
        <pt x="1189" y="880" on="0"/>
        <pt x="1189" y="909" on="1"/>
        <pt x="1189" y="1010" on="0"/>
        <pt x="1092" y="1011" on="1"/>
        <pt x="1040" y="1010" on="0"/>
        <pt x="929" y="933" on="0"/>
        <pt x="866" y="858" on="1"/>
        <pt x="749" y="723" on="1"/>
        <pt x="604" y="0" on="1"/>
        <pt x="547" y="0" on="1"/>
        <pt x="717" y="849" on="1"/>
        <pt x="724" y="888" on="0"/>
        <pt x="724" y="909" on="1"/>
        <pt x="724" y="1010" on="0"/>
        <pt x="628" y="1011" on="1"/>
        <pt x="575" y="1010" on="0"/>
        <pt x="464" y="933" on="0"/>
        <pt x="401" y="858" on="1"/>
        <pt x="284" y="723" on="1"/>
        <pt x="139" y="0" on="1"/>
        <pt x="83" y="0" on="1"/>
      </contour>
    </TTGlyph>
    <TTGlyph name="m.sc" xMin="31" yMin="0" xMax="1268" yMax="1210">
      <contour>
        <pt x="622" y="199" on="1"/>
        <pt x="1054" y="1210" on="1"/>
        <pt x="1268" y="1210" on="1"/>
        <pt x="1120" y="0" on="1"/>
        <pt x="977" y="0" on="1"/>
        <pt x="1098" y="995" on="1"/>
        <pt x="672" y="0" on="1"/>
        <pt x="479" y="0" on="1"/>
        <pt x="451" y="994" on="1"/>
        <pt x="175" y="0" on="1"/>
        <pt x="31" y="0" on="1"/>
        <pt x="368" y="1210" on="1"/>
        <pt x="593" y="1210" on="1"/>
      </contour>
    </TTGlyph>
    <TTGlyph name="macron" xMin="352" yMin="1441" xMax="876" yMax="1498">
      <component glyphName="uni0304" x="-105" y="0" flags="0x0"/>
    </TTGlyph>
    <TTGlyph name="minus" xMin="64" yMin="655" xMax="1058" yMax="706">
      <contour>
        <pt x="75" y="706" on="1"/>
        <pt x="1058" y="706" on="1"/>
        <pt x="1047" y="655" on="1"/>
        <pt x="64" y="655" on="1"/>
      </contour>
    </TTGlyph>
    <TTGlyph name="multiply" xMin="92" yMin="283" xMax="1030" yMax="1079">
      <contour>
        <pt x="92" y="322" on="1"/>
        <pt x="522" y="681" on="1"/>
        <pt x="235" y="1039" on="1"/>
        <pt x="282" y="1079" on="1"/>
        <pt x="569" y="720" on="1"/>
        <pt x="999" y="1079" on="1"/>
        <pt x="1030" y="1039" on="1"/>
        <pt x="600" y="681" on="1"/>
        <pt x="887" y="322" on="1"/>
        <pt x="840" y="283" on="1"/>
        <pt x="553" y="642" on="1"/>
        <pt x="123" y="283" on="1"/>
      </contour>
    </TTGlyph>
    <TTGlyph name="n" xMin="83" yMin="0" xMax="934" yMax="1063">
      <contour>
        <pt x="293" y="1047" on="1"/>
        <pt x="349" y="1047" on="1"/>
        <pt x="295" y="779" on="1"/>
        <pt x="408" y="884" on="1"/>
        <pt x="473" y="943" on="0"/>
        <pt x="571" y="1017" on="0"/>
        <pt x="679" y="1062" on="0"/>
        <pt x="739" y="1062" on="1"/>
        <pt x="834" y="1063" on="0"/>
        <pt x="934" y="970" on="0"/>
        <pt x="934" y="880" on="1"/>
        <pt x="934" y="842" on="0"/>
        <pt x="925" y="795" on="1"/>
        <pt x="766" y="0" on="1"/>
        <pt x="710" y="0" on="1"/>
        <pt x="870" y="797" on="1"/>
        <pt x="878" y="839" on="0"/>
        <pt x="878" y="869" on="1"/>
        <pt x="878" y="1009" on="0"/>
        <pt x="728" y="1009" on="1"/>
        <pt x="675" y="1009" on="0"/>
        <pt x="576" y="968" on="0"/>
        <pt x="482" y="897" on="0"/>
        <pt x="416" y="837" on="1"/>
        <pt x="283" y="720" on="1"/>
        <pt x="139" y="0" on="1"/>
        <pt x="83" y="0" on="1"/>
      </contour>
    </TTGlyph>
    <TTGlyph name="n.sc" xMin="46" yMin="0" xMax="1045" yMax="1210">
      <contour>
        <pt x="288" y="1210" on="1"/>
        <pt x="449" y="1210" on="1"/>
        <pt x="732" y="342" on="1"/>
        <pt x="905" y="1210" on="1"/>
        <pt x="1045" y="1210" on="1"/>
        <pt x="803" y="0" on="1"/>
        <pt x="670" y="0" on="1"/>
        <pt x="372" y="927" on="1"/>
        <pt x="186" y="0" on="1"/>
        <pt x="46" y="0" on="1"/>
      </contour>
    </TTGlyph>
    <TTGlyph name="nacute" xMin="-22" yMin="0" xMax="961" yMax="1643">
      <component glyphName="n" x="-105" y="0" flags="0x0"/>
      <component glyphName="acutecomb" x="-105" y="0" flags="0x0"/>
    </TTGlyph>
    <TTGlyph name="nacute.sc" xMin="-59" yMin="0" xMax="994" yMax="1805">
      <component glyphName="n.sc" x="-105" y="0" flags="0x0"/>
      <component glyphName="acutecomb" x="-72" y="162" flags="0x4"/>
    </TTGlyph>
    <TTGlyph name="ncaron" xMin="-22" yMin="0" xMax="964" yMax="1643">
      <component glyphName="n" x="-105" y="0" flags="0x0"/>
      <component glyphName="uni030C" x="-105" y="0" flags="0x0"/>
    </TTGlyph>
    <TTGlyph name="ncaron.sc" xMin="-59" yMin="0" xMax="997" yMax="1805">
      <component glyphName="n.sc" x="-105" y="0" flags="0x0"/>
      <component glyphName="uni030C" x="-72" y="162" flags="0x4"/>
    </TTGlyph>
    <TTGlyph name="nine" xMin="89" yMin="-314" xMax="967" yMax="1227">
      <contour>
        <pt x="265" y="-144" on="0"/>
        <pt x="508" y="-1" on="0"/>
        <pt x="682" y="242" on="0"/>
        <pt x="738" y="433" on="1"/>
        <pt x="664" y="373" on="0"/>
        <pt x="509" y="306" on="0"/>
        <pt x="423" y="306" on="1"/>
        <pt x="344" y="306" on="0"/>
        <pt x="212" y="375" on="0"/>
        <pt x="131" y="520" on="0"/>
        <pt x="131" y="628" on="1"/>
        <pt x="131" y="693" on="0"/>
        <pt x="145" y="760" on="1"/>
        <pt x="172" y="894" on="0"/>
        <pt x="316" y="1106" on="0"/>
        <pt x="525" y="1227" on="0"/>
        <pt x="644" y="1227" on="1"/>
        <pt x="802" y="1227" on="0"/>
        <pt x="967" y="1025" on="0"/>
        <pt x="967" y="829" on="1"/>
        <pt x="967" y="710" on="0"/>
        <pt x="938" y="569" on="1"/>
        <pt x="886" y="310" on="0"/>
        <pt x="673" y="-50" on="0"/>
        <pt x="335" y="-268" on="0"/>
        <pt x="95" y="-314" on="1"/>
        <pt x="89" y="-190" on="1"/>
      </contour>
      <contour>
        <pt x="299" y="693" on="0"/>
        <pt x="299" y="645" on="1"/>
        <pt x="299" y="545" on="0"/>
        <pt x="394" y="443" on="0"/>
        <pt x="479" y="443" on="1"/>
        <pt x="610" y="443" on="0"/>
        <pt x="774" y="589" on="1"/>
        <pt x="778" y="605" on="1"/>
        <pt x="803" y="730" on="0"/>
        <pt x="803" y="828" on="1"/>
        <pt x="803" y="958" on="0"/>
        <pt x="710" y="1091" on="0"/>
        <pt x="620" y="1091" on="1"/>
        <pt x="546" y="1091" on="0"/>
        <pt x="419" y="1005" on="0"/>
        <pt x="330" y="852" on="0"/>
        <pt x="311" y="753" on="1"/>
      </contour>
    </TTGlyph>
    <TTGlyph name="ntilde" xMin="-22" yMin="0" xMax="956" yMax="1562">
      <component glyphName="n" x="-105" y="0" flags="0x0"/>
      <component glyphName="tildecomb" x="-105" y="0" flags="0x0"/>
    </TTGlyph>
    <TTGlyph name="ntilde.sc" xMin="-59" yMin="0" xMax="989" yMax="1724">
      <component glyphName="n.sc" x="-105" y="0" flags="0x0"/>
      <component glyphName="tildecomb" x="-72" y="162" flags="0x4"/>
    </TTGlyph>
    <TTGlyph name="numbersign" xMin="49" yMin="-38" xMax="1077" yMax="1399">
      <contour>
        <pt x="242" y="390" on="1"/>
        <pt x="49" y="390" on="1"/>
        <pt x="76" y="522" on="1"/>
        <pt x="269" y="522" on="1"/>
        <pt x="337" y="862" on="1"/>
        <pt x="144" y="862" on="1"/>
        <pt x="170" y="995" on="1"/>
        <pt x="363" y="995" on="1"/>
        <pt x="444" y="1399" on="1"/>
        <pt x="587" y="1399" on="1"/>
        <pt x="506" y="995" on="1"/>
        <pt x="741" y="995" on="1"/>
        <pt x="822" y="1399" on="1"/>
        <pt x="965" y="1399" on="1"/>
        <pt x="884" y="995" on="1"/>
        <pt x="1077" y="995" on="1"/>
        <pt x="1051" y="862" on="1"/>
        <pt x="858" y="862" on="1"/>
        <pt x="790" y="522" on="1"/>
        <pt x="983" y="522" on="1"/>
        <pt x="956" y="390" on="1"/>
        <pt x="763" y="390" on="1"/>
        <pt x="678" y="-38" on="1"/>
        <pt x="535" y="-38" on="1"/>
        <pt x="620" y="390" on="1"/>
        <pt x="385" y="390" on="1"/>
        <pt x="300" y="-38" on="1"/>
        <pt x="157" y="-38" on="1"/>
      </contour>
      <contour>
        <pt x="647" y="522" on="1"/>
        <pt x="715" y="862" on="1"/>
        <pt x="480" y="862" on="1"/>
        <pt x="412" y="522" on="1"/>
      </contour>
    </TTGlyph>
    <TTGlyph name="o" xMin="118" yMin="-19" xMax="941" yMax="1067">
      <contour>
        <pt x="275" y="-19" on="0"/>
        <pt x="118" y="173" on="0"/>
        <pt x="118" y="343" on="1"/>
        <pt x="118" y="425" on="0"/>
        <pt x="138" y="525" on="1"/>
        <pt x="170" y="682" on="0"/>
        <pt x="312" y="928" on="0"/>
        <pt x="515" y="1066" on="0"/>
        <pt x="636" y="1066" on="1"/>
        <pt x="790" y="1067" on="0"/>
        <pt x="941" y="876" on="0"/>
        <pt x="941" y="710" on="1"/>
        <pt x="941" y="622" on="0"/>
        <pt x="920" y="521" on="1"/>
        <pt x="889" y="365" on="0"/>
        <pt x="740" y="119" on="0"/>
        <pt x="534" y="-19" on="0"/>
        <pt x="422" y="-19" on="1"/>
      </contour>
      <contour>
        <pt x="527" y="31" on="0"/>
        <pt x="704" y="153" on="0"/>
        <pt x="833" y="378" on="0"/>
        <pt x="862" y="525" on="1"/>
        <pt x="883" y="627" on="0"/>
        <pt x="883" y="712" on="1"/>
        <pt x="883" y="856" on="0"/>
        <pt x="758" y="1015" on="0"/>
        <pt x="629" y="1016" on="1"/>
        <pt x="523" y="1016" on="0"/>
        <pt x="349" y="893" on="0"/>
        <pt x="226" y="670" on="0"/>
        <pt x="196" y="521" on="1"/>
        <pt x="177" y="426" on="0"/>
        <pt x="177" y="343" on="1"/>
        <pt x="177" y="193" on="0"/>
        <pt x="306" y="30" on="0"/>
        <pt x="429" y="31" on="1"/>
      </contour>
    </TTGlyph>
    <TTGlyph name="o.sc" xMin="91" yMin="-19" xMax="1002" yMax="1229">
      <contour>
        <pt x="91" y="-19" on="0"/>
        <pt x="91" y="355" on="1"/>
        <pt x="91" y="467" on="0"/>
        <pt x="119" y="607" on="1"/>
        <pt x="180" y="914" on="0"/>
        <pt x="460" y="1229" on="0"/>
        <pt x="668" y="1229" on="1"/>
        <pt x="839" y="1229" on="0"/>
        <pt x="1002" y="1043" on="0"/>
        <pt x="1002" y="860" on="1"/>
        <pt x="1002" y="750" on="0"/>
        <pt x="973" y="603" on="1"/>
        <pt x="932" y="399" on="0"/>
        <pt x="771" y="120" on="0"/>
        <pt x="552" y="-19" on="0"/>
        <pt x="422" y="-19" on="1"/>
      </contour>
      <contour>
        <pt x="580" y="113" on="0"/>
        <pt x="762" y="343" on="0"/>
        <pt x="815" y="607" on="1"/>
        <pt x="846" y="758" on="0"/>
        <pt x="846" y="860" on="1"/>
        <pt x="846" y="985" on="0"/>
        <pt x="748" y="1097" on="0"/>
        <pt x="646" y="1097" on="1"/>
        <pt x="551" y="1097" on="0"/>
        <pt x="414" y="1002" on="0"/>
        <pt x="313" y="785" on="0"/>
        <pt x="277" y="603" on="1"/>
        <pt x="249" y="462" on="0"/>
        <pt x="249" y="363" on="1"/>
        <pt x="249" y="231" on="0"/>
        <pt x="348" y="113" on="0"/>
        <pt x="445" y="113" on="1"/>
      </contour>
    </TTGlyph>
    <TTGlyph name="oacute" xMin="13" yMin="-19" xMax="961" yMax="1643">
      <component glyphName="o" x="-105" y="0" flags="0x0"/>
      <component glyphName="acutecomb" x="-105" y="0" flags="0x0"/>
    </TTGlyph>
    <TTGlyph name="oacute.sc" xMin="-14" yMin="-19" xMax="994" yMax="1805">
      <component glyphName="o.sc" x="-105" y="0" flags="0x0"/>
      <component glyphName="acutecomb" x="-72" y="162" flags="0x4"/>
    </TTGlyph>
    <TTGlyph name="obreve" xMin="13" yMin="-19" xMax="930" yMax="1589">
      <component glyphName="o" x="-105" y="0" flags="0x0"/>
      <component glyphName="uni0306" x="-105" y="0" flags="0x0"/>
    </TTGlyph>
    <TTGlyph name="obreve.sc" xMin="-14" yMin="-19" xMax="963" yMax="1751">
      <component glyphName="o.sc" x="-105" y="0" flags="0x0"/>
      <component glyphName="uni0306" x="-72" y="162" flags="0x4"/>
    </TTGlyph>
    <TTGlyph name="ocircumflex" xMin="13" yMin="-19" xMax="885" yMax="1643">
      <component glyphName="o" x="-105" y="0" flags="0x0"/>
      <component glyphName="uni0302" x="-105" y="0" flags="0x0"/>
    </TTGlyph>
    <TTGlyph name="ocircumflex.sc" xMin="-14" yMin="-19" xMax="918" yMax="1805">
      <component glyphName="o.sc" x="-105" y="0" flags="0x0"/>
      <component glyphName="uni0302" x="-72" y="162" flags="0x4"/>
    </TTGlyph>
    <TTGlyph name="odieresis" xMin="13" yMin="-19" xMax="861" yMax="1519">
      <component glyphName="o" x="-105" y="0" flags="0x0"/>
      <component glyphName="uni0308" x="-105" y="0" flags="0x0"/>
    </TTGlyph>
    <TTGlyph name="odieresis.sc" xMin="-14" yMin="-19" xMax="897" yMax="1681">
      <component glyphName="o.sc" x="-105" y="0" flags="0x0"/>
      <component glyphName="uni0308" x="-72" y="162" flags="0x4"/>
    </TTGlyph>
    <TTGlyph name="ogonek" xMin="171" yMin="-303" xMax="454" yMax="22">
      <component glyphName="uni0328" x="-105" y="0" flags="0x0"/>
    </TTGlyph>
    <TTGlyph name="ograve" xMin="13" yMin="-19" xMax="836" yMax="1643">
      <component glyphName="o" x="-105" y="0" flags="0x0"/>
      <component glyphName="gravecomb" x="-105" y="0" flags="0x0"/>
    </TTGlyph>
    <TTGlyph name="ograve.sc" xMin="-14" yMin="-19" xMax="897" yMax="1805">
      <component glyphName="o.sc" x="-105" y="0" flags="0x0"/>
      <component glyphName="gravecomb" x="-72" y="162" flags="0x4"/>
    </TTGlyph>
    <TTGlyph name="ohungarumlaut.sc" xMin="-14" yMin="-19" xMax="897" yMax="1229">
      <component glyphName="o.sc" x="-105" y="0" flags="0x0"/>
    </TTGlyph>
    <TTGlyph name="omacron" xMin="13" yMin="-19" xMax="876" yMax="1498">
      <component glyphName="o" x="-105" y="0" flags="0x0"/>
      <component glyphName="uni0304" x="-105" y="0" flags="0x0"/>
    </TTGlyph>
    <TTGlyph name="omacron.sc" xMin="-14" yMin="-19" xMax="909" yMax="1660">
      <component glyphName="o.sc" x="-105" y="0" flags="0x0"/>
      <component glyphName="uni0304" x="-72" y="162" flags="0x4"/>
    </TTGlyph>
    <TTGlyph name="one" xMin="100" yMin="0" xMax="803" yMax="1233">
      <contour>
        <pt x="109" y="43" on="1"/>
        <pt x="429" y="50" on="1"/>
        <pt x="654" y="1173" on="1"/>
        <pt x="284" y="1066" on="1"/>
        <pt x="281" y="1115" on="1"/>
        <pt x="688" y="1233" on="1"/>
        <pt x="723" y="1233" on="1"/>
        <pt x="486" y="50" on="1"/>
        <pt x="803" y="43" on="1"/>
        <pt x="794" y="0" on="1"/>
        <pt x="100" y="0" on="1"/>
      </contour>
    </TTGlyph>
    <TTGlyph name="oslash.sc" xMin="-14" yMin="-19" xMax="897" yMax="1229">
      <component glyphName="o.sc" x="-105" y="0" flags="0x0"/>
    </TTGlyph>
    <TTGlyph name="otilde" xMin="13" yMin="-19" xMax="956" yMax="1562">
      <component glyphName="o" x="-105" y="0" flags="0x0"/>
      <component glyphName="tildecomb" x="-105" y="0" flags="0x0"/>
    </TTGlyph>
    <TTGlyph name="otilde.sc" xMin="-14" yMin="-19" xMax="989" yMax="1724">
      <component glyphName="o.sc" x="-105" y="0" flags="0x0"/>
      <component glyphName="tildecomb" x="-72" y="162" flags="0x4"/>
    </TTGlyph>
    <TTGlyph name="p" xMin="23" yMin="-303" xMax="956" yMax="1063">
      <contour>
        <pt x="293" y="1047" on="1"/>
        <pt x="349" y="1047" on="1"/>
        <pt x="295" y="777" on="1"/>
        <pt x="403" y="886" on="1"/>
        <pt x="488" y="970" on="0"/>
        <pt x="649" y="1063" on="0"/>
        <pt x="734" y="1062" on="1"/>
        <pt x="844" y="1063" on="0"/>
        <pt x="956" y="920" on="0"/>
        <pt x="956" y="784" on="1"/>
        <pt x="956" y="698" on="0"/>
        <pt x="936" y="601" on="1"/>
        <pt x="896" y="402" on="0"/>
        <pt x="726" y="121" on="0"/>
        <pt x="501" y="-21" on="0"/>
        <pt x="379" y="-21" on="1"/>
        <pt x="270" y="-21" on="0"/>
        <pt x="145" y="20" on="1"/>
        <pt x="79" y="-303" on="1"/>
        <pt x="23" y="-303" on="1"/>
      </contour>
      <contour>
        <pt x="487" y="28" on="0"/>
        <pt x="687" y="157" on="0"/>
        <pt x="839" y="415" on="0"/>
        <pt x="877" y="601" on="1"/>
        <pt x="897" y="707" on="0"/>
        <pt x="897" y="781" on="1"/>
        <pt x="897" y="897" on="0"/>
        <pt x="808" y="1010" on="0"/>
        <pt x="718" y="1011" on="1"/>
        <pt x="643" y="1010" on="0"/>
        <pt x="498" y="922" on="0"/>
        <pt x="411" y="837" on="1"/>
        <pt x="282" y="714" on="1"/>
        <pt x="151" y="67" on="1"/>
        <pt x="198" y="49" on="0"/>
        <pt x="316" y="28" on="0"/>
        <pt x="375" y="28" on="1"/>
      </contour>
    </TTGlyph>
    <TTGlyph name="p.sc" xMin="46" yMin="0" xMax="967" yMax="1210">
      <contour>
        <pt x="288" y="1210" on="1"/>
        <pt x="593" y="1210" on="1"/>
        <pt x="779" y="1210" on="0"/>
        <pt x="967" y="1052" on="0"/>
        <pt x="967" y="908" on="1"/>
        <pt x="967" y="862" on="0"/>
        <pt x="956" y="804" on="1"/>
        <pt x="932" y="681" on="0"/>
        <pt x="793" y="496" on="0"/>
        <pt x="565" y="393" on="0"/>
        <pt x="413" y="393" on="1"/>
        <pt x="341" y="393" on="0"/>
        <pt x="281" y="401" on="1"/>
        <pt x="198" y="0" on="1"/>
        <pt x="46" y="0" on="1"/>
      </contour>
      <contour>
        <pt x="381" y="529" on="0"/>
        <pt x="428" y="529" on="1"/>
        <pt x="545" y="529" on="0"/>
        <pt x="695" y="589" on="0"/>
        <pt x="778" y="708" on="0"/>
        <pt x="796" y="800" on="1"/>
        <pt x="805" y="847" on="0"/>
        <pt x="805" y="886" on="1"/>
        <pt x="805" y="978" on="0"/>
        <pt x="694" y="1074" on="0"/>
        <pt x="573" y="1074" on="1"/>
        <pt x="413" y="1074" on="1"/>
        <pt x="303" y="535" on="1"/>
      </contour>
    </TTGlyph>
    <TTGlyph name="parenleft" xMin="279" yMin="-290" xMax="1093" yMax="1500">
      <contour>
        <pt x="388" y="982" on="0"/>
        <pt x="763" y="1456" on="0"/>
        <pt x="1093" y="1500" on="1"/>
        <pt x="1091" y="1373" on="1"/>
        <pt x="903" y="1340" on="0"/>
        <pt x="660" y="1138" on="0"/>
        <pt x="520" y="826" on="0"/>
        <pt x="476" y="603" on="1"/>
        <pt x="436" y="401" on="0"/>
        <pt x="436" y="275" on="1"/>
        <pt x="436" y="91" on="0"/>
        <pt x="596" y="-128" on="0"/>
        <pt x="780" y="-163" on="1"/>
        <pt x="739" y="-290" on="1"/>
        <pt x="498" y="-256" on="0"/>
        <pt x="279" y="49" on="0"/>
        <pt x="279" y="293" on="1"/>
        <pt x="279" y="430" on="0"/>
        <pt x="314" y="607" on="1"/>
      </contour>
    </TTGlyph>
    <TTGlyph name="parenright" xMin="155" yMin="-290" xMax="969" yMax="1500">
      <contour>
        <pt x="772" y="-207" on="0"/>
        <pt x="155" y="-290" on="1"/>
        <pt x="158" y="-163" on="1"/>
        <pt x="345" y="-130" on="0"/>
        <pt x="588" y="72" on="0"/>
        <pt x="728" y="384" on="0"/>
        <pt x="773" y="607" on="1"/>
        <pt x="812" y="804" on="0"/>
        <pt x="812" y="934" on="1"/>
        <pt x="812" y="1119" on="0"/>
        <pt x="653" y="1338" on="0"/>
        <pt x="469" y="1373" on="1"/>
        <pt x="509" y="1500" on="1"/>
        <pt x="969" y="1434" on="0"/>
        <pt x="969" y="916" on="1"/>
        <pt x="969" y="773" on="0"/>
        <pt x="935" y="603" on="1"/>
      </contour>
    </TTGlyph>
    <TTGlyph name="percent" xMin="-56" yMin="-19" xMax="1177" yMax="1380">
      <contour>
        <pt x="1018" y="1210" on="1"/>
        <pt x="1177" y="1210" on="1"/>
        <pt x="103" y="151" on="1"/>
        <pt x="-56" y="151" on="1"/>
      </contour>
      <contour>
        <pt x="601" y="-19" on="0"/>
        <pt x="509" y="89" on="0"/>
        <pt x="509" y="187" on="1"/>
        <pt x="509" y="230" on="0"/>
        <pt x="520" y="288" on="1"/>
        <pt x="548" y="431" on="0"/>
        <pt x="698" y="588" on="0"/>
        <pt x="805" y="588" on="1"/>
        <pt x="890" y="588" on="0"/>
        <pt x="982" y="483" on="0"/>
        <pt x="982" y="386" on="1"/>
        <pt x="982" y="342" on="0"/>
        <pt x="971" y="284" on="1"/>
        <pt x="942" y="141" on="0"/>
        <pt x="793" y="-19" on="0"/>
        <pt x="687" y="-19" on="1"/>
      </contour>
      <contour>
        <pt x="803" y="104" on="0"/>
        <pt x="840" y="288" on="1"/>
        <pt x="851" y="346" on="0"/>
        <pt x="851" y="379" on="1"/>
        <pt x="851" y="425" on="0"/>
        <pt x="817" y="467" on="0"/>
        <pt x="783" y="467" on="1"/>
        <pt x="686" y="467" on="0"/>
        <pt x="649" y="284" on="1"/>
        <pt x="638" y="226" on="0"/>
        <pt x="638" y="193" on="1"/>
        <pt x="638" y="146" on="0"/>
        <pt x="672" y="104" on="0"/>
        <pt x="706" y="104" on="1"/>
      </contour>
      <contour>
        <pt x="231" y="773" on="0"/>
        <pt x="138" y="881" on="0"/>
        <pt x="138" y="979" on="1"/>
        <pt x="138" y="1023" on="0"/>
        <pt x="149" y="1080" on="1"/>
        <pt x="178" y="1223" on="0"/>
        <pt x="327" y="1380" on="0"/>
        <pt x="434" y="1380" on="1"/>
        <pt x="519" y="1380" on="0"/>
        <pt x="611" y="1275" on="0"/>
        <pt x="611" y="1179" on="1"/>
        <pt x="611" y="1127" on="0"/>
        <pt x="600" y="1076" on="1"/>
        <pt x="571" y="932" on="0"/>
        <pt x="423" y="773" on="0"/>
        <pt x="317" y="773" on="1"/>
      </contour>
      <contour>
        <pt x="383" y="896" on="0"/>
        <pt x="450" y="983" on="0"/>
        <pt x="469" y="1080" on="1"/>
        <pt x="480" y="1138" on="0"/>
        <pt x="480" y="1171" on="1"/>
        <pt x="480" y="1217" on="0"/>
        <pt x="446" y="1259" on="0"/>
        <pt x="412" y="1259" on="1"/>
        <pt x="315" y="1259" on="0"/>
        <pt x="278" y="1076" on="1"/>
        <pt x="267" y="1019" on="0"/>
        <pt x="267" y="986" on="1"/>
        <pt x="267" y="938" on="0"/>
        <pt x="302" y="896" on="0"/>
        <pt x="336" y="896" on="1"/>
      </contour>
    </TTGlyph>
    <TTGlyph name="period" xMin="132" yMin="-11" xMax="289" yMax="143">
      <contour>
        <pt x="168" y="-11" on="0"/>
        <pt x="132" y="25" on="0"/>
        <pt x="132" y="52" on="1"/>
        <pt x="132" y="90" on="0"/>
        <pt x="186" y="143" on="0"/>
        <pt x="222" y="143" on="1"/>
        <pt x="252" y="143" on="0"/>
        <pt x="289" y="109" on="0"/>
        <pt x="289" y="82" on="1"/>
        <pt x="289" y="43" on="0"/>
        <pt x="235" y="-11" on="0"/>
        <pt x="197" y="-11" on="1"/>
      </contour>
    </TTGlyph>
    <TTGlyph name="periodcentered" xMin="505" yMin="614" xMax="611" yMax="717">
      <contour>
        <pt x="529" y="615" on="0"/>
        <pt x="505" y="638" on="0"/>
        <pt x="505" y="656" on="1"/>
        <pt x="505" y="682" on="0"/>
        <pt x="540" y="717" on="0"/>
        <pt x="566" y="717" on="1"/>
        <pt x="586" y="717" on="0"/>
        <pt x="611" y="692" on="0"/>
        <pt x="611" y="674" on="1"/>
        <pt x="611" y="647" on="0"/>
        <pt x="575" y="615" on="0"/>
        <pt x="549" y="614" on="1"/>
      </contour>
    </TTGlyph>
    <TTGlyph name="pi" xMin="83" yMin="0" xMax="976" yMax="1047">
      <contour>
        <pt x="766" y="0" on="1"/>
        <pt x="710" y="0" on="1"/>
        <pt x="910" y="996" on="1"/>
        <pt x="339" y="996" on="1"/>
        <pt x="139" y="0" on="1"/>
        <pt x="83" y="0" on="1"/>
        <pt x="293" y="1047" on="1"/>
        <pt x="976" y="1047" on="1"/>
      </contour>
    </TTGlyph>
    <TTGlyph name="plus" xMin="64" yMin="189" xMax="1058" yMax="1172">
      <contour>
        <pt x="527" y="655" on="1"/>
        <pt x="64" y="655" on="1"/>
        <pt x="75" y="706" on="1"/>
        <pt x="538" y="706" on="1"/>
        <pt x="631" y="1172" on="1"/>
        <pt x="688" y="1172" on="1"/>
        <pt x="595" y="706" on="1"/>
        <pt x="1058" y="706" on="1"/>
        <pt x="1047" y="655" on="1"/>
        <pt x="584" y="655" on="1"/>
        <pt x="491" y="189" on="1"/>
        <pt x="434" y="189" on="1"/>
      </contour>
    </TTGlyph>
    <TTGlyph name="plusminus" xMin="-163" yMin="42" xMax="983" yMax="1323">
      <component glyphName="minus" x="-227" y="-613" flags="0x4"/>
      <component glyphName="plus" x="-75" y="151" flags="0x4"/>
    </TTGlyph>
    <TTGlyph name="q" xMin="103" yMin="-303" xMax="967" yMax="1068">
      <contour>
        <pt x="764" y="270" on="1"/>
        <pt x="656" y="160" on="1"/>
        <pt x="571" y="77" on="0"/>
        <pt x="410" y="-15" on="0"/>
        <pt x="325" y="-15" on="1"/>
        <pt x="215" y="-15" on="0"/>
        <pt x="103" y="128" on="0"/>
        <pt x="103" y="265" on="1"/>
        <pt x="103" y="347" on="0"/>
        <pt x="124" y="452" on="1"/>
        <pt x="164" y="650" on="0"/>
        <pt x="334" y="928" on="0"/>
        <pt x="558" y="1068" on="0"/>
        <pt x="680" y="1068" on="1"/>
        <pt x="755" y="1068" on="0"/>
        <pt x="904" y="1037" on="0"/>
        <pt x="967" y="1012" on="1"/>
        <pt x="706" y="-303" on="1"/>
        <pt x="650" y="-303" on="1"/>
      </contour>
      <contour>
        <pt x="416" y="36" on="0"/>
        <pt x="561" y="125" on="0"/>
        <pt x="648" y="210" on="1"/>
        <pt x="777" y="333" on="1"/>
        <pt x="908" y="980" on="1"/>
        <pt x="861" y="997" on="0"/>
        <pt x="742" y="1019" on="0"/>
        <pt x="684" y="1019" on="1"/>
        <pt x="572" y="1019" on="0"/>
        <pt x="372" y="891" on="0"/>
        <pt x="221" y="636" on="0"/>
        <pt x="184" y="452" on="1"/>
        <pt x="163" y="346" on="0"/>
        <pt x="163" y="267" on="1"/>
        <pt x="163" y="36" on="0"/>
        <pt x="341" y="36" on="1"/>
      </contour>
    </TTGlyph>
    <TTGlyph name="q.sc" xMin="90" yMin="-310" xMax="1002" yMax="1229">
      <contour>
        <pt x="467" y="-310" on="0"/>
        <pt x="346" y="-181" on="0"/>
        <pt x="346" y="-47" on="1"/>
        <pt x="346" y="-25" on="0"/>
        <pt x="347" y="-13" on="1"/>
        <pt x="90" y="25" on="0"/>
        <pt x="90" y="355" on="1"/>
        <pt x="90" y="460" on="0"/>
        <pt x="119" y="607" on="1"/>
        <pt x="180" y="914" on="0"/>
        <pt x="460" y="1229" on="0"/>
        <pt x="668" y="1229" on="1"/>
        <pt x="839" y="1229" on="0"/>
        <pt x="1002" y="1043" on="0"/>
        <pt x="1002" y="860" on="1"/>
        <pt x="1002" y="750" on="0"/>
        <pt x="973" y="603" on="1"/>
        <pt x="917" y="326" on="0"/>
        <pt x="663" y="12" on="0"/>
        <pt x="489" y="-16" on="1"/>
        <pt x="488" y="-24" on="0"/>
        <pt x="488" y="-39" on="1"/>
        <pt x="488" y="-109" on="0"/>
        <pt x="560" y="-174" on="0"/>
        <pt x="634" y="-174" on="1"/>
        <pt x="677" y="-174" on="0"/>
        <pt x="757" y="-163" on="1"/>
        <pt x="755" y="-285" on="1"/>
        <pt x="681" y="-310" on="0"/>
        <pt x="580" y="-310" on="1"/>
      </contour>
      <contour>
        <pt x="580" y="113" on="0"/>
        <pt x="762" y="343" on="0"/>
        <pt x="815" y="607" on="1"/>
        <pt x="846" y="758" on="0"/>
        <pt x="846" y="860" on="1"/>
        <pt x="846" y="985" on="0"/>
        <pt x="748" y="1097" on="0"/>
        <pt x="646" y="1097" on="1"/>
        <pt x="551" y="1097" on="0"/>
        <pt x="414" y="1002" on="0"/>
        <pt x="313" y="785" on="0"/>
        <pt x="277" y="603" on="1"/>
        <pt x="249" y="462" on="0"/>
        <pt x="249" y="363" on="1"/>
        <pt x="249" y="231" on="0"/>
        <pt x="348" y="113" on="0"/>
        <pt x="445" y="113" on="1"/>
      </contour>
    </TTGlyph>
    <TTGlyph name="question" xMin="132" yMin="-11" xMax="1020" yMax="1380">
      <contour>
        <pt x="638" y="668" on="0"/>
        <pt x="817" y="862" on="0"/>
        <pt x="840" y="976" on="1"/>
        <pt x="847" y="1010" on="0"/>
        <pt x="847" y="1045" on="1"/>
        <pt x="847" y="1141" on="0"/>
        <pt x="720" y="1244" on="0"/>
        <pt x="596" y="1244" on="1"/>
        <pt x="533" y="1244" on="0"/>
        <pt x="371" y="1212" on="0"/>
        <pt x="308" y="1192" on="1"/>
        <pt x="292" y="1302" on="1"/>
        <pt x="374" y="1336" on="0"/>
        <pt x="559" y="1380" on="0"/>
        <pt x="646" y="1380" on="1"/>
        <pt x="763" y="1380" on="0"/>
        <pt x="932" y="1305" on="0"/>
        <pt x="1020" y="1167" on="0"/>
        <pt x="1020" y="1073" on="1"/>
        <pt x="1020" y="1032" on="0"/>
        <pt x="1011" y="985" on="1"/>
        <pt x="981" y="834" on="0"/>
        <pt x="727" y="572" on="0"/>
        <pt x="526" y="453" on="1"/>
        <pt x="464" y="549" on="1"/>
      </contour>
      <contour>
        <pt x="168" y="-11" on="0"/>
        <pt x="132" y="25" on="0"/>
        <pt x="132" y="52" on="1"/>
        <pt x="132" y="90" on="0"/>
        <pt x="186" y="143" on="0"/>
        <pt x="222" y="143" on="1"/>
        <pt x="252" y="143" on="0"/>
        <pt x="289" y="109" on="0"/>
        <pt x="289" y="82" on="1"/>
        <pt x="289" y="43" on="0"/>
        <pt x="235" y="-11" on="0"/>
        <pt x="197" y="-11" on="1"/>
      </contour>
    </TTGlyph>
    <TTGlyph name="questiondown" xMin="41" yMin="-321" xMax="929" yMax="1070">
      <contour>
        <pt x="423" y="391" on="0"/>
        <pt x="245" y="198" on="0"/>
        <pt x="222" y="83" on="1"/>
        <pt x="214" y="43" on="0"/>
        <pt x="214" y="13" on="1"/>
        <pt x="214" y="-83" on="0"/>
        <pt x="341" y="-185" on="0"/>
        <pt x="465" y="-185" on="1"/>
        <pt x="527" y="-185" on="0"/>
        <pt x="690" y="-153" on="0"/>
        <pt x="754" y="-133" on="1"/>
        <pt x="770" y="-243" on="1"/>
        <pt x="688" y="-277" on="0"/>
        <pt x="502" y="-321" on="0"/>
        <pt x="415" y="-321" on="1"/>
        <pt x="298" y="-321" on="0"/>
        <pt x="129" y="-246" on="0"/>
        <pt x="41" y="-107" on="0"/>
        <pt x="41" y="-13" on="1"/>
        <pt x="41" y="29" on="0"/>
        <pt x="50" y="74" on="1"/>
        <pt x="80" y="225" on="0"/>
        <pt x="334" y="487" on="0"/>
        <pt x="535" y="606" on="1"/>
        <pt x="598" y="510" on="1"/>
      </contour>
      <contour>
        <pt x="893" y="1070" on="0"/>
        <pt x="929" y="1034" on="0"/>
        <pt x="929" y="1007" on="1"/>
        <pt x="929" y="969" on="0"/>
        <pt x="875" y="916" on="0"/>
        <pt x="839" y="916" on="1"/>
        <pt x="809" y="916" on="0"/>
        <pt x="772" y="951" on="0"/>
        <pt x="772" y="978" on="1"/>
        <pt x="772" y="1016" on="0"/>
        <pt x="826" y="1070" on="0"/>
        <pt x="864" y="1070" on="1"/>
      </contour>
    </TTGlyph>
    <TTGlyph name="quotedbl" xMin="195" yMin="756" xMax="933" yMax="1362">
      <component glyphName="quotesingle" x="-321" y="0" flags="0x0"/>
      <component glyphName="quotesingle" x="111" y="0" flags="0x0"/>
    </TTGlyph>
    <TTGlyph name="quotedblbase" xMin="-244" yMin="-314" xMax="812" yMax="323">
      <component glyphName="quoteright" x="-548" y="-1059" flags="0x4"/>
      <component glyphName="quoteright" x="-45" y="-1059" flags="0x4"/>
    </TTGlyph>
    <TTGlyph name="quotedblleft" xMin="157" yMin="800" xMax="1213" yMax="1437">
      <contour>
        <pt x="740" y="800" on="0"/>
        <pt x="660" y="883" on="0"/>
        <pt x="660" y="960" on="1"/>
        <pt x="660" y="994" on="0"/>
        <pt x="667" y="1029" on="1"/>
        <pt x="700" y="1195" on="0"/>
        <pt x="975" y="1403" on="0"/>
        <pt x="1208" y="1437" on="1"/>
        <pt x="1213" y="1320" on="1"/>
        <pt x="1068" y="1292" on="0"/>
        <pt x="892" y="1200" on="0"/>
        <pt x="882" y="1151" on="1"/>
        <pt x="879" y="1133" on="0"/>
        <pt x="901" y="1105" on="0"/>
        <pt x="927" y="1092" on="1"/>
        <pt x="959" y="1076" on="0"/>
        <pt x="991" y="1022" on="0"/>
        <pt x="991" y="988" on="1"/>
        <pt x="991" y="973" on="0"/>
        <pt x="988" y="956" on="1"/>
        <pt x="974" y="887" on="0"/>
        <pt x="874" y="800" on="0"/>
        <pt x="804" y="800" on="1"/>
      </contour>
      <contour>
        <pt x="237" y="800" on="0"/>
        <pt x="157" y="883" on="0"/>
        <pt x="157" y="960" on="1"/>
        <pt x="157" y="994" on="0"/>
        <pt x="164" y="1029" on="1"/>
        <pt x="197" y="1195" on="0"/>
        <pt x="472" y="1403" on="0"/>
        <pt x="705" y="1437" on="1"/>
        <pt x="710" y="1320" on="1"/>
        <pt x="565" y="1292" on="0"/>
        <pt x="389" y="1200" on="0"/>
        <pt x="379" y="1151" on="1"/>
        <pt x="376" y="1133" on="0"/>
        <pt x="398" y="1105" on="0"/>
        <pt x="424" y="1092" on="1"/>
        <pt x="456" y="1076" on="0"/>
        <pt x="488" y="1022" on="0"/>
        <pt x="488" y="988" on="1"/>
        <pt x="488" y="973" on="0"/>
        <pt x="485" y="956" on="1"/>
        <pt x="471" y="887" on="0"/>
        <pt x="371" y="800" on="0"/>
        <pt x="301" y="800" on="1"/>
      </contour>
    </TTGlyph>
    <TTGlyph name="quotedblright" xMin="-32" yMin="745" xMax="1024" yMax="1382">
      <component glyphName="quoteright" x="-336" y="0" flags="0x0"/>
      <component glyphName="quoteright" x="167" y="0" flags="0x0"/>
    </TTGlyph>
    <TTGlyph name="quoteleft" xMin="429" yMin="800" xMax="982" yMax="1437">
      <contour>
        <pt x="509" y="800" on="0"/>
        <pt x="429" y="883" on="0"/>
        <pt x="429" y="960" on="1"/>
        <pt x="429" y="994" on="0"/>
        <pt x="436" y="1029" on="1"/>
        <pt x="469" y="1195" on="0"/>
        <pt x="744" y="1403" on="0"/>
        <pt x="977" y="1437" on="1"/>
        <pt x="982" y="1320" on="1"/>
        <pt x="837" y="1292" on="0"/>
        <pt x="661" y="1200" on="0"/>
        <pt x="651" y="1151" on="1"/>
        <pt x="648" y="1133" on="0"/>
        <pt x="670" y="1105" on="0"/>
        <pt x="696" y="1092" on="1"/>
        <pt x="728" y="1076" on="0"/>
        <pt x="760" y="1022" on="0"/>
        <pt x="760" y="988" on="1"/>
        <pt x="760" y="973" on="0"/>
        <pt x="757" y="956" on="1"/>
        <pt x="743" y="887" on="0"/>
        <pt x="643" y="800" on="0"/>
        <pt x="573" y="800" on="1"/>
      </contour>
    </TTGlyph>
    <TTGlyph name="quoteright" xMin="304" yMin="745" xMax="857" yMax="1382">
      <contour>
        <pt x="777" y="1382" on="0"/>
        <pt x="857" y="1299" on="0"/>
        <pt x="857" y="1222" on="1"/>
        <pt x="857" y="1188" on="0"/>
        <pt x="850" y="1153" on="1"/>
        <pt x="817" y="987" on="0"/>
        <pt x="542" y="779" on="0"/>
        <pt x="309" y="745" on="1"/>
        <pt x="304" y="862" on="1"/>
        <pt x="449" y="890" on="0"/>
        <pt x="625" y="982" on="0"/>
        <pt x="635" y="1031" on="1"/>
        <pt x="638" y="1049" on="0"/>
        <pt x="616" y="1077" on="0"/>
        <pt x="590" y="1090" on="1"/>
        <pt x="558" y="1106" on="0"/>
        <pt x="526" y="1160" on="0"/>
        <pt x="526" y="1194" on="1"/>
        <pt x="526" y="1210" on="0"/>
        <pt x="529" y="1226" on="1"/>
        <pt x="543" y="1295" on="0"/>
        <pt x="643" y="1382" on="0"/>
        <pt x="713" y="1382" on="1"/>
      </contour>
    </TTGlyph>
    <TTGlyph name="quotesinglbase" xMin="-13" yMin="-314" xMax="540" yMax="323">
      <component glyphName="quoteright" x="-317" y="-1059" flags="0x4"/>
    </TTGlyph>
    <TTGlyph name="quotesingle" xMin="516" yMin="756" xMax="822" yMax="1362">
      <contour>
        <pt x="573" y="1362" on="1"/>
        <pt x="822" y="1362" on="1"/>
        <pt x="637" y="756" on="1"/>
        <pt x="516" y="756" on="1"/>
      </contour>
    </TTGlyph>
    <TTGlyph name="r" xMin="83" yMin="0" xMax="862" yMax="1062">
      <contour>
        <pt x="813" y="1062" on="0"/>
        <pt x="862" y="1051" on="1"/>
        <pt x="846" y="995" on="1"/>
        <pt x="792" y="1006" on="0"/>
        <pt x="741" y="1007" on="1"/>
        <pt x="677" y="1007" on="0"/>
        <pt x="563" y="954" on="0"/>
        <pt x="463" y="868" on="0"/>
        <pt x="403" y="803" on="1"/>
        <pt x="272" y="663" on="1"/>
        <pt x="139" y="0" on="1"/>
        <pt x="83" y="0" on="1"/>
        <pt x="293" y="1047" on="1"/>
        <pt x="349" y="1047" on="1"/>
        <pt x="285" y="727" on="1"/>
        <pt x="398" y="855" on="1"/>
        <pt x="486" y="953" on="0"/>
        <pt x="651" y="1062" on="0"/>
        <pt x="752" y="1062" on="1"/>
      </contour>
    </TTGlyph>
    <TTGlyph name="r.sc" xMin="46" yMin="0" xMax="975" yMax="1210">
      <contour>
        <pt x="288" y="1210" on="1"/>
        <pt x="593" y="1210" on="1"/>
        <pt x="783" y="1210" on="0"/>
        <pt x="975" y="1066" on="0"/>
        <pt x="975" y="935" on="1"/>
        <pt x="975" y="897" on="0"/>
        <pt x="966" y="853" on="1"/>
        <pt x="938" y="716" on="0"/>
        <pt x="750" y="535" on="0"/>
        <pt x="597" y="509" on="1"/>
        <pt x="835" y="0" on="1"/>
        <pt x="648" y="0" on="1"/>
        <pt x="437" y="492" on="1"/>
        <pt x="297" y="492" on="1"/>
        <pt x="198" y="0" on="1"/>
        <pt x="46" y="0" on="1"/>
      </contour>
      <contour>
        <pt x="633" y="628" on="0"/>
        <pt x="784" y="739" on="0"/>
        <pt x="806" y="849" on="1"/>
        <pt x="813" y="888" on="0"/>
        <pt x="813" y="910" on="1"/>
        <pt x="813" y="990" on="0"/>
        <pt x="698" y="1074" on="0"/>
        <pt x="573" y="1074" on="1"/>
        <pt x="413" y="1074" on="1"/>
        <pt x="324" y="628" on="1"/>
        <pt x="497" y="628" on="1"/>
      </contour>
    </TTGlyph>
    <TTGlyph name="racute" xMin="-22" yMin="0" xMax="886" yMax="1643">
      <component glyphName="r" x="-105" y="0" flags="0x0"/>
      <component glyphName="acutecomb" x="-180" y="0" flags="0x0"/>
    </TTGlyph>
    <TTGlyph name="racute.sc" xMin="-59" yMin="0" xMax="960" yMax="1805">
      <component glyphName="r.sc" x="-105" y="0" flags="0x0"/>
      <component glyphName="acutecomb" x="-106" y="162" flags="0x4"/>
    </TTGlyph>
    <TTGlyph name="rcaron" xMin="-22" yMin="0" xMax="889" yMax="1643">
      <component glyphName="r" x="-105" y="0" flags="0x0"/>
      <component glyphName="uni030C" x="-180" y="0" flags="0x0"/>
    </TTGlyph>
    <TTGlyph name="rcaron.sc" xMin="-59" yMin="0" xMax="963" yMax="1805">
      <component glyphName="r.sc" x="-105" y="0" flags="0x0"/>
      <component glyphName="uni030C" x="-106" y="162" flags="0x4"/>
    </TTGlyph>
    <TTGlyph name="ring" xMin="362" yMin="1216" xMax="856" yMax="1675">
      <component glyphName="uni030A" x="-105" y="0" flags="0x0"/>
    </TTGlyph>
    <TTGlyph name="s" xMin="46" yMin="-17" xMax="815" yMax="1067">
      <contour>
        <pt x="245" y="-17" on="0"/>
        <pt x="103" y="22" on="0"/>
        <pt x="46" y="54" on="1"/>
        <pt x="64" y="96" on="1"/>
        <pt x="120" y="68" on="0"/>
        <pt x="254" y="34" on="0"/>
        <pt x="326" y="34" on="1"/>
        <pt x="407" y="34" on="0"/>
        <pt x="536" y="93" on="0"/>
        <pt x="617" y="195" on="0"/>
        <pt x="630" y="258" on="1"/>
        <pt x="635" y="286" on="0"/>
        <pt x="635" y="305" on="1"/>
        <pt x="635" y="361" on="0"/>
        <pt x="578" y="439" on="0"/>
        <pt x="494" y="490" on="0"/>
        <pt x="423" y="523" on="1"/>
        <pt x="350" y="557" on="0"/>
        <pt x="260" y="611" on="0"/>
        <pt x="199" y="697" on="0"/>
        <pt x="199" y="759" on="1"/>
        <pt x="199" y="785" on="0"/>
        <pt x="205" y="813" on="1"/>
        <pt x="219" y="883" on="0"/>
        <pt x="314" y="998" on="0"/>
        <pt x="470" y="1067" on="0"/>
        <pt x="570" y="1067" on="1"/>
        <pt x="686" y="1067" on="0"/>
        <pt x="815" y="1006" on="1"/>
        <pt x="795" y="961" on="1"/>
        <pt x="749" y="984" on="0"/>
        <pt x="627" y="1015" on="0"/>
        <pt x="565" y="1016" on="1"/>
        <pt x="480" y="1016" on="0"/>
        <pt x="352" y="961" on="0"/>
        <pt x="275" y="870" on="0"/>
        <pt x="263" y="813" on="1"/>
        <pt x="259" y="794" on="0"/>
        <pt x="259" y="773" on="1"/>
        <pt x="259" y="722" on="0"/>
        <pt x="313" y="650" on="0"/>
        <pt x="393" y="602" on="0"/>
        <pt x="461" y="571" on="1"/>
        <pt x="538" y="535" on="0"/>
        <pt x="630" y="478" on="0"/>
        <pt x="694" y="385" on="0"/>
        <pt x="694" y="318" on="1"/>
        <pt x="694" y="290" on="0"/>
        <pt x="688" y="257" on="1"/>
        <pt x="673" y="182" on="0"/>
        <pt x="576" y="57" on="0"/>
        <pt x="421" y="-17" on="0"/>
        <pt x="323" y="-17" on="1"/>
      </contour>
    </TTGlyph>
</ttFont>
